{"glyphs":{"0":{"ha":956,"x_min":70,"x_max":886,"o":"m 478 -22 q 259 40 351 -22 q 119 220 168 103 q 70 504 70 338 q 179 888 71 752 q 478 1024 288 1024 q 696 963 605 1024 q 837 785 788 902 q 886 504 886 669 q 777 116 885 254 q 478 -22 668 -22 m 478 155 q 617 242 565 155 q 668 504 668 329 q 616 763 668 676 q 478 849 564 849 q 340 763 392 849 q 288 504 288 676 q 339 242 287 329 q 478 155 391 155 z "},"1":{"ha":680,"x_min":71,"x_max":521,"o":"m 521 1010 l 521 0 l 308 0 l 308 807 l 302 807 l 71 662 l 71 852 l 321 1010 l 521 1010 z "},"2":{"ha":875,"x_min":72,"x_max":802,"o":"m 82 0 l 82 154 l 441 487 q 546 602 510 553 q 582 711 582 651 q 538 816 582 777 q 428 855 494 855 q 316 813 359 855 q 275 699 274 771 l 72 699 q 117 871 72 798 q 242 984 162 944 q 429 1024 323 1024 q 618 986 538 1024 q 744 880 699 947 q 789 725 789 813 q 766 612 789 668 q 686 489 743 556 q 525 326 629 421 l 378 182 l 378 175 l 802 175 l 802 0 l 82 0 z "},"3":{"ha":916,"x_min":72,"x_max":844,"o":"m 455 -14 q 258 24 344 -14 q 123 130 173 62 q 72 286 74 197 l 287 286 q 338 196 290 230 q 456 162 385 162 q 576 200 529 162 q 622 298 622 238 q 572 398 622 359 q 436 436 522 436 l 342 436 l 342 593 l 436 593 q 555 630 509 593 q 601 727 601 667 q 562 819 601 784 q 457 855 522 855 q 345 820 392 855 q 297 728 299 786 l 92 728 q 142 882 94 815 q 273 986 190 949 q 458 1024 355 1024 q 641 986 563 1024 q 763 884 720 948 q 806 739 807 819 q 754 598 807 654 q 616 526 701 541 l 616 518 q 786 441 727 504 q 844 284 844 378 q 794 130 844 197 q 656 25 744 63 q 455 -14 569 -14 z "},"4":{"ha":942,"x_min":67,"x_max":881,"o":"m 67 178 l 67 346 l 488 1010 l 756 1010 l 756 349 l 881 349 l 881 178 l 756 178 l 756 0 l 551 0 l 551 178 l 67 178 m 555 349 l 555 777 l 547 777 l 282 357 l 282 349 l 555 349 z "},"5":{"ha":895,"x_min":85,"x_max":829,"o":"m 451 -14 q 264 25 346 -14 q 135 131 182 63 q 85 286 87 198 l 292 286 q 342 190 296 227 q 451 154 387 154 q 574 203 526 154 q 622 331 622 253 q 573 461 622 411 q 448 511 524 511 q 362 493 403 511 q 297 443 320 475 l 107 477 l 155 1010 l 772 1010 l 772 836 l 331 836 l 305 582 l 311 582 q 391 645 337 620 q 511 669 445 669 q 674 626 603 669 q 787 509 746 583 q 828 337 829 434 q 781 156 829 235 q 648 31 733 76 q 451 -14 563 -14 z "},"6":{"ha":917,"x_min":66,"x_max":848,"o":"m 470 -14 q 320 13 392 -13 q 190 96 248 38 q 100 249 133 153 q 66 482 67 344 q 117 775 67 654 q 260 962 168 897 q 477 1027 352 1027 q 655 987 578 1027 q 780 880 732 948 q 837 728 827 813 l 626 728 q 575 814 614 784 q 477 844 535 844 q 327 758 378 844 q 275 522 276 672 l 282 522 q 385 627 316 589 q 537 664 453 664 q 697 622 626 664 q 807 507 767 580 q 847 338 848 433 q 800 156 848 236 q 667 31 752 76 q 470 -14 582 -14 m 469 154 q 592 205 543 154 q 640 332 641 256 q 592 459 641 407 q 470 510 544 510 q 382 486 421 510 q 320 421 343 462 q 297 332 297 381 q 319 242 297 283 q 381 178 342 202 q 469 154 419 154 z "},"7":{"ha":826,"x_min":53,"x_max":762,"o":"m 122 0 l 541 829 l 541 836 l 53 836 l 53 1010 l 762 1010 l 762 833 l 342 0 l 122 0 z "},"8":{"ha":918,"x_min":67,"x_max":851,"o":"m 459 -14 q 256 23 345 -14 q 117 125 168 61 q 67 272 67 190 q 96 388 67 335 q 175 476 125 441 q 286 521 224 511 l 286 528 q 155 607 206 545 q 105 752 104 669 q 150 892 105 831 q 276 989 196 953 q 459 1024 357 1024 q 641 989 561 1024 q 767 892 721 953 q 813 752 813 831 q 762 607 813 669 q 632 528 711 545 l 632 521 q 742 476 692 511 q 821 388 792 441 q 851 272 851 335 q 800 125 851 190 q 661 23 750 61 q 459 -14 573 -14 m 459 143 q 581 184 535 143 q 628 289 628 224 q 580 397 628 354 q 459 439 532 439 q 337 397 385 439 q 289 289 289 354 q 336 184 289 224 q 459 143 383 143 m 459 594 q 563 632 522 594 q 605 730 605 670 q 564 826 605 789 q 459 863 523 863 q 353 826 394 863 q 313 730 313 789 q 354 632 313 670 q 459 594 395 594 z "},"9":{"ha":917,"x_min":70,"x_max":851,"o":"m 447 1027 q 598 1001 525 1027 q 727 917 670 975 q 817 765 784 860 q 851 531 851 670 q 800 238 851 360 q 657 51 749 116 q 440 -14 565 -14 q 261 25 339 -14 q 137 132 184 65 q 80 285 90 200 l 291 285 q 342 200 303 230 q 440 169 382 169 q 590 255 539 169 q 642 491 641 341 l 635 491 q 532 387 601 425 q 380 349 464 349 q 220 391 291 349 q 110 507 150 433 q 70 675 70 580 q 117 857 70 777 q 249 982 164 937 q 447 1027 334 1027 m 449 859 q 326 808 374 859 q 277 681 277 757 q 325 555 277 606 q 447 504 373 504 q 535 528 496 504 q 597 592 574 552 q 620 682 620 633 q 598 771 620 730 q 537 835 575 811 q 449 859 498 859 z "}," ":{"ha":322,"x_min":0,"x_max":0,"o":""},"!":{"ha":451,"x_min":107,"x_max":344,"o":"m 335 1010 l 316 303 l 135 303 l 115 1010 l 335 1010 m 225 -13 q 142 22 177 -13 q 107 106 107 56 q 142 188 107 154 q 225 223 177 223 q 308 188 273 223 q 344 106 343 154 q 308 22 343 56 q 225 -13 273 -13 z "},"\"":{"ha":545,"x_min":69,"x_max":474,"o":"m 219 1010 l 219 626 l 69 626 l 69 1010 l 219 1010 m 474 1010 l 474 626 l 324 626 l 324 1010 l 474 1010 z "},"#":{"ha":902,"x_min":14,"x_max":888,"o":"m 467 0 l 508 251 l 310 251 l 269 0 l 111 0 l 152 251 l 14 251 l 40 408 l 179 408 l 210 602 l 72 602 l 99 760 l 236 760 l 277 1010 l 435 1010 l 394 760 l 591 760 l 632 1010 l 790 1010 l 749 760 l 888 760 l 861 602 l 723 602 l 691 408 l 830 408 l 803 251 l 665 251 l 624 0 l 467 0 m 336 408 l 534 408 l 565 602 l 368 602 l 336 408 z "},"$":{"ha":909,"x_min":55,"x_max":854,"o":"m 399 -126 l 400 -12 q 151 85 243 1 q 55 317 59 168 l 262 317 q 304 218 266 255 q 402 170 342 182 l 404 431 l 357 443 q 155 540 229 473 q 82 718 81 607 q 123 867 81 802 q 239 972 165 932 q 410 1021 313 1012 l 411 1136 l 527 1136 l 526 1020 q 754 924 669 1005 q 840 720 838 842 l 636 720 q 524 839 626 815 l 522 592 l 551 585 q 708 528 639 566 q 815 432 776 491 q 854 289 854 373 q 765 80 854 160 q 516 -12 677 0 l 515 -126 l 399 -126 m 518 170 q 606 213 574 182 q 639 289 638 244 q 608 357 638 331 q 520 400 578 383 l 518 170 m 406 622 l 408 840 q 328 801 356 830 q 301 732 301 772 q 330 664 300 690 q 406 622 360 638 z "},"%":{"ha":1194,"x_min":116,"x_max":1080,"o":"m 635 189 l 635 243 q 661 354 635 303 q 736 436 687 405 q 857 467 786 467 q 979 436 930 467 q 1054 355 1029 406 q 1080 243 1080 304 l 1080 189 q 1054 78 1080 129 q 979 -4 1028 27 q 857 -35 929 -35 q 736 -4 785 -35 q 661 78 686 27 q 635 189 635 129 m 116 767 l 116 821 q 143 933 117 882 q 218 1015 169 984 q 338 1045 268 1045 q 461 1015 411 1045 q 536 933 510 984 q 561 821 562 882 l 561 767 q 536 655 562 706 q 460 574 510 605 q 338 544 410 544 q 217 575 266 544 q 142 656 168 605 q 116 767 117 707 m 165 0 l 859 1010 l 988 1010 l 293 0 l 165 0 m 778 243 l 778 189 q 796 123 779 154 q 857 92 812 92 q 919 123 903 92 q 935 189 936 153 l 935 243 q 920 310 936 279 q 857 341 904 341 q 796 310 813 341 q 778 243 779 279 m 261 821 l 261 767 q 278 701 261 731 q 338 670 295 670 q 400 701 384 670 q 417 767 417 731 l 417 821 q 401 888 417 857 q 338 919 385 919 q 278 887 294 919 q 261 821 261 856 z "},"&":{"ha":936,"x_min":56,"x_max":932,"o":"m 394 -15 q 213 23 289 -15 q 96 125 137 60 q 56 268 56 189 q 107 416 56 356 q 240 532 157 475 q 172 640 200 582 q 144 764 144 697 q 178 896 144 837 q 274 989 213 955 q 419 1023 336 1023 q 559 991 501 1023 q 650 904 618 958 q 682 785 682 850 q 646 656 682 714 q 547 552 611 598 l 488 509 l 655 318 q 686 400 675 356 q 698 493 698 443 l 872 493 q 847 310 872 390 q 780 174 822 230 l 932 0 l 713 0 l 652 68 q 528 5 596 25 q 394 -15 460 -15 m 539 194 l 347 407 l 341 403 q 279 341 299 373 q 259 280 259 309 q 299 190 259 226 q 404 154 338 154 q 539 194 473 154 m 387 629 l 440 664 q 513 773 513 711 q 489 829 513 803 q 421 854 465 855 q 350 826 377 854 q 324 761 324 799 q 341 697 324 729 q 387 629 359 665 z "},"'":{"ha":290,"x_min":69,"x_max":219,"o":"m 219 1010 l 219 626 l 69 626 l 69 1010 l 219 1010 z "},"(":{"ha":568,"x_min":130,"x_max":530,"o":"m 130 405 q 329 1029 130 769 l 530 1029 q 438 862 479 964 q 373 641 397 760 q 349 405 349 522 q 373 169 349 288 q 438 -52 397 50 q 530 -219 479 -154 l 329 -219 q 130 405 130 40 z "},")":{"ha":568,"x_min":38,"x_max":438,"o":"m 438 405 q 239 -219 438 41 l 38 -219 q 130 -52 89 -154 q 196 169 172 50 q 219 405 219 288 q 196 641 219 522 q 130 862 172 760 q 38 1029 89 964 l 239 1029 q 438 405 438 769 z "},"*":{"ha":784,"x_min":112,"x_max":672,"o":"m 326 442 l 338 633 l 179 526 l 112 642 l 285 726 l 112 810 l 179 926 l 338 819 l 326 1010 l 459 1010 l 446 819 l 606 926 l 672 810 l 500 726 l 672 642 l 606 526 l 446 633 l 459 442 l 326 442 z "},"+":{"ha":944,"x_min":123,"x_max":821,"o":"m 384 55 l 384 316 l 123 316 l 123 492 l 384 492 l 384 753 l 560 753 l 560 492 l 821 492 l 821 316 l 560 316 l 560 55 l 384 55 z "},",":{"ha":421,"x_min":77,"x_max":312,"o":"m 312 138 l 307 84 q 282 -46 300 19 q 245 -164 264 -111 q 214 -247 225 -217 l 77 -247 q 98 -166 85 -218 q 122 -49 110 -114 q 136 83 133 16 l 139 138 l 312 138 z "},"-":{"ha":651,"x_min":95,"x_max":556,"o":"m 556 498 l 556 331 l 95 331 l 95 498 l 556 498 z "},".":{"ha":413,"x_min":88,"x_max":325,"o":"m 207 -13 q 123 22 158 -13 q 88 106 88 56 q 123 188 88 154 q 207 223 158 223 q 289 188 254 223 q 325 106 325 154 q 289 22 325 56 q 207 -13 254 -13 z "},"/":{"ha":542,"x_min":17,"x_max":524,"o":"m 524 1057 l 198 -152 l 17 -152 l 343 1057 l 524 1057 z "},":":{"ha":413,"x_min":88,"x_max":325,"o":"m 207 -13 q 123 22 158 -13 q 88 106 88 56 q 123 188 88 154 q 207 223 158 223 q 289 188 254 223 q 325 106 325 154 q 289 22 325 56 q 207 -13 254 -13 m 207 517 q 123 552 158 517 q 88 636 88 586 q 123 719 88 684 q 207 753 158 753 q 289 719 254 753 q 325 636 325 684 q 289 552 325 586 q 207 517 254 517 z "},";":{"ha":418,"x_min":77,"x_max":343,"o":"m 312 138 l 307 84 q 282 -46 300 19 q 245 -164 264 -111 q 214 -247 225 -217 l 77 -247 q 98 -166 85 -218 q 122 -49 110 -114 q 136 83 133 16 l 139 138 l 312 138 m 224 517 q 141 552 176 517 q 106 636 106 586 q 141 719 106 684 q 224 753 176 753 q 307 719 272 753 q 343 636 342 684 q 307 552 342 586 q 224 517 272 517 z "},"<":{"ha":944,"x_min":125,"x_max":819,"o":"m 125 317 l 125 491 l 819 797 l 819 597 l 350 408 l 350 400 l 819 211 l 819 11 l 125 317 z "},"=":{"ha":944,"x_min":131,"x_max":812,"o":"m 131 153 l 131 328 l 812 328 l 812 153 l 131 153 m 131 480 l 131 655 l 812 655 l 812 480 l 131 480 z "},">":{"ha":944,"x_min":125,"x_max":819,"o":"m 819 317 l 125 11 l 125 211 l 594 400 l 594 408 l 125 597 l 125 797 l 819 491 l 819 317 z "},"?":{"ha":781,"x_min":53,"x_max":717,"o":"m 264 303 l 264 320 q 280 457 265 406 q 324 540 295 509 q 394 597 353 571 q 471 661 439 626 q 502 743 502 695 q 466 825 502 795 q 381 856 431 856 q 295 825 333 856 q 254 733 256 793 l 53 733 q 100 896 55 832 q 219 992 145 961 q 382 1024 293 1024 q 556 992 480 1024 q 674 898 631 959 q 717 751 717 837 q 675 606 717 664 q 565 508 634 548 q 479 432 507 472 q 451 320 452 392 l 451 303 l 264 303 m 362 -13 q 278 22 313 -13 q 243 106 243 56 q 278 188 243 154 q 362 223 313 223 q 444 188 409 223 q 480 106 479 154 q 444 22 479 56 q 362 -13 409 -13 z "},"@":{"ha":1431,"x_min":84,"x_max":1376,"o":"m 745 -291 q 388 -216 536 -291 q 162 2 240 -140 q 84 346 84 145 q 163 693 84 545 q 390 924 241 841 q 752 1006 540 1006 q 1088 930 948 1006 q 1301 722 1227 855 q 1375 412 1376 588 q 1346 198 1376 291 q 1252 48 1317 104 q 1081 -13 1188 -7 q 957 11 995 -20 q 910 93 919 42 l 905 93 q 858 39 893 63 q 774 2 824 15 q 669 -7 725 -10 q 525 38 591 -3 q 420 158 460 79 q 380 352 380 236 q 421 542 380 467 q 526 658 463 618 q 654 708 589 699 q 760 708 710 717 q 844 681 810 699 q 887 641 878 662 l 894 641 l 894 696 l 1048 696 l 1048 215 q 1103 143 1049 143 q 1181 211 1155 143 q 1206 424 1207 279 q 1169 621 1206 540 q 1067 751 1131 701 q 920 824 1002 801 q 749 847 838 847 q 477 782 585 847 q 314 605 368 717 q 259 352 260 493 q 388 -6 260 118 q 757 -130 515 -130 q 919 -113 842 -130 q 1036 -80 997 -96 l 1085 -223 q 1001 -256 1054 -240 q 882 -281 948 -272 q 745 -291 816 -291 m 723 155 q 849 207 813 155 q 884 360 885 259 q 850 496 884 448 q 722 544 815 544 q 595 493 640 544 q 550 358 550 442 q 567 259 550 306 q 621 184 583 213 q 723 155 658 155 z "},"A":{"ha":1039,"x_min":33,"x_max":1005,"o":"m 262 0 l 33 0 l 382 1010 l 657 1010 l 1005 0 l 776 0 l 701 230 l 337 230 l 262 0 m 391 397 l 648 397 l 523 779 l 515 779 l 391 397 z "},"B":{"ha":918,"x_min":88,"x_max":867,"o":"m 88 0 l 88 1010 l 492 1010 q 744 937 659 1010 q 828 751 828 865 q 776 607 828 662 q 645 534 724 552 l 645 524 q 753 492 703 522 q 836 408 804 462 q 867 279 867 354 q 827 136 867 199 q 710 36 788 73 q 519 0 633 0 l 88 0 m 301 175 l 475 175 q 606 209 565 175 q 647 300 647 244 q 602 403 647 363 q 480 443 557 443 l 301 443 l 301 175 m 301 587 l 460 587 q 569 622 525 587 q 612 716 612 656 q 573 804 612 770 q 464 837 535 837 l 301 837 l 301 587 z "},"C":{"ha":1045,"x_min":70,"x_max":979,"o":"m 979 656 l 763 656 q 692 787 751 740 q 545 835 633 835 q 357 749 428 835 q 287 505 287 663 q 358 259 287 343 q 544 175 429 175 q 689 220 629 175 q 763 345 748 264 l 979 344 q 913 170 968 252 q 764 37 858 88 q 541 -14 670 -14 q 299 47 405 -14 q 131 224 193 109 q 70 505 70 340 q 132 786 70 670 q 301 963 194 902 q 541 1024 407 1024 q 751 981 657 1024 q 905 855 845 938 q 979 656 965 773 z "},"D":{"ha":1010,"x_min":88,"x_max":940,"o":"m 446 0 l 88 0 l 88 1010 l 449 1010 q 711 950 601 1010 q 881 776 822 889 q 940 506 940 663 q 881 235 940 348 q 710 61 821 121 q 446 0 600 0 m 301 183 l 437 183 q 653 260 580 183 q 727 506 727 337 q 653 751 727 674 q 437 827 580 827 l 301 827 l 301 183 z "},"E":{"ha":851,"x_min":88,"x_max":770,"o":"m 88 0 l 88 1010 l 768 1010 l 768 834 l 301 834 l 301 593 l 733 593 l 733 417 l 301 417 l 301 176 l 770 176 l 770 0 l 88 0 z "},"F":{"ha":812,"x_min":88,"x_max":757,"o":"m 88 0 l 88 1010 l 757 1010 l 757 834 l 301 834 l 301 593 l 712 593 l 712 417 l 301 417 l 301 0 l 88 0 z "},"G":{"ha":1056,"x_min":70,"x_max":984,"o":"m 758 684 q 683 795 737 755 q 546 835 628 835 q 358 749 430 835 q 287 506 287 664 q 357 261 287 348 q 548 175 428 175 q 715 231 654 175 q 778 380 776 286 l 561 380 l 561 541 l 984 541 l 984 413 q 928 185 984 281 q 773 37 872 89 q 547 -14 675 -14 q 297 49 405 -14 q 130 228 190 112 q 70 504 70 344 q 133 784 70 668 q 302 962 195 901 q 543 1024 409 1024 q 750 981 657 1024 q 902 860 842 937 q 975 684 961 784 l 758 684 z "},"H":{"ha":1036,"x_min":88,"x_max":948,"o":"m 88 0 l 88 1010 l 301 1010 l 301 593 l 735 593 l 735 1010 l 948 1010 l 948 0 l 735 0 l 735 417 l 301 417 l 301 0 l 88 0 z "},"I":{"ha":390,"x_min":88,"x_max":301,"o":"m 301 1010 l 301 0 l 88 0 l 88 1010 l 301 1010 z "},"J":{"ha":792,"x_min":32,"x_max":703,"o":"m 492 1010 l 703 1010 l 703 306 q 660 136 703 208 q 539 25 616 65 q 359 -14 461 -14 q 193 19 267 -14 q 75 117 119 51 q 33 284 32 183 l 245 284 q 280 191 246 224 q 369 157 314 157 q 492 306 491 157 l 492 1010 z "},"K":{"ha":958,"x_min":88,"x_max":939,"o":"m 88 0 l 88 1010 l 301 1010 l 301 565 l 315 565 l 678 1010 l 934 1010 l 559 558 l 939 0 l 683 0 l 406 415 l 301 287 l 301 0 l 88 0 z "},"L":{"ha":788,"x_min":88,"x_max":734,"o":"m 88 0 l 88 1010 l 301 1010 l 301 176 l 734 176 l 734 0 l 88 0 z "},"M":{"ha":1283,"x_min":88,"x_max":1183,"o":"m 88 1010 l 351 1010 l 629 331 l 641 331 l 919 1010 l 1183 1010 l 1183 0 l 976 0 l 976 657 l 967 657 l 706 5 l 565 5 l 303 660 l 295 660 l 295 0 l 88 0 l 88 1010 z "},"N":{"ha":1021,"x_min":88,"x_max":933,"o":"m 933 1010 l 933 0 l 748 0 l 309 636 l 301 636 l 301 0 l 88 0 l 88 1010 l 275 1010 l 711 375 l 720 375 l 720 1010 l 933 1010 z "},"O":{"ha":1086,"x_min":70,"x_max":1016,"o":"m 1016 505 q 954 224 1016 340 q 784 47 891 108 q 543 -14 677 -14 q 301 47 408 -14 q 132 225 194 109 q 70 505 70 341 q 132 786 70 670 q 301 963 194 902 q 543 1024 408 1024 q 784 963 677 1024 q 954 786 891 902 q 1016 505 1016 670 m 799 505 q 729 750 799 666 q 543 835 659 835 q 357 750 427 835 q 287 505 287 666 q 357 260 287 345 q 543 175 427 175 q 729 260 659 175 q 799 505 799 345 z "},"P":{"ha":900,"x_min":88,"x_max":848,"o":"m 88 0 l 88 1010 l 486 1010 q 682 966 601 1010 q 806 846 763 923 q 848 668 848 768 q 805 491 848 567 q 679 371 762 414 q 481 327 597 327 l 301 327 l 301 0 l 88 0 m 301 499 l 446 499 q 583 546 538 499 q 628 668 628 593 q 583 789 628 743 q 445 836 538 836 l 301 836 l 301 499 z "},"Q":{"ha":1087,"x_min":70,"x_max":1016,"o":"m 1016 505 q 973 267 1016 370 q 856 99 930 165 l 1001 -83 l 801 -83 l 720 17 q 543 -14 638 -14 q 301 47 408 -14 q 132 225 194 109 q 70 505 70 341 q 132 786 70 670 q 301 963 194 902 q 543 1024 408 1024 q 784 963 677 1024 q 954 786 891 902 q 1016 505 1016 670 m 469 351 l 651 351 l 726 255 q 780 360 761 297 q 799 505 799 422 q 729 750 799 666 q 543 835 659 835 q 357 750 427 835 q 287 505 287 666 q 357 260 287 345 q 543 175 427 175 q 598 181 572 175 l 469 351 z "},"R":{"ha":911,"x_min":88,"x_max":884,"o":"m 88 0 l 88 1010 l 486 1010 q 753 920 658 1010 q 848 680 848 831 q 802 503 848 577 q 670 393 756 430 l 884 0 l 649 0 l 457 358 l 301 358 l 301 0 l 88 0 m 301 530 l 446 530 q 628 680 628 530 q 445 836 628 836 l 301 836 l 301 530 z "},"S":{"ha":909,"x_min":55,"x_max":854,"o":"m 636 720 q 585 812 630 779 q 463 845 540 845 q 343 813 385 845 q 301 732 301 781 q 347 650 300 678 q 461 607 395 622 l 551 585 q 708 528 639 566 q 815 432 776 491 q 854 289 854 373 q 750 68 854 150 q 462 -14 647 -14 q 169 70 278 -14 q 55 317 59 153 l 262 317 q 322 203 267 241 q 460 165 376 165 q 590 199 541 165 q 639 289 638 234 q 594 368 638 340 q 467 415 549 396 l 357 443 q 155 540 229 473 q 82 718 81 607 q 131 879 81 810 q 267 986 181 947 q 465 1024 354 1024 q 661 985 577 1024 q 792 878 745 947 q 840 720 839 810 l 636 720 z "},"T":{"ha":928,"x_min":49,"x_max":879,"o":"m 49 834 l 49 1010 l 879 1010 l 879 834 l 570 834 l 570 0 l 359 0 l 359 834 l 49 834 z "},"U":{"ha":1013,"x_min":88,"x_max":925,"o":"m 713 1010 l 925 1010 l 925 342 q 872 148 925 228 q 723 27 818 69 q 507 -14 629 -14 q 290 27 384 -14 q 141 148 195 69 q 88 342 88 228 l 88 1010 l 301 1010 l 301 350 q 360 222 301 269 q 507 176 418 176 q 655 222 596 176 q 713 350 713 269 l 713 1010 z "},"V":{"ha":1039,"x_min":33,"x_max":1005,"o":"m 270 1010 l 514 243 l 524 243 l 768 1010 l 1005 1010 l 657 0 l 382 0 l 33 1010 l 270 1010 z "},"W":{"ha":1439,"x_min":26,"x_max":1413,"o":"m 315 0 l 26 1010 l 259 1010 l 427 308 l 435 308 l 619 1010 l 819 1010 l 1003 307 l 1012 307 l 1179 1010 l 1413 1010 l 1124 0 l 915 0 l 723 660 l 715 660 l 523 0 l 315 0 z "},"X":{"ha":992,"x_min":40,"x_max":952,"o":"m 288 1010 l 492 666 l 500 666 l 704 1010 l 945 1010 l 637 505 l 952 0 l 707 0 l 500 345 l 492 345 l 285 0 l 40 0 l 356 505 l 46 1010 l 288 1010 z "},"Y":{"ha":1006,"x_min":29,"x_max":978,"o":"m 29 1010 l 268 1010 l 498 575 l 508 575 l 738 1010 l 978 1010 l 609 357 l 609 0 l 397 0 l 397 357 l 29 1010 z "},"Z":{"ha":926,"x_min":76,"x_max":850,"o":"m 77 0 l 77 127 l 581 834 l 76 834 l 76 1010 l 849 1010 l 849 883 l 345 176 l 850 176 l 850 0 l 77 0 z "},"[":{"ha":568,"x_min":147,"x_max":536,"o":"m 147 -219 l 147 1029 l 536 1029 l 536 872 l 350 872 l 350 -62 l 536 -62 l 536 -219 l 147 -219 z "},"\\":{"ha":592,"x_min":52,"x_max":538,"o":"m 52 1010 l 236 1010 l 538 -152 l 354 -152 l 52 1010 z "},"]":{"ha":568,"x_min":32,"x_max":421,"o":"m 421 1029 l 421 -219 l 32 -219 l 32 -62 l 218 -62 l 218 872 l 32 872 l 32 1029 l 421 1029 z "},"^":{"ha":677,"x_min":46,"x_max":631,"o":"m 46 552 l 254 988 l 423 988 l 631 552 l 472 552 l 343 847 l 334 847 l 206 552 l 46 552 z "},"_":{"ha":662,"x_min":-1,"x_max":662,"o":"m 662 0 l 662 -159 l -1 -159 l -1 0 l 662 0 z "},"`":{"ha":690,"x_min":196,"x_max":495,"o":"m 346 855 l 196 1080 l 390 1080 l 495 855 l 346 855 z "},"a":{"ha":806,"x_min":48,"x_max":727,"o":"m 300 -14 q 120 42 191 -14 q 48 212 48 99 q 88 345 48 296 q 193 416 128 393 q 333 445 258 438 q 474 466 432 455 q 516 513 516 476 l 516 516 q 487 588 516 563 q 404 614 458 614 q 314 589 347 614 q 269 527 280 565 l 75 543 q 183 707 97 646 q 405 767 269 767 q 563 741 489 767 q 681 658 636 714 q 727 511 727 601 l 727 0 l 527 0 l 527 105 l 521 105 q 439 19 494 52 q 300 -14 384 -14 m 360 131 q 473 171 429 131 q 518 271 518 211 l 518 351 q 480 336 506 343 q 424 325 454 330 q 372 317 395 321 q 283 286 317 309 q 249 218 249 263 q 280 153 249 175 q 360 131 312 131 z "},"b":{"ha":882,"x_min":88,"x_max":827,"o":"m 88 0 l 88 1010 l 298 1010 l 298 630 l 304 630 q 345 693 319 661 q 414 746 371 725 q 520 767 457 767 q 673 724 603 767 q 784 595 742 681 q 827 378 827 508 q 786 164 827 251 q 675 32 745 77 q 519 -12 606 -12 q 416 8 458 -12 q 346 59 373 28 q 304 121 319 90 l 295 121 l 295 0 l 88 0 m 293 379 q 335 216 293 278 q 453 155 377 155 q 571 217 530 155 q 612 379 612 280 q 571 539 612 477 q 453 600 531 600 q 335 540 376 600 q 293 379 293 480 z "},"c":{"ha":816,"x_min":53,"x_max":764,"o":"m 426 -15 q 226 35 310 -15 q 98 173 143 84 q 53 376 53 261 q 98 580 53 492 q 227 718 144 668 q 425 767 310 767 q 599 731 524 767 q 717 630 674 695 q 764 477 760 565 l 566 477 q 522 569 558 534 q 429 604 486 604 q 311 545 356 604 q 267 379 267 486 q 311 211 267 270 q 429 151 355 151 q 520 184 483 151 q 566 278 557 217 l 764 278 q 717 125 760 191 q 601 22 675 59 q 426 -15 527 -15 z "},"d":{"ha":882,"x_min":56,"x_max":794,"o":"m 363 -12 q 207 32 277 -12 q 97 164 138 77 q 56 378 56 251 q 98 595 56 508 q 210 724 140 681 q 363 767 280 767 q 469 746 426 767 q 538 693 511 725 q 578 630 564 661 l 584 630 l 584 1010 l 794 1010 l 794 0 l 587 0 l 587 121 l 578 121 q 537 59 564 90 q 467 8 509 28 q 363 -12 424 -12 m 430 155 q 547 216 506 155 q 589 379 589 278 q 547 540 589 480 q 430 600 506 600 q 311 539 352 600 q 270 379 270 477 q 311 217 270 280 q 430 155 352 155 z "},"e":{"ha":830,"x_min":53,"x_max":777,"o":"m 429 -15 q 228 33 313 -15 q 99 168 144 80 q 53 375 53 255 q 99 581 53 492 q 227 718 144 669 q 421 767 309 767 q 601 725 521 767 q 729 597 682 683 q 777 383 777 511 l 777 325 l 261 325 l 261 325 q 307 191 261 240 q 433 142 354 142 q 524 164 485 142 q 578 230 562 186 l 772 217 q 660 48 750 111 q 429 -15 570 -15 m 261 455 l 579 455 q 536 567 579 523 q 424 611 493 611 q 309 565 354 611 q 261 455 264 520 z "},"f":{"ha":543,"x_min":31,"x_max":535,"o":"m 498 758 l 498 600 l 348 600 l 348 0 l 138 0 l 138 600 l 31 600 l 31 758 l 138 758 l 138 812 q 208 997 138 936 q 386 1057 279 1057 q 475 1050 435 1057 q 535 1037 515 1043 l 498 879 q 467 886 485 883 q 430 890 449 890 q 366 868 384 890 q 348 808 348 847 l 348 758 l 498 758 z "},"g":{"ha":879,"x_min":56,"x_max":796,"o":"m 425 -295 q 185 -235 272 -295 q 79 -89 98 -175 l 273 -63 q 323 -119 286 -93 q 430 -144 361 -144 q 543 -111 499 -144 q 588 -4 588 -79 l 588 134 l 579 134 q 506 49 558 87 q 363 11 454 11 q 208 51 278 11 q 97 173 138 91 q 56 380 56 254 q 98 595 56 509 q 210 724 140 681 q 363 767 280 767 q 469 746 426 767 q 539 693 512 725 q 579 630 565 661 l 587 630 l 587 758 l 796 758 l 796 -7 q 748 -166 796 -102 q 617 -262 700 -230 q 425 -295 534 -295 m 430 169 q 547 225 506 169 q 589 381 589 281 q 547 541 589 481 q 430 600 506 600 q 311 539 352 600 q 270 381 270 478 q 311 226 270 283 q 430 169 352 169 z "},"h":{"ha":867,"x_min":84,"x_max":786,"o":"m 294 438 l 294 0 l 84 0 l 84 1010 l 288 1010 l 288 624 l 297 624 q 380 729 323 691 q 523 767 437 767 q 714 691 642 767 q 785 482 786 616 l 785 0 l 575 0 l 575 445 q 540 554 576 515 q 440 593 504 593 q 335 552 376 593 q 294 438 294 511 z "},"i":{"ha":378,"x_min":76,"x_max":303,"o":"m 84 0 l 84 758 l 294 758 l 294 0 l 84 0 m 189 855 q 109 887 143 855 q 76 962 76 918 q 109 1037 76 1006 q 189 1068 143 1068 q 270 1037 236 1068 q 303 962 303 1006 q 270 887 303 918 q 189 855 236 855 z "},"j":{"ha":378,"x_min":-36,"x_max":302,"o":"m 84 758 l 294 758 l 294 -35 q 217 -226 294 -167 q 3 -282 140 -285 q -14 -281 -5 -282 q -36 -281 -23 -281 l -36 -116 q -21 -117 -27 -117 q -8 -117 -14 -117 q 63 -96 43 -117 q 84 -32 84 -74 l 84 758 m 188 855 q 109 887 142 855 q 75 962 75 918 q 109 1037 75 1006 q 188 1068 142 1068 q 269 1037 235 1068 q 302 962 302 1006 q 269 887 302 918 q 188 855 235 855 z "},"k":{"ha":808,"x_min":84,"x_max":803,"o":"m 84 0 l 84 1010 l 294 1010 l 294 470 l 305 470 l 548 758 l 789 758 l 508 430 l 803 0 l 557 0 l 351 305 l 294 241 l 294 0 l 84 0 z "},"l":{"ha":378,"x_min":84,"x_max":294,"o":"m 294 1010 l 294 0 l 84 0 l 84 1010 l 294 1010 z "},"m":{"ha":1267,"x_min":84,"x_max":1185,"o":"m 84 0 l 84 758 l 284 758 l 284 624 l 293 624 q 372 729 317 691 q 504 767 428 767 q 637 729 582 767 q 710 624 691 690 l 718 624 q 802 728 741 689 q 946 767 863 767 q 1118 700 1052 767 q 1185 509 1185 633 l 1185 0 l 975 0 l 975 468 q 942 563 975 531 q 858 594 908 594 q 768 558 800 594 q 736 463 736 521 l 736 0 l 533 0 l 533 472 q 501 561 533 528 q 417 594 469 594 q 329 556 365 594 q 294 455 294 518 l 294 0 l 84 0 z "},"n":{"ha":864,"x_min":84,"x_max":782,"o":"m 294 438 l 294 0 l 84 0 l 84 758 l 284 758 l 284 624 l 293 624 q 378 729 319 690 q 521 767 436 767 q 711 691 639 767 q 782 482 782 615 l 782 0 l 572 0 l 572 445 q 537 554 573 514 q 437 593 501 593 q 334 552 374 593 q 294 438 294 511 z "},"o":{"ha":852,"x_min":53,"x_max":799,"o":"m 426 -15 q 228 34 311 -15 q 99 171 144 83 q 53 376 53 259 q 99 581 53 493 q 228 718 144 669 q 426 767 311 767 q 625 718 541 767 q 754 581 708 669 q 799 376 799 493 q 754 171 799 259 q 625 34 708 83 q 426 -15 541 -15 m 427 148 q 545 213 505 148 q 585 377 585 278 q 545 542 585 476 q 427 607 505 607 q 307 542 348 607 q 267 377 267 476 q 307 213 267 278 q 427 148 348 148 z "},"p":{"ha":878,"x_min":84,"x_max":823,"o":"m 84 -284 l 84 758 l 291 758 l 291 630 l 300 630 q 341 693 315 661 q 410 746 367 725 q 516 767 453 767 q 669 724 599 767 q 781 595 738 681 q 823 378 823 508 q 782 164 823 251 q 671 32 741 77 q 515 -12 602 -12 q 412 8 454 -12 q 342 59 369 28 q 300 121 315 90 l 294 121 l 294 -284 l 84 -284 m 290 379 q 331 216 290 278 q 449 155 373 155 q 567 217 526 155 q 608 379 608 280 q 567 539 608 477 q 449 600 527 600 q 331 540 372 600 q 290 379 290 480 z "},"q":{"ha":878,"x_min":56,"x_max":795,"o":"m 795 -284 l 795 758 l 587 758 l 587 630 l 578 630 q 538 693 564 661 q 469 746 511 725 q 363 767 426 767 q 210 724 279 767 q 98 595 140 681 q 56 378 56 508 q 97 164 56 251 q 207 32 138 77 q 363 -12 277 -12 q 467 8 424 -12 q 536 59 509 28 q 578 121 563 90 l 584 121 l 584 -284 l 795 -284 m 589 379 q 547 216 589 278 q 430 155 506 155 q 311 217 352 155 q 270 379 270 280 q 311 539 270 477 q 430 600 352 600 q 547 540 506 600 q 589 379 589 480 z "},"r":{"ha":568,"x_min":84,"x_max":544,"o":"m 84 0 l 84 758 l 288 758 l 288 625 l 295 625 q 365 732 316 696 q 477 768 414 768 q 544 761 512 768 l 544 575 q 503 583 529 580 q 455 586 476 586 q 340 542 385 586 q 294 429 294 499 l 294 0 l 84 0 z "},"s":{"ha":780,"x_min":50,"x_max":731,"o":"m 714 542 l 522 530 q 482 592 514 566 q 395 618 450 618 q 312 598 346 618 q 279 544 279 578 q 301 498 279 516 q 375 468 323 479 l 512 440 q 731 235 731 395 q 688 104 731 160 q 568 17 644 48 q 394 -15 492 -15 q 154 48 244 -15 q 50 219 65 111 l 257 230 q 303 160 267 184 q 395 137 338 137 q 484 158 450 137 q 518 214 517 180 q 421 289 516 270 l 290 315 q 71 532 70 359 q 158 704 70 641 q 392 767 246 767 q 618 707 535 767 q 714 542 700 646 z "},"t":{"ha":540,"x_min":31,"x_max":501,"o":"m 487 758 l 487 600 l 344 600 l 344 233 q 364 174 344 189 q 415 159 384 159 q 445 162 430 159 q 468 166 460 164 l 501 9 q 456 -2 485 4 q 387 -10 428 -9 q 203 39 272 -15 q 134 205 134 94 l 134 600 l 31 600 l 31 758 l 134 758 l 134 939 l 344 939 l 344 758 l 487 758 z "},"u":{"ha":864,"x_min":84,"x_max":780,"o":"m 570 323 l 570 758 l 780 758 l 780 0 l 578 0 l 578 138 l 570 138 q 485 31 545 71 q 340 -10 426 -10 q 155 66 226 -10 q 84 275 84 143 l 84 758 l 294 758 l 294 313 q 330 207 294 246 q 425 168 365 168 q 526 207 482 168 q 570 323 570 247 z "},"v":{"ha":814,"x_min":24,"x_max":790,"o":"m 790 758 l 525 0 l 289 0 l 24 758 l 246 758 l 403 216 l 411 216 l 568 758 l 790 758 z "},"w":{"ha":1181,"x_min":27,"x_max":1153,"o":"m 233 0 l 27 758 l 240 758 l 357 249 l 364 249 l 486 758 l 695 758 l 819 252 l 826 252 l 941 758 l 1153 758 l 947 0 l 725 0 l 595 476 l 585 476 l 455 0 l 233 0 z "},"x":{"ha":797,"x_min":35,"x_max":763,"o":"m 259 758 l 399 493 l 541 758 l 757 758 l 537 379 l 763 0 l 548 0 l 399 262 l 252 0 l 35 0 l 259 379 l 42 758 l 259 758 z "},"y":{"ha":814,"x_min":24,"x_max":790,"o":"m 214 -283 q 139 -277 174 -283 q 81 -261 104 -271 l 129 -104 q 223 -113 184 -121 q 283 -54 261 -105 l 295 -22 l 24 758 l 245 758 l 401 201 l 409 201 l 568 758 l 790 757 l 496 -82 q 398 -228 464 -173 q 214 -283 331 -283 z "},"z":{"ha":794,"x_min":80,"x_max":717,"o":"m 80 0 l 80 125 l 451 584 l 451 590 l 93 590 l 93 758 l 704 758 l 704 621 l 356 173 l 356 168 l 717 168 l 717 0 l 80 0 z "},"{":{"ha":568,"x_min":43,"x_max":536,"o":"m 536 -219 q 399 -210 462 -219 q 291 -173 336 -201 q 219 -90 245 -145 q 194 57 194 -35 l 194 166 q 161 276 194 242 q 43 310 128 310 l 43 500 q 161 534 128 500 q 194 644 194 568 l 194 753 q 219 899 194 844 q 291 982 245 954 q 399 1019 336 1010 q 536 1029 462 1029 l 536 872 q 422 838 448 872 q 396 731 396 803 l 396 587 q 382 516 396 549 q 329 456 367 482 q 220 415 291 430 l 220 395 q 329 354 291 380 q 382 294 367 328 q 396 222 396 260 l 396 78 q 422 -28 396 6 q 536 -62 448 -62 l 536 -219 z "},"|":{"ha":519,"x_min":160,"x_max":359,"o":"m 359 1336 l 359 -326 l 160 -326 l 160 1336 l 359 1336 z "},"}":{"ha":568,"x_min":32,"x_max":525,"o":"m 32 1029 q 169 1020 107 1029 q 278 982 232 1011 q 349 899 324 954 q 374 753 374 844 l 374 644 q 407 534 374 568 q 525 500 440 500 l 525 310 q 407 276 440 310 q 374 166 374 242 l 374 57 q 349 -89 374 -34 q 278 -172 324 -144 q 169 -210 232 -200 q 32 -219 107 -219 l 32 -62 q 146 -28 120 -62 q 173 78 173 6 l 173 222 q 187 294 173 260 q 239 354 201 328 q 348 395 277 380 l 348 415 q 239 456 277 430 q 187 516 201 482 q 173 588 173 550 l 173 732 q 146 838 173 803 q 32 872 120 872 l 32 1029 z "},"~":{"ha":944,"x_min":102,"x_max":843,"o":"m 106 273 q 160 488 102 413 q 319 562 219 562 q 408 543 366 562 q 504 476 450 524 q 552 438 533 452 q 598 425 572 425 q 655 453 633 425 q 677 540 678 480 l 837 540 q 783 325 843 400 q 624 250 723 250 q 533 270 576 250 q 438 336 490 291 q 390 375 408 363 q 346 387 371 387 q 289 361 312 387 q 267 273 266 334 l 106 273 z "}," ":{"ha":322,"x_min":0,"x_max":0,"o":""},"¡":{"ha":451,"x_min":107,"x_max":344,"o":"m 335 -255 l 316 452 l 135 452 l 115 -255 l 335 -255 m 225 767 q 142 733 177 767 q 107 649 107 698 q 142 566 107 601 q 225 532 177 532 q 308 566 273 532 q 344 649 343 601 q 308 733 343 698 q 225 767 273 767 z "},"¢":{"ha":816,"x_min":53,"x_max":764,"o":"m 379 -126 l 379 -12 q 203 49 276 -2 q 92 185 131 101 q 53 376 53 269 q 92 568 53 484 q 205 704 132 652 q 379 765 278 755 l 379 878 l 471 878 l 471 765 q 679 676 600 753 q 764 477 759 598 l 566 477 q 535 555 559 523 q 471 598 510 586 l 471 157 q 533 199 508 168 q 566 278 559 229 l 764 278 q 680 78 758 157 q 471 -13 602 0 l 471 -126 l 379 -126 m 379 159 l 379 596 q 297 522 327 578 q 267 379 267 467 q 297 234 267 290 q 379 159 327 178 z "},"£":{"ha":933,"x_min":95,"x_max":837,"o":"m 832 0 l 98 0 l 98 176 l 162 176 q 204 218 194 183 q 213 293 214 254 l 209 402 l 95 402 l 95 570 l 204 570 l 198 725 q 236 888 195 821 q 350 989 277 954 q 514 1024 423 1024 q 690 986 618 1024 q 800 883 763 949 q 834 732 837 818 l 634 738 q 601 827 636 801 q 518 853 566 853 q 440 821 472 853 q 408 725 408 790 l 414 570 l 636 570 l 636 402 l 421 402 l 424 305 q 385 176 427 224 l 832 176 l 832 0 z "},"¤":{"ha":1062,"x_min":93,"x_max":973,"o":"m 531 -14 q 395 9 460 -14 q 278 73 330 32 l 187 -17 l 93 80 l 186 172 q 134 284 152 223 q 115 412 115 345 q 136 546 115 483 q 192 661 156 609 l 93 761 l 187 857 l 288 758 q 401 816 339 795 q 531 836 463 836 q 662 815 599 836 q 776 756 724 794 l 877 857 l 973 761 l 870 658 q 926 545 906 607 q 946 412 946 482 q 927 285 946 346 q 876 175 909 225 l 973 80 l 877 -17 l 785 75 q 668 10 732 33 q 531 -14 603 -14 m 531 115 q 676 155 611 115 q 780 262 741 194 q 820 412 819 329 q 780 564 819 497 q 676 671 741 631 q 531 710 611 710 q 384 671 450 710 q 280 564 319 631 q 242 412 242 497 q 280 262 242 329 q 384 155 319 194 q 531 115 450 115 z "},"¥":{"ha":795,"x_min":20,"x_max":775,"o":"m 239 1010 l 398 623 l 556 1010 l 775 1010 l 550 521 l 699 521 l 699 399 l 500 399 l 500 326 l 699 326 l 699 204 l 500 204 l 500 0 l 289 0 l 289 204 l 74 204 l 74 326 l 289 326 l 289 399 l 74 399 l 74 521 l 244 521 l 20 1010 l 239 1010 z "},"¦":{"ha":479,"x_min":145,"x_max":333,"o":"m 145 282 l 333 282 l 333 -189 l 145 -189 l 145 282 m 333 1010 l 333 541 l 145 541 l 145 1010 l 333 1010 z "},"§":{"ha":824,"x_min":75,"x_max":750,"o":"m 692 760 l 508 760 q 482 823 508 798 q 404 848 456 848 q 336 831 365 848 q 307 778 307 814 q 339 717 307 743 q 400 680 371 692 l 589 593 q 637 567 609 584 q 692 524 665 550 q 734 458 718 497 q 745 365 750 419 q 720 296 742 324 q 671 251 698 267 q 621 228 644 234 l 619 226 q 703 42 703 151 q 665 -91 703 -36 q 560 -175 626 -146 q 411 -204 494 -204 q 251 -171 321 -204 q 143 -76 182 -137 q 104 67 104 -15 l 290 67 q 323 -4 290 21 q 414 -27 356 -30 q 484 -10 452 -26 q 516 42 516 6 q 485 104 516 81 q 425 141 453 127 l 236 226 q 188 252 216 235 q 133 295 160 268 q 91 362 107 323 q 79 456 75 401 q 103 525 83 497 q 151 570 124 553 q 204 594 179 587 l 204 595 q 144 677 167 632 q 121 778 121 722 q 157 905 121 849 q 257 992 193 960 q 404 1024 322 1024 q 556 990 491 1024 q 656 896 620 955 q 692 760 692 836 m 573 354 q 493 443 580 406 l 328 518 q 278 514 302 530 q 251 467 254 498 q 268 417 247 440 q 331 376 290 394 l 496 303 q 544 308 519 292 q 573 354 569 323 z "},"¨":{"ha":743,"x_min":117,"x_max":625,"o":"m 221 861 q 148 891 179 861 q 117 962 117 921 q 148 1033 117 1004 q 221 1062 179 1062 q 294 1033 264 1062 q 324 962 324 1004 q 294 891 324 921 q 221 861 264 861 m 523 861 q 450 891 480 861 q 419 962 419 921 q 450 1033 419 1004 q 523 1062 480 1062 q 596 1033 566 1062 q 625 962 625 1004 q 596 891 625 921 q 523 861 566 861 z "},"©":{"ha":1193,"x_min":101,"x_max":1092,"o":"m 101 495 q 140 695 101 603 q 247 856 179 787 q 405 964 315 925 q 596 1002 495 1002 q 789 964 699 1002 q 947 856 878 925 q 1054 695 1015 787 q 1092 495 1092 603 q 1054 294 1092 387 q 947 133 1015 202 q 789 25 878 64 q 596 -14 699 -14 q 405 25 495 -14 q 247 133 315 64 q 140 294 179 202 q 101 495 101 387 m 186 495 q 218 328 186 405 q 307 193 250 251 q 438 103 363 135 q 596 71 512 71 q 756 103 682 71 q 887 193 830 135 q 975 328 943 251 q 1007 495 1007 405 q 975 662 1007 585 q 887 796 943 738 q 756 885 830 853 q 596 917 682 917 q 438 885 512 917 q 307 796 363 853 q 218 662 250 738 q 186 495 186 585 m 712 404 l 822 404 q 759 245 823 298 q 587 191 694 191 q 410 264 476 191 q 343 454 344 337 l 343 535 q 410 724 344 652 q 587 797 476 797 q 759 744 694 797 q 822 584 823 690 l 713 584 q 681 678 713 649 q 587 706 649 706 q 487 658 520 706 q 453 535 453 610 l 453 454 q 487 330 453 378 q 587 282 520 282 q 681 310 649 282 q 712 404 713 338 z "},"ª":{"ha":677,"x_min":114,"x_max":564,"o":"m 429 525 q 372 486 407 502 q 287 470 337 470 q 159 512 204 470 q 114 623 114 554 q 173 740 114 699 q 353 780 232 780 l 423 780 l 423 815 q 403 879 423 856 q 342 902 384 902 q 271 884 296 902 q 246 835 246 867 l 125 843 q 184 957 125 912 q 342 1002 244 1002 q 489 955 433 1002 q 545 815 545 908 l 545 602 q 548 542 545 573 q 564 478 551 510 l 440 478 q 429 525 433 501 m 423 701 l 353 701 q 265 679 293 701 q 237 626 237 656 q 256 583 237 599 q 318 567 276 567 q 375 580 346 567 q 423 610 404 592 l 423 701 z "},"«":{"ha":869,"x_min":81,"x_max":795,"o":"m 471 109 l 280 109 l 81 404 l 81 418 l 280 714 l 471 714 l 283 411 l 471 109 m 795 109 l 605 109 l 405 404 l 405 418 l 605 714 l 795 714 l 608 411 l 795 109 z "},"¬":{"ha":805,"x_min":113,"x_max":695,"o":"m 695 546 l 695 254 l 556 254 l 556 430 l 113 430 l 113 546 l 695 546 z "},"­":{"ha":651,"x_min":95,"x_max":556,"o":"m 556 498 l 556 331 l 95 331 l 95 498 l 556 498 z "},"®":{"ha":1193,"x_min":101,"x_max":1092,"o":"m 596 -14 q 405 25 495 -14 q 247 133 315 64 q 140 294 179 202 q 101 495 101 387 q 140 695 101 603 q 247 856 179 787 q 405 964 315 925 q 596 1002 495 1002 q 789 964 699 1002 q 947 856 878 925 q 1054 695 1015 787 q 1092 495 1092 603 q 1054 294 1092 387 q 947 133 1015 202 q 789 25 878 64 q 596 -14 699 -14 m 596 71 q 756 103 682 71 q 887 193 830 135 q 975 328 943 251 q 1007 495 1007 405 q 975 662 1007 585 q 887 796 943 738 q 756 885 830 853 q 596 917 682 917 q 438 885 512 917 q 307 796 363 853 q 218 662 250 738 q 186 495 186 585 q 218 328 186 405 q 307 193 250 251 q 438 103 363 135 q 596 71 512 71 m 716 215 q 708 264 709 231 q 706 312 707 297 l 706 349 q 684 420 707 397 q 606 444 661 444 l 497 444 l 497 215 l 391 215 l 391 791 l 587 791 q 753 745 691 791 q 814 613 815 700 q 737 496 815 537 q 796 436 779 474 q 812 349 812 398 l 812 312 q 824 225 813 256 l 824 215 l 716 215 m 497 535 l 589 535 q 674 555 637 535 q 710 614 711 575 q 683 681 711 662 q 587 700 655 700 l 497 700 l 497 535 z "},"¯":{"ha":784,"x_min":152,"x_max":632,"o":"m 632 1010 l 632 896 l 152 896 l 152 1010 l 632 1010 z "},"°":{"ha":638,"x_min":77,"x_max":561,"o":"m 319 532 q 197 565 252 532 q 110 653 143 598 q 77 774 77 708 q 110 896 77 841 q 197 984 143 951 q 319 1017 252 1017 q 441 984 386 1017 q 529 896 496 951 q 561 774 561 841 q 529 653 561 708 q 441 565 496 598 q 319 532 386 532 m 319 672 q 391 702 362 672 q 421 774 421 732 q 391 847 421 817 q 319 877 362 877 q 247 847 277 877 q 217 774 217 817 q 247 702 217 732 q 319 672 277 672 z "},"±":{"ha":944,"x_min":125,"x_max":819,"o":"m 125 448 l 125 611 l 384 611 l 384 781 l 560 781 l 560 611 l 819 611 l 819 448 l 560 448 l 560 278 l 384 278 l 384 448 l 125 448 m 125 38 l 125 205 l 819 205 l 819 38 l 125 38 z "},"²":{"ha":589,"x_min":48,"x_max":543,"o":"m 61 505 l 61 614 l 301 806 q 367 865 342 839 q 392 925 392 891 q 363 980 392 961 q 292 999 333 999 q 221 978 248 999 q 194 916 194 956 l 48 916 q 118 1065 48 1011 q 294 1119 187 1119 q 470 1063 404 1119 q 536 927 536 1008 q 495 810 536 862 q 366 699 454 758 l 279 634 l 279 628 l 543 628 l 543 505 l 61 505 z "},"³":{"ha":615,"x_min":45,"x_max":569,"o":"m 305 497 q 120 548 193 497 q 45 681 47 599 l 200 681 q 232 638 202 654 q 305 622 262 622 q 380 640 349 622 q 411 689 411 657 q 380 738 411 719 q 293 758 349 758 l 224 758 l 224 870 l 293 870 q 367 888 339 870 q 396 936 396 907 q 371 982 396 964 q 307 999 347 999 q 235 982 265 999 q 204 938 206 966 l 59 938 q 93 1032 60 992 q 182 1096 126 1073 q 308 1119 238 1119 q 479 1068 414 1119 q 543 945 543 1017 q 506 860 543 892 q 418 821 469 828 l 418 816 q 529 772 490 809 q 569 679 569 736 q 535 584 569 625 q 441 520 501 544 q 305 497 381 497 z "},"´":{"ha":690,"x_min":263,"x_max":562,"o":"m 263 855 l 368 1080 l 562 1080 l 412 855 l 263 855 z "},"µ":{"ha":926,"x_min":84,"x_max":841,"o":"m 84 -275 l 84 758 l 294 758 l 294 323 q 341 211 294 254 q 463 168 388 168 q 585 211 539 168 q 632 323 632 254 l 632 758 l 841 758 l 841 0 l 640 0 l 640 108 l 634 108 q 566 31 612 58 q 463 4 520 4 q 360 31 406 4 q 291 108 315 58 l 286 108 l 286 -275 l 84 -275 z "},"¶":{"ha":847,"x_min":68,"x_max":759,"o":"m 591 0 l 591 848 l 469 848 l 469 375 l 411 375 q 223 416 300 375 q 108 529 147 457 q 68 692 68 601 q 108 855 68 783 q 223 968 147 927 q 411 1010 300 1010 l 759 1010 l 759 0 l 591 0 z "},"·":{"ha":413,"x_min":88,"x_max":325,"o":"m 207 324 q 123 359 158 324 q 88 442 88 393 q 123 525 88 491 q 207 560 158 560 q 289 525 254 560 q 325 442 325 491 q 289 359 325 393 q 207 324 254 324 z "},"¸":{"ha":520,"x_min":155,"x_max":418,"o":"m 213 4 l 309 4 l 301 -39 q 384 -77 352 -47 q 417 -159 417 -107 q 349 -276 418 -232 q 157 -320 281 -320 l 155 -226 q 253 -211 217 -226 q 289 -164 288 -196 q 266 -118 290 -134 q 190 -96 242 -103 l 213 4 z "},"¹":{"ha":441,"x_min":46,"x_max":338,"o":"m 338 1111 l 338 505 l 190 505 l 190 928 l 184 928 q 139 901 173 913 q 46 890 104 889 l 46 1010 q 124 1026 91 1010 q 175 1066 156 1042 q 194 1111 193 1090 l 338 1111 z "},"º":{"ha":673,"x_min":95,"x_max":579,"o":"m 95 708 l 95 761 q 160 934 95 867 q 336 1002 226 1002 q 514 934 449 1002 q 579 761 579 867 l 579 708 q 514 536 579 603 q 338 469 450 469 q 160 536 225 469 q 95 708 95 603 m 217 761 l 217 708 q 247 608 217 648 q 338 568 278 568 q 427 608 398 568 q 457 708 457 648 l 457 761 q 427 861 457 820 q 336 902 398 902 q 247 861 277 902 q 217 761 217 820 z "},"»":{"ha":874,"x_min":70,"x_max":789,"o":"m 70 109 l 257 411 l 70 714 l 260 714 l 460 418 l 460 404 l 260 109 l 70 109 m 400 109 l 587 411 l 400 714 l 590 714 l 789 418 l 789 404 l 590 109 l 400 109 z "},"¼":{"ha":1238,"x_min":41,"x_max":1205,"o":"m 167 0 l 862 1010 l 990 1010 l 296 0 l 167 0 m 703 86 l 703 195 l 953 537 l 1126 537 l 1126 197 l 1205 197 l 1205 86 l 1126 86 l 1126 0 l 996 0 l 996 86 l 703 86 m 998 197 l 998 390 l 992 390 l 842 202 l 842 197 l 998 197 z "},"½":{"ha":1272,"x_min":41,"x_max":1232,"o":"m 167 0 l 862 1010 l 990 1010 l 296 0 l 167 0 m 799 0 l 799 99 l 1017 268 q 1074 318 1052 295 q 1097 370 1097 341 q 1071 418 1097 402 q 1006 435 1045 435 q 943 417 967 435 q 918 363 918 399 l 788 363 q 850 496 788 447 q 1010 545 912 545 q 1167 494 1108 545 q 1226 372 1226 444 q 1189 268 1226 314 q 1073 171 1152 221 l 996 117 l 996 112 l 1232 112 l 1232 0 l 799 0 z "},"¾":{"ha":1357,"x_min":40,"x_max":1324,"o":"m 286 0 l 981 1010 l 1109 1010 l 415 0 l 286 0 m 822 86 l 822 195 l 1072 537 l 1245 537 l 1245 197 l 1324 197 l 1324 86 l 1245 86 l 1245 0 l 1115 0 l 1115 86 l 822 86 m 1117 197 l 1117 390 l 1111 390 l 961 202 l 961 197 l 1117 197 z "},"¿":{"ha":781,"x_min":64,"x_max":728,"o":"m 517 444 l 517 428 q 501 290 516 341 q 457 207 486 239 q 387 150 429 176 q 311 87 342 121 q 280 4 280 52 q 315 -78 280 -47 q 400 -109 350 -109 q 487 -77 448 -109 q 527 14 525 -46 l 728 14 q 681 -149 726 -84 q 562 -245 636 -214 q 399 -277 488 -277 q 225 -244 301 -277 q 107 -151 150 -212 q 64 -3 64 -90 q 106 141 64 83 q 217 240 147 199 q 302 315 275 275 q 330 428 329 356 l 330 444 l 517 444 m 420 760 q 504 726 469 760 q 538 642 539 691 q 504 559 539 593 q 420 524 469 524 q 337 559 372 524 q 301 642 302 593 q 337 726 302 691 q 420 760 372 760 z "},"À":{"ha":1039,"x_min":33,"x_max":1005,"o":"m 262 0 l 33 0 l 382 1010 l 657 1010 l 1005 0 l 776 0 l 701 230 l 337 230 l 262 0 m 391 397 l 648 397 l 523 779 l 515 779 l 391 397 m 446 1108 l 296 1332 l 490 1332 l 595 1108 l 446 1108 z "},"Á":{"ha":1039,"x_min":33,"x_max":1005,"o":"m 262 0 l 33 0 l 382 1010 l 657 1010 l 1005 0 l 776 0 l 701 230 l 337 230 l 262 0 m 391 397 l 648 397 l 523 779 l 515 779 l 391 397 m 444 1108 l 548 1332 l 743 1332 l 592 1108 l 444 1108 z "},"Â":{"ha":1039,"x_min":33,"x_max":1005,"o":"m 262 0 l 33 0 l 382 1010 l 657 1010 l 1005 0 l 776 0 l 701 230 l 337 230 l 262 0 m 391 397 l 648 397 l 523 779 l 515 779 l 391 397 z "},"Ã":{"ha":1039,"x_min":33,"x_max":1005,"o":"m 262 0 l 33 0 l 382 1010 l 657 1010 l 1005 0 l 776 0 l 701 230 l 337 230 l 262 0 m 391 397 l 648 397 l 523 779 l 515 779 l 391 397 z "},"Ä":{"ha":1039,"x_min":33,"x_max":1005,"o":"m 262 0 l 33 0 l 382 1010 l 657 1010 l 1005 0 l 776 0 l 701 230 l 337 230 l 262 0 m 391 397 l 648 397 l 523 779 l 515 779 l 391 397 z "},"Å":{"ha":1039,"x_min":33,"x_max":1005,"o":"m 262 0 l 33 0 l 382 1010 l 657 1010 l 1005 0 l 776 0 l 701 230 l 337 230 l 262 0 m 391 397 l 648 397 l 523 779 l 515 779 l 391 397 m 519 1064 q 439 1085 475 1064 q 381 1140 402 1105 q 359 1217 359 1175 q 381 1294 359 1259 q 439 1349 402 1328 q 519 1370 475 1370 q 600 1349 564 1370 q 658 1294 636 1328 q 680 1217 680 1259 q 658 1140 680 1175 q 600 1085 636 1105 q 519 1064 564 1064 m 519 1150 q 569 1170 548 1150 q 589 1217 589 1189 q 569 1264 589 1244 q 519 1284 548 1284 q 470 1264 491 1284 q 449 1217 449 1244 q 470 1169 449 1189 q 519 1150 490 1150 z "},"Æ":{"ha":1431,"x_min":33,"x_max":1350,"o":"m 33 0 l 466 1010 l 1348 1010 l 1348 834 l 881 834 l 881 593 l 1313 593 l 1313 417 l 881 417 l 881 176 l 1350 176 l 1350 0 l 668 0 l 668 230 l 363 230 l 268 0 l 33 0 m 432 397 l 668 397 l 668 800 l 597 800 l 432 397 z "},"Ç":{"ha":1045,"x_min":70,"x_max":979,"o":"m 979 656 l 763 656 q 692 787 751 740 q 545 835 633 835 q 357 749 428 835 q 287 505 287 663 q 358 259 287 343 q 544 175 429 175 q 689 220 629 175 q 763 345 748 264 l 979 344 q 913 170 968 252 q 764 37 858 88 q 541 -14 670 -14 q 299 47 405 -14 q 131 224 193 109 q 70 505 70 340 q 132 786 70 670 q 301 963 194 902 q 541 1024 407 1024 q 751 981 657 1024 q 905 855 845 938 q 979 656 965 773 m 488 3 l 584 3 l 577 -40 q 660 -78 627 -48 q 692 -160 692 -108 q 624 -277 693 -233 q 432 -321 556 -321 l 430 -227 q 528 -212 492 -227 q 564 -165 563 -197 q 541 -119 565 -135 q 466 -97 517 -104 l 488 3 z "},"È":{"ha":851,"x_min":88,"x_max":770,"o":"m 88 0 l 88 1010 l 768 1010 l 768 834 l 301 834 l 301 593 l 733 593 l 733 417 l 301 417 l 301 176 l 770 176 l 770 0 l 88 0 m 357 1108 l 207 1332 l 400 1332 l 506 1108 l 357 1108 z "},"É":{"ha":851,"x_min":88,"x_max":770,"o":"m 88 0 l 88 1010 l 768 1010 l 768 834 l 301 834 l 301 593 l 733 593 l 733 417 l 301 417 l 301 176 l 770 176 l 770 0 l 88 0 m 354 1108 l 459 1332 l 653 1332 l 503 1108 l 354 1108 z "},"Ê":{"ha":851,"x_min":88,"x_max":770,"o":"m 88 0 l 88 1010 l 768 1010 l 768 834 l 301 834 l 301 593 l 733 593 l 733 417 l 301 417 l 301 176 l 770 176 l 770 0 l 88 0 z "},"Ë":{"ha":851,"x_min":88,"x_max":770,"o":"m 88 0 l 88 1010 l 768 1010 l 768 834 l 301 834 l 301 593 l 733 593 l 733 417 l 301 417 l 301 176 l 770 176 l 770 0 l 88 0 z "},"Ì":{"ha":390,"x_min":-28,"x_max":301,"o":"m 301 1010 l 301 0 l 88 0 l 88 1010 l 301 1010 m 122 1108 l -28 1332 l 166 1332 l 271 1108 l 122 1108 z "},"Í":{"ha":390,"x_min":88,"x_max":419,"o":"m 301 1010 l 301 0 l 88 0 l 88 1010 l 301 1010 m 120 1108 l 224 1332 l 419 1332 l 268 1108 l 120 1108 z "},"Î":{"ha":390,"x_min":-83,"x_max":473,"o":"m 301 1010 l 301 0 l 88 0 l 88 1010 l 301 1010 z "},"Ï":{"ha":390,"x_min":-59,"x_max":449,"o":"m 301 1010 l 301 0 l 88 0 l 88 1010 l 301 1010 z "},"Ð":{"ha":1010,"x_min":-53,"x_max":940,"o":"z "},"Ñ":{"ha":1021,"x_min":88,"x_max":933,"o":"m 933 1010 l 933 0 l 748 0 l 309 636 l 301 636 l 301 0 l 88 0 l 88 1010 l 275 1010 l 711 375 l 720 375 l 720 1010 l 933 1010 m 370 1103 l 253 1105 q 300 1249 253 1199 q 413 1300 346 1300 q 478 1286 452 1300 q 527 1257 505 1272 q 561 1235 545 1244 q 595 1226 577 1226 q 639 1248 624 1227 q 654 1303 654 1269 l 769 1299 q 722 1155 768 1205 q 609 1104 676 1105 q 541 1118 567 1104 q 494 1148 515 1132 q 462 1169 478 1160 q 427 1178 446 1178 q 385 1158 401 1178 q 370 1103 370 1138 z "},"Ò":{"ha":1086,"x_min":70,"x_max":1016,"o":"m 1016 505 q 954 224 1016 340 q 784 47 891 108 q 543 -14 677 -14 q 301 47 408 -14 q 132 225 194 109 q 70 505 70 341 q 132 786 70 670 q 301 963 194 902 q 543 1024 408 1024 q 784 963 677 1024 q 954 786 891 902 q 1016 505 1016 670 m 799 505 q 729 750 799 666 q 543 835 659 835 q 357 750 427 835 q 287 505 287 666 q 357 260 287 345 q 543 175 427 175 q 729 260 659 175 q 799 505 799 345 m 470 1108 l 320 1332 l 513 1332 l 618 1108 l 470 1108 z "},"Ó":{"ha":1086,"x_min":70,"x_max":1016,"o":"m 1016 505 q 954 224 1016 340 q 784 47 891 108 q 543 -14 677 -14 q 301 47 408 -14 q 132 225 194 109 q 70 505 70 341 q 132 786 70 670 q 301 963 194 902 q 543 1024 408 1024 q 784 963 677 1024 q 954 786 891 902 q 1016 505 1016 670 m 799 505 q 729 750 799 666 q 543 835 659 835 q 357 750 427 835 q 287 505 287 666 q 357 260 287 345 q 543 175 427 175 q 729 260 659 175 q 799 505 799 345 m 468 1108 l 572 1332 l 766 1332 l 616 1108 l 468 1108 z "},"Ô":{"ha":1086,"x_min":70,"x_max":1016,"o":"m 1016 505 q 954 224 1016 340 q 784 47 891 108 q 543 -14 677 -14 q 301 47 408 -14 q 132 225 194 109 q 70 505 70 341 q 132 786 70 670 q 301 963 194 902 q 543 1024 408 1024 q 784 963 677 1024 q 954 786 891 902 q 1016 505 1016 670 m 799 505 q 729 750 799 666 q 543 835 659 835 q 357 750 427 835 q 287 505 287 666 q 357 260 287 345 q 543 175 427 175 q 729 260 659 175 q 799 505 799 345 z "},"Õ":{"ha":1086,"x_min":70,"x_max":1016,"o":"m 1016 505 q 954 224 1016 340 q 784 47 891 108 q 543 -14 677 -14 q 301 47 408 -14 q 132 225 194 109 q 70 505 70 341 q 132 786 70 670 q 301 963 194 902 q 543 1024 408 1024 q 784 963 677 1024 q 954 786 891 902 q 1016 505 1016 670 m 799 505 q 729 750 799 666 q 543 835 659 835 q 357 750 427 835 q 287 505 287 666 q 357 260 287 345 q 543 175 427 175 q 729 260 659 175 q 799 505 799 345 z "},"Ö":{"ha":1086,"x_min":70,"x_max":1016,"o":"m 1016 505 q 954 224 1016 340 q 784 47 891 108 q 543 -14 677 -14 q 301 47 408 -14 q 132 225 194 109 q 70 505 70 341 q 132 786 70 670 q 301 963 194 902 q 543 1024 408 1024 q 784 963 677 1024 q 954 786 891 902 q 1016 505 1016 670 m 799 505 q 729 750 799 666 q 543 835 659 835 q 357 750 427 835 q 287 505 287 666 q 357 260 287 345 q 543 175 427 175 q 729 260 659 175 q 799 505 799 345 z "},"×":{"ha":944,"x_min":112,"x_max":832,"o":"m 702 44 l 472 274 l 242 44 l 112 174 l 342 403 l 112 633 l 242 763 l 472 534 l 702 763 l 832 633 l 602 403 l 832 174 l 702 44 z "},"Ø":{"ha":1086,"x_min":70,"x_max":1016,"o":"m 228 -48 l 132 17 l 206 122 q 106 285 142 189 q 70 505 70 382 q 132 786 70 670 q 301 963 194 902 q 543 1024 408 1024 q 789 960 681 1024 l 856 1056 l 952 991 l 880 888 q 980 725 944 822 q 1016 505 1016 629 q 954 224 1016 340 q 784 47 891 108 q 543 -14 677 -14 q 297 50 405 -14 l 228 -48 m 799 505 q 756 710 799 628 l 409 212 q 543 175 466 175 q 729 260 659 175 q 799 505 799 345 m 330 301 l 676 799 q 543 835 619 835 q 357 750 427 835 q 287 505 287 666 q 330 301 287 382 z "},"Ù":{"ha":1013,"x_min":88,"x_max":925,"o":"m 713 1010 l 925 1010 l 925 342 q 872 148 925 228 q 723 27 818 69 q 507 -14 629 -14 q 290 27 384 -14 q 141 148 195 69 q 88 342 88 228 l 88 1010 l 301 1010 l 301 350 q 360 222 301 269 q 507 176 418 176 q 655 222 596 176 q 713 350 713 269 l 713 1010 m 434 1108 l 284 1332 l 477 1332 l 582 1108 l 434 1108 z "},"Ú":{"ha":1013,"x_min":88,"x_max":925,"o":"m 713 1010 l 925 1010 l 925 342 q 872 148 925 228 q 723 27 818 69 q 507 -14 629 -14 q 290 27 384 -14 q 141 148 195 69 q 88 342 88 228 l 88 1010 l 301 1010 l 301 350 q 360 222 301 269 q 507 176 418 176 q 655 222 596 176 q 713 350 713 269 l 713 1010 m 431 1108 l 536 1332 l 730 1332 l 580 1108 l 431 1108 z "},"Û":{"ha":1013,"x_min":88,"x_max":925,"o":"m 713 1010 l 925 1010 l 925 342 q 872 148 925 228 q 723 27 818 69 q 507 -14 629 -14 q 290 27 384 -14 q 141 148 195 69 q 88 342 88 228 l 88 1010 l 301 1010 l 301 350 q 360 222 301 269 q 507 176 418 176 q 655 222 596 176 q 713 350 713 269 l 713 1010 z "},"Ü":{"ha":1013,"x_min":88,"x_max":925,"o":"m 713 1010 l 925 1010 l 925 342 q 872 148 925 228 q 723 27 818 69 q 507 -14 629 -14 q 290 27 384 -14 q 141 148 195 69 q 88 342 88 228 l 88 1010 l 301 1010 l 301 350 q 360 222 301 269 q 507 176 418 176 q 655 222 596 176 q 713 350 713 269 l 713 1010 z "},"Ý":{"ha":1006,"x_min":29,"x_max":978,"o":"m 29 1010 l 268 1010 l 498 575 l 508 575 l 738 1010 l 978 1010 l 609 357 l 609 0 l 397 0 l 397 357 l 29 1010 m 428 1108 l 532 1332 l 727 1332 l 576 1108 l 428 1108 z "},"Þ":{"ha":932,"x_min":86,"x_max":825,"o":"m 86 1010 l 299 1010 l 299 825 l 447 825 q 653 784 569 825 q 781 674 737 744 q 825 516 825 605 q 781 358 825 427 q 653 248 737 288 q 447 208 569 208 l 299 208 l 299 0 l 86 0 l 86 1010 m 299 372 l 447 372 q 580 414 539 372 q 620 514 620 456 q 580 616 620 573 q 447 659 539 659 l 299 659 l 299 372 z "},"ß":{"ha":922,"x_min":88,"x_max":865,"o":"m 88 0 l 88 743 q 131 893 88 831 q 252 990 174 956 q 436 1024 330 1024 q 616 993 534 1024 q 747 901 697 962 q 796 751 796 840 q 757 617 796 672 q 650 542 718 561 l 650 531 q 807 454 749 524 q 865 278 865 384 q 823 127 864 190 q 709 33 782 65 q 540 0 636 0 l 407 0 l 407 171 l 506 171 q 613 206 573 171 q 652 298 653 241 q 608 393 652 358 q 489 429 564 429 l 411 429 l 411 593 l 463 593 q 549 631 517 593 q 581 720 581 668 q 545 812 582 775 q 442 848 508 848 q 338 811 378 848 q 298 713 298 774 l 298 0 l 88 0 z "},"à":{"ha":806,"x_min":48,"x_max":727,"o":"m 300 -14 q 120 42 191 -14 q 48 212 48 99 q 88 345 48 296 q 193 416 128 393 q 333 445 258 438 q 474 466 432 455 q 516 513 516 476 l 516 516 q 487 588 516 563 q 404 614 458 614 q 314 589 347 614 q 269 527 280 565 l 75 543 q 183 707 97 646 q 405 767 269 767 q 563 741 489 767 q 681 658 636 714 q 727 511 727 601 l 727 0 l 527 0 l 527 105 l 521 105 q 439 19 494 52 q 300 -14 384 -14 m 360 131 q 473 171 429 131 q 518 271 518 211 l 518 351 q 480 336 506 343 q 424 325 454 330 q 372 317 395 321 q 283 286 317 309 q 249 218 249 263 q 280 153 249 175 q 360 131 312 131 m 340 855 l 189 1080 l 383 1080 l 488 855 l 340 855 z "},"á":{"ha":806,"x_min":48,"x_max":727,"o":"m 300 -14 q 120 42 191 -14 q 48 212 48 99 q 88 345 48 296 q 193 416 128 393 q 333 445 258 438 q 474 466 432 455 q 516 513 516 476 l 516 516 q 487 588 516 563 q 404 614 458 614 q 314 589 347 614 q 269 527 280 565 l 75 543 q 183 707 97 646 q 405 767 269 767 q 563 741 489 767 q 681 658 636 714 q 727 511 727 601 l 727 0 l 527 0 l 527 105 l 521 105 q 439 19 494 52 q 300 -14 384 -14 m 360 131 q 473 171 429 131 q 518 271 518 211 l 518 351 q 480 336 506 343 q 424 325 454 330 q 372 317 395 321 q 283 286 317 309 q 249 218 249 263 q 280 153 249 175 q 360 131 312 131 m 337 855 l 442 1080 l 636 1080 l 486 855 l 337 855 z "},"â":{"ha":806,"x_min":48,"x_max":727,"o":"m 300 -14 q 120 42 191 -14 q 48 212 48 99 q 88 345 48 296 q 193 416 128 393 q 333 445 258 438 q 474 466 432 455 q 516 513 516 476 l 516 516 q 487 588 516 563 q 404 614 458 614 q 314 589 347 614 q 269 527 280 565 l 75 543 q 183 707 97 646 q 405 767 269 767 q 563 741 489 767 q 681 658 636 714 q 727 511 727 601 l 727 0 l 527 0 l 527 105 l 521 105 q 439 19 494 52 q 300 -14 384 -14 m 360 131 q 473 171 429 131 q 518 271 518 211 l 518 351 q 480 336 506 343 q 424 325 454 330 q 372 317 395 321 q 283 286 317 309 q 249 218 249 263 q 280 153 249 175 q 360 131 312 131 z "},"ã":{"ha":806,"x_min":48,"x_max":727,"o":"m 300 -14 q 120 42 191 -14 q 48 212 48 99 q 88 345 48 296 q 193 416 128 393 q 333 445 258 438 q 474 466 432 455 q 516 513 516 476 l 516 516 q 487 588 516 563 q 404 614 458 614 q 314 589 347 614 q 269 527 280 565 l 75 543 q 183 707 97 646 q 405 767 269 767 q 563 741 489 767 q 681 658 636 714 q 727 511 727 601 l 727 0 l 527 0 l 527 105 l 521 105 q 439 19 494 52 q 300 -14 384 -14 m 360 131 q 473 171 429 131 q 518 271 518 211 l 518 351 q 480 336 506 343 q 424 325 454 330 q 372 317 395 321 q 283 286 317 309 q 249 218 249 263 q 280 153 249 175 q 360 131 312 131 m 272 851 l 155 852 q 201 997 155 946 q 315 1048 248 1047 q 380 1034 354 1048 q 429 1004 407 1019 q 462 983 446 992 q 497 974 478 974 q 541 995 526 974 q 556 1050 555 1016 l 671 1047 q 624 903 670 953 q 510 852 578 852 q 443 866 469 852 q 396 895 417 880 q 364 917 380 908 q 328 926 348 926 q 287 906 303 926 q 272 851 272 885 z "},"ä":{"ha":806,"x_min":48,"x_max":727,"o":"m 300 -14 q 120 42 191 -14 q 48 212 48 99 q 88 345 48 296 q 193 416 128 393 q 333 445 258 438 q 474 466 432 455 q 516 513 516 476 l 516 516 q 487 588 516 563 q 404 614 458 614 q 314 589 347 614 q 269 527 280 565 l 75 543 q 183 707 97 646 q 405 767 269 767 q 563 741 489 767 q 681 658 636 714 q 727 511 727 601 l 727 0 l 527 0 l 527 105 l 521 105 q 439 19 494 52 q 300 -14 384 -14 m 360 131 q 473 171 429 131 q 518 271 518 211 l 518 351 q 480 336 506 343 q 424 325 454 330 q 372 317 395 321 q 283 286 317 309 q 249 218 249 263 q 280 153 249 175 q 360 131 312 131 m 262 861 q 189 891 220 861 q 159 962 159 921 q 189 1033 159 1004 q 262 1062 220 1062 q 335 1033 305 1062 q 365 962 365 1004 q 335 891 365 921 q 262 861 305 861 m 564 861 q 491 891 522 861 q 461 962 461 921 q 491 1033 461 1004 q 564 1062 522 1062 q 637 1033 607 1062 q 667 962 667 1004 q 637 891 667 921 q 564 861 607 861 z "},"å":{"ha":806,"x_min":48,"x_max":727,"o":"m 300 -14 q 120 42 191 -14 q 48 212 48 99 q 88 345 48 296 q 193 416 128 393 q 333 445 258 438 q 474 466 432 455 q 516 513 516 476 l 516 516 q 487 588 516 563 q 404 614 458 614 q 314 589 347 614 q 269 527 280 565 l 75 543 q 183 707 97 646 q 405 767 269 767 q 563 741 489 767 q 681 658 636 714 q 727 511 727 601 l 727 0 l 527 0 l 527 105 l 521 105 q 439 19 494 52 q 300 -14 384 -14 m 360 131 q 473 171 429 131 q 518 271 518 211 l 518 351 q 480 336 506 343 q 424 325 454 330 q 372 317 395 321 q 283 286 317 309 q 249 218 249 263 q 280 153 249 175 q 360 131 312 131 m 413 839 q 327 861 366 839 q 266 919 289 882 q 244 1001 244 956 q 266 1083 244 1046 q 327 1143 289 1120 q 413 1165 366 1165 q 498 1143 460 1165 q 558 1083 536 1120 q 581 1001 581 1046 q 558 919 581 956 q 498 861 536 882 q 413 839 460 839 m 413 927 q 468 949 445 927 q 490 1001 490 972 q 468 1054 490 1031 q 413 1076 445 1076 q 358 1053 380 1076 q 336 1001 336 1031 q 358 949 336 972 q 413 927 380 927 z "},"æ":{"ha":1269,"x_min":48,"x_max":1216,"o":"m 881 -15 q 715 21 788 -15 q 605 124 642 57 l 599 124 q 489 23 569 60 q 312 -14 408 -14 q 121 43 194 -14 q 48 212 48 100 q 88 344 48 296 q 193 415 128 393 q 333 445 258 438 q 474 466 432 455 q 516 513 516 477 l 516 516 q 487 588 516 563 q 404 614 458 614 q 314 589 348 614 q 269 527 280 565 l 75 543 q 183 707 97 646 q 408 767 269 767 q 530 746 471 767 q 624 669 590 725 q 859 767 712 767 q 1040 725 960 767 q 1168 597 1121 683 q 1216 383 1216 511 l 1216 325 l 699 325 l 699 325 q 746 191 699 240 q 871 142 793 142 q 962 164 924 142 q 1017 230 1001 186 l 1211 217 q 1099 48 1189 111 q 881 -15 1010 -15 m 360 131 q 473 171 429 131 q 518 271 518 211 l 518 351 q 480 336 506 343 q 424 325 454 330 q 372 317 395 321 q 283 286 317 309 q 249 218 249 263 q 280 153 249 175 q 360 131 312 131 m 699 455 l 1018 455 q 974 567 1017 523 q 863 611 931 611 q 748 565 793 611 q 699 455 703 519 z "},"ç":{"ha":816,"x_min":53,"x_max":764,"o":"m 426 -15 q 226 35 310 -15 q 98 173 143 84 q 53 376 53 261 q 98 580 53 492 q 227 718 144 668 q 425 767 310 767 q 599 731 524 767 q 717 630 674 695 q 764 477 760 565 l 566 477 q 522 569 558 534 q 429 604 486 604 q 311 545 356 604 q 267 379 267 486 q 311 211 267 270 q 429 151 355 151 q 520 184 483 151 q 566 278 557 217 l 764 278 q 717 125 760 191 q 601 22 675 59 q 426 -15 527 -15 m 377 4 l 473 4 l 466 -39 q 549 -77 516 -47 q 581 -159 581 -107 q 513 -276 582 -232 q 321 -320 445 -320 l 319 -226 q 417 -211 381 -226 q 453 -164 452 -196 q 430 -118 454 -134 q 355 -96 406 -103 l 377 4 z "},"è":{"ha":830,"x_min":53,"x_max":777,"o":"m 429 -15 q 228 33 313 -15 q 99 168 144 80 q 53 375 53 255 q 99 581 53 492 q 227 718 144 669 q 421 767 309 767 q 601 725 521 767 q 729 597 682 683 q 777 383 777 511 l 777 325 l 261 325 l 261 325 q 307 191 261 240 q 433 142 354 142 q 524 164 485 142 q 578 230 562 186 l 772 217 q 660 48 750 111 q 429 -15 570 -15 m 261 455 l 579 455 q 536 567 579 523 q 424 611 493 611 q 309 565 354 611 q 261 455 264 520 m 343 855 l 193 1080 l 387 1080 l 492 855 l 343 855 z "},"é":{"ha":830,"x_min":53,"x_max":777,"o":"m 429 -15 q 228 33 313 -15 q 99 168 144 80 q 53 375 53 255 q 99 581 53 492 q 227 718 144 669 q 421 767 309 767 q 601 725 521 767 q 729 597 682 683 q 777 383 777 511 l 777 325 l 261 325 l 261 325 q 307 191 261 240 q 433 142 354 142 q 524 164 485 142 q 578 230 562 186 l 772 217 q 660 48 750 111 q 429 -15 570 -15 m 261 455 l 579 455 q 536 567 579 523 q 424 611 493 611 q 309 565 354 611 q 261 455 264 520 m 340 855 l 445 1080 l 639 1080 l 489 855 l 340 855 z "},"ê":{"ha":830,"x_min":53,"x_max":777,"o":"m 429 -15 q 228 33 313 -15 q 99 168 144 80 q 53 375 53 255 q 99 581 53 492 q 227 718 144 669 q 421 767 309 767 q 601 725 521 767 q 729 597 682 683 q 777 383 777 511 l 777 325 l 261 325 l 261 325 q 307 191 261 240 q 433 142 354 142 q 524 164 485 142 q 578 230 562 186 l 772 217 q 660 48 750 111 q 429 -15 570 -15 m 261 455 l 579 455 q 536 567 579 523 q 424 611 493 611 q 309 565 354 611 q 261 455 264 520 z "},"ë":{"ha":830,"x_min":53,"x_max":777,"o":"m 429 -15 q 228 33 313 -15 q 99 168 144 80 q 53 375 53 255 q 99 581 53 492 q 227 718 144 669 q 421 767 309 767 q 601 725 521 767 q 729 597 682 683 q 777 383 777 511 l 777 325 l 261 325 l 261 325 q 307 191 261 240 q 433 142 354 142 q 524 164 485 142 q 578 230 562 186 l 772 217 q 660 48 750 111 q 429 -15 570 -15 m 261 455 l 579 455 q 536 567 579 523 q 424 611 493 611 q 309 565 354 611 q 261 455 264 520 m 265 861 q 192 891 223 861 q 162 962 162 921 q 192 1033 162 1004 q 265 1062 223 1062 q 338 1033 308 1062 q 368 962 368 1004 q 338 891 368 921 q 265 861 308 861 m 567 861 q 494 891 525 861 q 464 962 464 921 q 494 1033 464 1004 q 567 1062 525 1062 q 640 1033 610 1062 q 670 962 670 1004 q 640 891 670 921 q 567 861 610 861 z "},"ì":{"ha":378,"x_min":-34,"x_max":294,"o":"m 84 0 l 84 758 l 294 758 l 294 0 l 84 0 m 116 855 l -34 1080 l 160 1080 l 265 855 l 116 855 z "},"í":{"ha":378,"x_min":84,"x_max":413,"o":"m 84 0 l 84 758 l 294 758 l 294 0 l 84 0 m 114 855 l 218 1080 l 413 1080 l 262 855 l 114 855 z "},"î":{"ha":378,"x_min":-89,"x_max":468,"o":"m 84 0 l 84 758 l 294 758 l 294 0 l 84 0 z "},"ï":{"ha":378,"x_min":-65,"x_max":443,"o":"m 84 0 l 84 758 l 294 758 l 294 0 l 84 0 m 39 861 q -34 891 -3 861 q -65 962 -65 921 q -34 1033 -65 1004 q 39 1062 -3 1062 q 112 1033 82 1062 q 142 962 142 1004 q 112 891 142 921 q 39 861 82 861 m 341 861 q 268 891 298 861 q 237 962 237 921 q 268 1033 237 1004 q 341 1062 298 1062 q 414 1033 384 1062 q 443 962 443 1004 q 414 891 443 921 q 341 861 384 861 z "},"ð":{"ha":794,"x_min":56,"x_max":739,"o":"m 630 926 l 531 876 q 680 653 621 780 q 739 371 739 526 q 696 162 739 249 q 576 30 653 75 q 397 -16 499 -16 q 216 31 292 -16 q 98 160 140 78 q 56 347 56 242 q 92 526 56 450 q 185 646 128 601 q 307 702 243 691 q 411 696 361 709 q 491 647 461 683 l 501 647 q 448 728 476 690 q 381 800 419 765 l 207 711 l 149 817 l 276 881 q 174 942 231 910 l 267 1073 q 353 1024 310 1052 q 437 963 396 997 l 573 1033 l 630 926 m 405 148 q 515 199 475 148 q 555 348 555 249 q 515 497 555 447 q 405 547 475 547 q 296 499 336 547 q 256 348 256 450 q 295 199 256 250 q 405 148 333 148 z "},"ñ":{"ha":864,"x_min":84,"x_max":782,"o":"m 294 438 l 294 0 l 84 0 l 84 758 l 284 758 l 284 624 l 293 624 q 378 729 319 690 q 521 767 436 767 q 711 691 639 767 q 782 482 782 615 l 782 0 l 572 0 l 572 445 q 537 554 573 514 q 437 593 501 593 q 334 552 374 593 q 294 438 294 511 m 291 851 l 175 852 q 221 997 175 946 q 335 1048 268 1047 q 400 1034 373 1048 q 449 1004 427 1019 q 482 983 466 992 q 517 974 498 974 q 560 995 545 974 q 576 1050 575 1016 l 690 1047 q 644 903 690 953 q 530 852 597 852 q 463 866 489 852 q 416 895 436 880 q 384 917 400 908 q 348 926 368 926 q 307 906 323 926 q 291 851 291 885 z "},"ò":{"ha":852,"x_min":53,"x_max":799,"o":"m 426 -15 q 228 34 311 -15 q 99 171 144 83 q 53 376 53 259 q 99 581 53 493 q 228 718 144 669 q 426 767 311 767 q 625 718 541 767 q 754 581 708 669 q 799 376 799 493 q 754 171 799 259 q 625 34 708 83 q 426 -15 541 -15 m 427 148 q 545 213 505 148 q 585 377 585 278 q 545 542 585 476 q 427 607 505 607 q 307 542 348 607 q 267 377 267 476 q 307 213 267 278 q 427 148 348 148 m 353 855 l 203 1080 l 397 1080 l 502 855 l 353 855 z "},"ó":{"ha":852,"x_min":53,"x_max":799,"o":"m 426 -15 q 228 34 311 -15 q 99 171 144 83 q 53 376 53 259 q 99 581 53 493 q 228 718 144 669 q 426 767 311 767 q 625 718 541 767 q 754 581 708 669 q 799 376 799 493 q 754 171 799 259 q 625 34 708 83 q 426 -15 541 -15 m 427 148 q 545 213 505 148 q 585 377 585 278 q 545 542 585 476 q 427 607 505 607 q 307 542 348 607 q 267 377 267 476 q 307 213 267 278 q 427 148 348 148 m 351 855 l 455 1080 l 650 1080 l 499 855 l 351 855 z "},"ô":{"ha":852,"x_min":53,"x_max":799,"o":"m 426 -15 q 228 34 311 -15 q 99 171 144 83 q 53 376 53 259 q 99 581 53 493 q 228 718 144 669 q 426 767 311 767 q 625 718 541 767 q 754 581 708 669 q 799 376 799 493 q 754 171 799 259 q 625 34 708 83 q 426 -15 541 -15 m 427 148 q 545 213 505 148 q 585 377 585 278 q 545 542 585 476 q 427 607 505 607 q 307 542 348 607 q 267 377 267 476 q 307 213 267 278 q 427 148 348 148 z "},"õ":{"ha":818,"x_min":56,"x_max":801,"o":"m 297 851 l 180 852 q 227 997 180 946 q 340 1048 273 1047 q 405 1034 379 1048 q 454 1004 432 1019 q 488 983 472 992 q 522 974 504 974 q 566 995 551 974 q 581 1050 581 1016 l 696 1047 q 649 903 695 953 q 536 852 603 852 q 468 866 494 852 q 421 895 442 880 q 389 917 405 908 q 354 926 373 926 q 312 906 328 926 q 297 851 297 885 m 429 -15 q 230 34 314 -15 q 101 171 146 83 q 56 376 56 259 q 101 581 56 493 q 230 718 146 669 q 429 767 314 767 q 627 718 544 767 q 756 581 711 669 q 801 376 801 493 q 756 171 801 259 q 627 34 711 83 q 429 -15 544 -15 m 430 148 q 548 213 508 148 q 588 377 588 278 q 548 542 588 476 q 430 607 508 607 q 310 542 350 607 q 269 377 269 476 q 310 213 269 278 q 430 148 350 148 z "},"ö":{"ha":852,"x_min":53,"x_max":799,"o":"m 426 -15 q 228 34 311 -15 q 99 171 144 83 q 53 376 53 259 q 99 581 53 493 q 228 718 144 669 q 426 767 311 767 q 625 718 541 767 q 754 581 708 669 q 799 376 799 493 q 754 171 799 259 q 625 34 708 83 q 426 -15 541 -15 m 427 148 q 545 213 505 148 q 585 377 585 278 q 545 542 585 476 q 427 607 505 607 q 307 542 348 607 q 267 377 267 476 q 307 213 267 278 q 427 148 348 148 m 276 861 q 203 891 233 861 q 172 962 172 921 q 203 1033 172 1004 q 276 1062 233 1062 q 348 1033 319 1062 q 378 962 378 1004 q 348 891 378 921 q 276 861 319 861 m 578 861 q 505 891 535 861 q 474 962 474 921 q 505 1033 474 1004 q 578 1062 535 1062 q 650 1033 620 1062 q 680 962 680 1004 q 650 891 680 921 q 578 861 620 861 z "},"÷":{"ha":944,"x_min":127,"x_max":817,"o":"m 817 488 l 817 321 l 127 321 l 127 488 l 817 488 m 472 11 q 387 46 422 11 q 352 131 352 81 q 387 214 352 179 q 472 248 422 248 q 555 214 520 248 q 589 131 589 179 q 555 46 589 81 q 472 11 520 11 m 472 560 q 387 595 423 560 q 352 680 352 630 q 387 763 352 728 q 472 797 423 797 q 555 763 521 797 q 589 680 589 728 q 555 595 589 630 q 472 560 521 560 z "},"ø":{"ha":855,"x_min":53,"x_max":799,"o":"m 202 -48 l 106 17 l 156 89 q 80 214 107 141 q 53 375 53 286 q 99 580 53 492 q 228 717 144 668 q 426 766 311 766 q 601 730 523 766 l 650 800 l 747 735 l 696 662 q 772 537 746 610 q 799 375 799 464 q 754 170 799 258 q 625 33 708 82 q 426 -16 541 -16 q 251 22 328 -16 l 202 -48 m 281 269 l 501 586 q 427 606 469 606 q 307 541 348 606 q 267 376 267 475 q 281 269 267 317 m 427 147 q 545 212 505 147 q 585 376 585 277 q 571 483 585 436 l 352 168 q 427 147 385 147 z "},"ù":{"ha":864,"x_min":84,"x_max":780,"o":"m 570 323 l 570 758 l 780 758 l 780 0 l 578 0 l 578 138 l 570 138 q 485 31 545 71 q 340 -10 426 -10 q 155 66 226 -10 q 84 275 84 143 l 84 758 l 294 758 l 294 313 q 330 207 294 246 q 425 168 365 168 q 526 207 482 168 q 570 323 570 247 m 360 855 l 210 1080 l 403 1080 l 509 855 l 360 855 z "},"ú":{"ha":864,"x_min":84,"x_max":780,"o":"m 570 323 l 570 758 l 780 758 l 780 0 l 578 0 l 578 138 l 570 138 q 485 31 545 71 q 340 -10 426 -10 q 155 66 226 -10 q 84 275 84 143 l 84 758 l 294 758 l 294 313 q 330 207 294 246 q 425 168 365 168 q 526 207 482 168 q 570 323 570 247 m 357 855 l 462 1080 l 656 1080 l 506 855 l 357 855 z "},"û":{"ha":864,"x_min":84,"x_max":780,"o":"m 570 323 l 570 758 l 780 758 l 780 0 l 578 0 l 578 138 l 570 138 q 485 31 545 71 q 340 -10 426 -10 q 155 66 226 -10 q 84 275 84 143 l 84 758 l 294 758 l 294 313 q 330 207 294 246 q 425 168 365 168 q 526 207 482 168 q 570 323 570 247 z "},"ü":{"ha":864,"x_min":84,"x_max":780,"o":"m 570 323 l 570 758 l 780 758 l 780 0 l 578 0 l 578 138 l 570 138 q 485 31 545 71 q 340 -10 426 -10 q 155 66 226 -10 q 84 275 84 143 l 84 758 l 294 758 l 294 313 q 330 207 294 246 q 425 168 365 168 q 526 207 482 168 q 570 323 570 247 m 283 861 q 210 891 240 861 q 179 962 179 921 q 210 1033 179 1004 q 283 1062 240 1062 q 355 1033 326 1062 q 385 962 385 1004 q 355 891 385 921 q 283 861 326 861 m 584 861 q 511 891 542 861 q 481 962 481 921 q 511 1033 481 1004 q 584 1062 542 1062 q 657 1033 627 1062 q 687 962 687 1004 q 657 891 687 921 q 584 861 627 861 z "},"ý":{"ha":814,"x_min":24,"x_max":790,"o":"m 214 -283 q 139 -277 174 -283 q 81 -261 104 -271 l 129 -104 q 223 -113 184 -121 q 283 -54 261 -105 l 295 -22 l 24 758 l 245 758 l 401 201 l 409 201 l 568 758 l 790 757 l 496 -82 q 398 -228 464 -173 q 214 -283 331 -283 m 330 855 l 435 1080 l 629 1080 l 478 855 l 330 855 z "},"þ":{"ha":851,"x_min":84,"x_max":796,"o":"m 84 1010 l 294 1010 l 294 670 l 303 670 q 368 739 322 710 q 488 767 413 767 q 641 724 571 767 q 753 595 711 681 q 796 378 796 508 q 754 164 796 251 q 643 32 713 77 q 488 -12 574 -12 q 370 15 416 -12 q 303 83 323 42 l 294 83 l 294 -284 l 84 -284 l 84 1010 m 596 379 q 555 541 596 481 q 430 600 513 600 q 338 571 372 600 q 289 491 304 542 q 273 379 273 441 q 288 266 273 317 q 338 185 303 216 q 430 155 372 155 q 555 216 513 155 q 596 379 596 276 z "},"ÿ":{"ha":814,"x_min":24,"x_max":790,"o":"m 214 -283 q 139 -277 174 -283 q 81 -261 104 -271 l 129 -104 q 223 -113 184 -121 q 283 -54 261 -105 l 295 -22 l 24 758 l 245 758 l 401 201 l 409 201 l 568 758 l 790 757 l 496 -82 q 398 -228 464 -173 q 214 -283 331 -283 m 255 861 q 182 891 213 861 q 152 962 152 921 q 182 1033 152 1004 q 255 1062 213 1062 q 328 1033 298 1062 q 358 962 358 1004 q 328 891 358 921 q 255 861 298 861 m 557 861 q 484 891 515 861 q 454 962 454 921 q 484 1033 454 1004 q 557 1062 515 1062 q 630 1033 600 1062 q 660 962 660 1004 q 630 891 660 921 q 557 861 600 861 z "},"Ā":{"ha":1039,"x_min":33,"x_max":1005,"o":"m 262 0 l 33 0 l 382 1010 l 657 1010 l 1005 0 l 776 0 l 701 230 l 337 230 l 262 0 m 391 397 l 648 397 l 523 779 l 515 779 l 391 397 m 760 1263 l 760 1149 l 279 1149 l 279 1263 l 760 1263 z "},"ā":{"ha":806,"x_min":48,"x_max":727,"o":"m 300 -14 q 120 42 191 -14 q 48 212 48 99 q 88 345 48 296 q 193 416 128 393 q 333 445 258 438 q 474 466 432 455 q 516 513 516 476 l 516 516 q 487 588 516 563 q 404 614 458 614 q 314 589 347 614 q 269 527 280 565 l 75 543 q 183 707 97 646 q 405 767 269 767 q 563 741 489 767 q 681 658 636 714 q 727 511 727 601 l 727 0 l 527 0 l 527 105 l 521 105 q 439 19 494 52 q 300 -14 384 -14 m 360 131 q 473 171 429 131 q 518 271 518 211 l 518 351 q 480 336 506 343 q 424 325 454 330 q 372 317 395 321 q 283 286 317 309 q 249 218 249 263 q 280 153 249 175 q 360 131 312 131 m 653 1010 l 653 896 l 173 896 l 173 1010 l 653 1010 z "},"Ă":{"ha":1039,"x_min":33,"x_max":1005,"o":"m 262 0 l 33 0 l 382 1010 l 657 1010 l 1005 0 l 776 0 l 701 230 l 337 230 l 262 0 m 391 397 l 648 397 l 523 779 l 515 779 l 391 397 m 617 1274 l 763 1274 q 697 1130 763 1185 q 519 1075 631 1075 q 342 1130 407 1075 q 276 1274 276 1185 l 421 1274 q 443 1213 421 1240 q 519 1186 466 1186 q 595 1213 572 1186 q 617 1274 617 1240 z "},"ă":{"ha":806,"x_min":48,"x_max":727,"o":"m 300 -14 q 120 42 191 -14 q 48 212 48 99 q 88 345 48 296 q 193 416 128 393 q 333 445 258 438 q 474 466 432 455 q 516 513 516 476 l 516 516 q 487 588 516 563 q 404 614 458 614 q 314 589 347 614 q 269 527 280 565 l 75 543 q 183 707 97 646 q 405 767 269 767 q 563 741 489 767 q 681 658 636 714 q 727 511 727 601 l 727 0 l 527 0 l 527 105 l 521 105 q 439 19 494 52 q 300 -14 384 -14 m 360 131 q 473 171 429 131 q 518 271 518 211 l 518 351 q 480 336 506 343 q 424 325 454 330 q 372 317 395 321 q 283 286 317 309 q 249 218 249 263 q 280 153 249 175 q 360 131 312 131 m 510 1022 l 657 1022 q 591 878 656 933 q 413 823 525 823 q 235 878 301 823 q 169 1022 169 933 l 315 1022 q 337 961 314 988 q 413 934 359 934 q 488 961 466 934 q 510 1022 510 987 z "},"Ą":{"ha":1039,"x_min":33,"x_max":1022,"o":"m 262 0 l 33 0 l 382 1010 l 657 1010 l 1005 0 l 776 0 l 701 230 l 337 230 l 262 0 m 391 397 l 648 397 l 523 779 l 515 779 l 391 397 m 909 -283 q 800 -249 844 -283 q 744 -153 756 -216 q 758 -33 732 -93 q 849 57 784 28 l 1006 0 q 930 -47 959 -22 q 901 -108 900 -72 q 948 -157 900 -157 q 978 -153 965 -157 q 1000 -145 990 -148 l 1022 -254 q 976 -273 1004 -264 q 909 -283 947 -283 z "},"ą":{"ha":806,"x_min":48,"x_max":743,"o":"m 300 -14 q 120 42 191 -14 q 48 212 48 99 q 88 345 48 296 q 193 416 128 393 q 333 445 258 438 q 474 466 432 455 q 516 513 516 476 l 516 516 q 487 588 516 563 q 404 614 458 614 q 314 589 347 614 q 269 527 280 565 l 75 543 q 183 707 97 646 q 405 767 269 767 q 563 741 489 767 q 681 658 636 714 q 727 511 727 601 l 727 0 l 527 0 l 527 105 l 521 105 q 439 19 494 52 q 300 -14 384 -14 m 360 131 q 473 171 429 131 q 518 271 518 211 l 518 351 q 480 336 506 343 q 424 325 454 330 q 372 317 395 321 q 283 286 317 309 q 249 218 249 263 q 280 153 249 175 q 360 131 312 131 m 630 -283 q 521 -249 565 -283 q 465 -153 476 -216 q 479 -33 453 -93 q 570 57 505 28 l 727 0 q 651 -47 680 -22 q 621 -108 621 -72 q 669 -157 620 -157 q 699 -153 686 -157 q 721 -145 711 -148 l 743 -254 q 696 -273 725 -264 q 630 -283 668 -283 z "},"Ć":{"ha":1045,"x_min":70,"x_max":979,"o":"m 979 656 l 763 656 q 692 787 751 740 q 545 835 633 835 q 357 749 428 835 q 287 505 287 663 q 358 259 287 343 q 544 175 429 175 q 689 220 629 175 q 763 345 748 264 l 979 344 q 913 170 968 252 q 764 37 858 88 q 541 -14 670 -14 q 299 47 405 -14 q 131 224 193 109 q 70 505 70 340 q 132 786 70 670 q 301 963 194 902 q 541 1024 407 1024 q 751 981 657 1024 q 905 855 845 938 q 979 656 965 773 m 465 1108 l 570 1332 l 764 1332 l 614 1108 l 465 1108 z "},"ć":{"ha":816,"x_min":53,"x_max":764,"o":"m 426 -15 q 226 35 310 -15 q 98 173 143 84 q 53 376 53 261 q 98 580 53 492 q 227 718 144 668 q 425 767 310 767 q 599 731 524 767 q 717 630 674 695 q 764 477 760 565 l 566 477 q 522 569 558 534 q 429 604 486 604 q 311 545 356 604 q 267 379 267 486 q 311 211 267 270 q 429 151 355 151 q 520 184 483 151 q 566 278 557 217 l 764 278 q 717 125 760 191 q 601 22 675 59 q 426 -15 527 -15 m 350 855 l 455 1080 l 649 1080 l 499 855 l 350 855 z "},"Ĉ":{"ha":1045,"x_min":70,"x_max":979,"o":"m 979 656 l 763 656 q 692 787 751 740 q 545 835 633 835 q 357 749 428 835 q 287 505 287 663 q 358 259 287 343 q 544 175 429 175 q 689 220 629 175 q 763 345 748 264 l 979 344 q 913 170 968 252 q 764 37 858 88 q 541 -14 670 -14 q 299 47 405 -14 q 131 224 193 109 q 70 505 70 340 q 132 786 70 670 q 301 963 194 902 q 541 1024 407 1024 q 751 981 657 1024 q 905 855 845 938 q 979 656 965 773 z "},"ĉ":{"ha":816,"x_min":53,"x_max":764,"o":"m 426 -15 q 226 35 310 -15 q 98 173 143 84 q 53 376 53 261 q 98 580 53 492 q 227 718 144 668 q 425 767 310 767 q 599 731 524 767 q 717 630 674 695 q 764 477 760 565 l 566 477 q 522 569 558 534 q 429 604 486 604 q 311 545 356 604 q 267 379 267 486 q 311 211 267 270 q 429 151 355 151 q 520 184 483 151 q 566 278 557 217 l 764 278 q 717 125 760 191 q 601 22 675 59 q 426 -15 527 -15 z "},"Ċ":{"ha":1045,"x_min":70,"x_max":979,"o":"m 979 656 l 763 656 q 692 787 751 740 q 545 835 633 835 q 357 749 428 835 q 287 505 287 663 q 358 259 287 343 q 544 175 429 175 q 689 220 629 175 q 763 345 748 264 l 979 344 q 913 170 968 252 q 764 37 858 88 q 541 -14 670 -14 q 299 47 405 -14 q 131 224 193 109 q 70 505 70 340 q 132 786 70 670 q 301 963 194 902 q 541 1024 407 1024 q 751 981 657 1024 q 905 855 845 938 q 979 656 965 773 m 541 1108 q 461 1139 494 1108 q 427 1214 427 1170 q 461 1289 427 1258 q 541 1320 494 1320 q 621 1289 587 1320 q 654 1214 654 1258 q 621 1139 654 1170 q 541 1108 587 1108 z "},"ċ":{"ha":816,"x_min":53,"x_max":764,"o":"m 426 -15 q 226 35 310 -15 q 98 173 143 84 q 53 376 53 261 q 98 580 53 492 q 227 718 144 668 q 425 767 310 767 q 599 731 524 767 q 717 630 674 695 q 764 477 760 565 l 566 477 q 522 569 558 534 q 429 604 486 604 q 311 545 356 604 q 267 379 267 486 q 311 211 267 270 q 429 151 355 151 q 520 184 483 151 q 566 278 557 217 l 764 278 q 717 125 760 191 q 601 22 675 59 q 426 -15 527 -15 m 426 855 q 346 887 379 855 q 312 962 312 918 q 346 1037 312 1006 q 426 1068 379 1068 q 506 1037 472 1068 q 540 962 540 1006 q 506 887 540 918 q 426 855 472 855 z "},"Č":{"ha":1045,"x_min":70,"x_max":979,"o":"m 979 656 l 763 656 q 692 787 751 740 q 545 835 633 835 q 357 749 428 835 q 287 505 287 663 q 358 259 287 343 q 544 175 429 175 q 689 220 629 175 q 763 345 748 264 l 979 344 q 913 170 968 252 q 764 37 858 88 q 541 -14 670 -14 q 299 47 405 -14 q 131 224 193 109 q 70 505 70 340 q 132 786 70 670 q 301 963 194 902 q 541 1024 407 1024 q 751 981 657 1024 q 905 855 845 938 q 979 656 965 773 m 441 1325 l 541 1204 l 640 1325 l 819 1325 l 819 1318 l 618 1101 l 462 1101 l 262 1318 l 262 1325 l 441 1325 z "},"č":{"ha":816,"x_min":53,"x_max":764,"o":"m 426 -15 q 226 35 310 -15 q 98 173 143 84 q 53 376 53 261 q 98 580 53 492 q 227 718 144 668 q 425 767 310 767 q 599 731 524 767 q 717 630 674 695 q 764 477 760 565 l 566 477 q 522 569 558 534 q 429 604 486 604 q 311 545 356 604 q 267 379 267 486 q 311 211 267 270 q 429 151 355 151 q 520 184 483 151 q 566 278 557 217 l 764 278 q 717 125 760 191 q 601 22 675 59 q 426 -15 527 -15 m 327 1072 l 426 952 l 525 1072 l 704 1072 l 704 1065 l 504 848 l 347 848 l 147 1065 l 147 1072 l 327 1072 z "},"Ď":{"ha":1010,"x_min":88,"x_max":940,"o":"m 446 0 l 88 0 l 88 1010 l 449 1010 q 711 950 601 1010 q 881 776 822 889 q 940 506 940 663 q 881 235 940 348 q 710 61 821 121 q 446 0 600 0 m 301 183 l 437 183 q 653 260 580 183 q 727 506 727 337 q 653 751 727 674 q 437 827 580 827 l 301 827 l 301 183 m 310 1325 l 409 1204 l 508 1325 l 687 1325 l 687 1318 l 487 1101 l 330 1101 l 131 1318 l 131 1325 l 310 1325 z "},"ď":{"ha":1022,"x_min":56,"x_max":1038,"o":"m 363 -12 q 207 32 277 -12 q 97 164 138 77 q 56 378 56 251 q 98 595 56 508 q 210 724 140 681 q 363 767 280 767 q 469 746 426 767 q 538 693 511 725 q 578 630 564 661 l 584 630 l 584 1010 l 794 1010 l 794 0 l 587 0 l 587 121 l 578 121 q 537 59 564 90 q 467 8 509 28 q 363 -12 424 -12 m 430 155 q 547 216 506 155 q 589 379 589 278 q 547 540 589 480 q 430 600 506 600 q 311 539 352 600 q 270 379 270 477 q 311 217 270 280 q 430 155 352 155 m 880 802 l 880 1062 l 1038 1062 l 1003 802 l 880 802 z "},"Đ":{"ha":1010,"x_min":-53,"x_max":940,"o":"z "},"đ":{"ha":882,"x_min":56,"x_max":880,"o":"m 363 -12 q 207 32 277 -12 q 97 164 138 77 q 56 378 56 251 q 98 595 56 508 q 210 724 140 681 q 363 767 280 767 q 469 746 426 767 q 538 693 511 725 q 578 630 564 661 l 584 630 l 584 1010 l 794 1010 l 794 0 l 587 0 l 587 121 l 578 121 q 537 59 564 90 q 467 8 509 28 q 363 -12 424 -12 m 430 155 q 547 216 506 155 q 589 379 589 278 q 547 540 589 480 q 430 600 506 600 q 311 539 352 600 q 270 379 270 477 q 311 217 270 280 q 430 155 352 155 m 388 809 l 388 933 l 880 933 l 880 809 l 388 809 z "},"Ē":{"ha":851,"x_min":88,"x_max":770,"o":"m 88 0 l 88 1010 l 768 1010 l 768 834 l 301 834 l 301 593 l 733 593 l 733 417 l 301 417 l 301 176 l 770 176 l 770 0 l 88 0 m 670 1263 l 670 1149 l 189 1149 l 189 1263 l 670 1263 z "},"ē":{"ha":830,"x_min":53,"x_max":777,"o":"m 429 -15 q 228 33 313 -15 q 99 168 144 80 q 53 375 53 255 q 99 581 53 492 q 227 718 144 669 q 421 767 309 767 q 601 725 521 767 q 729 597 682 683 q 777 383 777 511 l 777 325 l 261 325 l 261 325 q 307 191 261 240 q 433 142 354 142 q 524 164 485 142 q 578 230 562 186 l 772 217 q 660 48 750 111 q 429 -15 570 -15 m 261 455 l 579 455 q 536 567 579 523 q 424 611 493 611 q 309 565 354 611 q 261 455 264 520 m 656 1010 l 656 896 l 176 896 l 176 1010 l 656 1010 z "},"Ĕ":{"ha":851,"x_min":88,"x_max":770,"o":"m 88 0 l 88 1010 l 768 1010 l 768 834 l 301 834 l 301 593 l 733 593 l 733 417 l 301 417 l 301 176 l 770 176 l 770 0 l 88 0 m 527 1274 l 674 1274 q 607 1130 673 1185 q 430 1075 542 1075 q 252 1130 318 1075 q 186 1274 186 1185 l 331 1274 q 353 1213 331 1240 q 430 1186 376 1186 q 505 1213 482 1186 q 527 1274 527 1240 z "},"ĕ":{"ha":830,"x_min":53,"x_max":777,"o":"m 429 -15 q 228 33 313 -15 q 99 168 144 80 q 53 375 53 255 q 99 581 53 492 q 227 718 144 669 q 421 767 309 767 q 601 725 521 767 q 729 597 682 683 q 777 383 777 511 l 777 325 l 261 325 l 261 325 q 307 191 261 240 q 433 142 354 142 q 524 164 485 142 q 578 230 562 186 l 772 217 q 660 48 750 111 q 429 -15 570 -15 m 261 455 l 579 455 q 536 567 579 523 q 424 611 493 611 q 309 565 354 611 q 261 455 264 520 m 513 1022 l 660 1022 q 594 878 659 933 q 416 823 528 823 q 238 878 304 823 q 172 1022 172 933 l 318 1022 q 340 961 317 988 q 416 934 362 934 q 491 961 469 934 q 513 1022 513 987 z "},"Ė":{"ha":851,"x_min":88,"x_max":770,"o":"m 88 0 l 88 1010 l 768 1010 l 768 834 l 301 834 l 301 593 l 733 593 l 733 417 l 301 417 l 301 176 l 770 176 l 770 0 l 88 0 m 430 1108 q 350 1139 383 1108 q 316 1214 316 1170 q 350 1289 316 1258 q 430 1320 383 1320 q 510 1289 476 1320 q 544 1214 544 1258 q 510 1139 544 1170 q 430 1108 476 1108 z "},"ė":{"ha":830,"x_min":53,"x_max":777,"o":"m 429 -15 q 228 33 313 -15 q 99 168 144 80 q 53 375 53 255 q 99 581 53 492 q 227 718 144 669 q 421 767 309 767 q 601 725 521 767 q 729 597 682 683 q 777 383 777 511 l 777 325 l 261 325 l 261 325 q 307 191 261 240 q 433 142 354 142 q 524 164 485 142 q 578 230 562 186 l 772 217 q 660 48 750 111 q 429 -15 570 -15 m 261 455 l 579 455 q 536 567 579 523 q 424 611 493 611 q 309 565 354 611 q 261 455 264 520 m 416 855 q 336 887 369 855 q 302 962 302 918 q 336 1037 302 1006 q 416 1068 369 1068 q 496 1037 463 1068 q 530 962 530 1006 q 496 887 530 918 q 416 855 463 855 z "},"Ę":{"ha":851,"x_min":88,"x_max":787,"o":"m 88 0 l 88 1010 l 768 1010 l 768 834 l 301 834 l 301 593 l 733 593 l 733 417 l 301 417 l 301 176 l 770 176 l 770 0 l 88 0 m 675 -283 q 565 -249 609 -283 q 509 -153 521 -216 q 524 -33 498 -93 q 615 57 549 28 l 771 0 q 695 -47 725 -22 q 666 -108 665 -72 q 714 -157 665 -157 q 743 -153 730 -157 q 765 -145 756 -148 l 787 -254 q 741 -273 769 -264 q 675 -283 713 -283 z "},"ę":{"ha":830,"x_min":53,"x_max":777,"o":"m 429 -15 q 228 33 313 -15 q 99 168 144 80 q 53 375 53 255 q 99 581 53 492 q 227 718 144 669 q 421 767 309 767 q 601 725 521 767 q 729 597 682 683 q 777 383 777 511 l 777 325 l 261 325 l 261 325 q 307 191 261 240 q 433 142 354 142 q 524 164 485 142 q 578 230 562 186 l 772 217 q 660 48 750 111 q 429 -15 570 -15 m 261 455 l 579 455 q 536 567 579 523 q 424 611 493 611 q 309 565 354 611 q 261 455 264 520 m 502 -263 q 392 -229 436 -263 q 336 -133 348 -195 q 350 -12 325 -73 q 441 77 376 48 l 598 20 q 522 -27 551 -1 q 493 -87 492 -52 q 541 -137 492 -137 q 570 -132 557 -137 q 592 -125 582 -128 l 614 -233 q 568 -253 596 -244 q 502 -263 540 -263 z "},"Ě":{"ha":851,"x_min":88,"x_max":770,"o":"m 88 0 l 88 1010 l 768 1010 l 768 834 l 301 834 l 301 593 l 733 593 l 733 417 l 301 417 l 301 176 l 770 176 l 770 0 l 88 0 m 330 1325 l 430 1204 l 529 1325 l 708 1325 l 708 1318 l 508 1101 l 351 1101 l 151 1318 l 151 1325 l 330 1325 z "},"ě":{"ha":830,"x_min":53,"x_max":777,"o":"m 429 -15 q 228 33 313 -15 q 99 168 144 80 q 53 375 53 255 q 99 581 53 492 q 227 718 144 669 q 421 767 309 767 q 601 725 521 767 q 729 597 682 683 q 777 383 777 511 l 777 325 l 261 325 l 261 325 q 307 191 261 240 q 433 142 354 142 q 524 164 485 142 q 578 230 562 186 l 772 217 q 660 48 750 111 q 429 -15 570 -15 m 261 455 l 579 455 q 536 567 579 523 q 424 611 493 611 q 309 565 354 611 q 261 455 264 520 m 317 1072 l 416 952 l 515 1072 l 694 1072 l 694 1065 l 494 848 l 337 848 l 138 1065 l 138 1072 l 317 1072 z "},"Ĝ":{"ha":1056,"x_min":70,"x_max":984,"o":"m 758 684 q 683 795 737 755 q 546 835 628 835 q 358 749 430 835 q 287 506 287 664 q 357 261 287 348 q 548 175 428 175 q 715 231 654 175 q 778 380 776 286 l 561 380 l 561 541 l 984 541 l 984 413 q 928 185 984 281 q 773 37 872 89 q 547 -14 675 -14 q 297 49 405 -14 q 130 228 190 112 q 70 504 70 344 q 133 784 70 668 q 302 962 195 901 q 543 1024 409 1024 q 750 981 657 1024 q 902 860 842 937 q 975 684 961 784 l 758 684 z "},"ĝ":{"ha":879,"x_min":56,"x_max":796,"o":"m 425 -295 q 185 -235 272 -295 q 79 -89 98 -175 l 273 -63 q 323 -119 286 -93 q 430 -144 361 -144 q 543 -111 499 -144 q 588 -4 588 -79 l 588 134 l 579 134 q 506 49 558 87 q 363 11 454 11 q 208 51 278 11 q 97 173 138 91 q 56 380 56 254 q 98 595 56 509 q 210 724 140 681 q 363 767 280 767 q 469 746 426 767 q 539 693 512 725 q 579 630 565 661 l 587 630 l 587 758 l 796 758 l 796 -7 q 748 -166 796 -102 q 617 -262 700 -230 q 425 -295 534 -295 m 430 169 q 547 225 506 169 q 589 381 589 281 q 547 541 589 481 q 430 600 506 600 q 311 539 352 600 q 270 381 270 478 q 311 226 270 283 q 430 169 352 169 z "},"Ğ":{"ha":1056,"x_min":70,"x_max":984,"o":"m 758 684 q 683 795 737 755 q 546 835 628 835 q 358 749 430 835 q 287 506 287 664 q 357 261 287 348 q 548 175 428 175 q 715 231 654 175 q 778 380 776 286 l 561 380 l 561 541 l 984 541 l 984 413 q 928 185 984 281 q 773 37 872 89 q 547 -14 675 -14 q 297 49 405 -14 q 130 228 190 112 q 70 504 70 344 q 133 784 70 668 q 302 962 195 901 q 543 1024 409 1024 q 750 981 657 1024 q 902 860 842 937 q 975 684 961 784 l 758 684 m 636 1274 l 782 1274 q 716 1130 782 1185 q 538 1075 650 1075 q 360 1130 426 1075 q 294 1274 294 1185 l 440 1274 q 462 1213 439 1240 q 538 1186 484 1186 q 613 1213 591 1186 q 636 1274 636 1240 z "},"ğ":{"ha":879,"x_min":56,"x_max":796,"o":"m 425 -295 q 185 -235 272 -295 q 79 -89 98 -175 l 273 -63 q 323 -119 286 -93 q 430 -144 361 -144 q 543 -111 499 -144 q 588 -4 588 -79 l 588 134 l 579 134 q 506 49 558 87 q 363 11 454 11 q 208 51 278 11 q 97 173 138 91 q 56 380 56 254 q 98 595 56 509 q 210 724 140 681 q 363 767 280 767 q 469 746 426 767 q 539 693 512 725 q 579 630 565 661 l 587 630 l 587 758 l 796 758 l 796 -7 q 748 -166 796 -102 q 617 -262 700 -230 q 425 -295 534 -295 m 430 169 q 547 225 506 169 q 589 381 589 281 q 547 541 589 481 q 430 600 506 600 q 311 539 352 600 q 270 381 270 478 q 311 226 270 283 q 430 169 352 169 m 528 1022 l 674 1022 q 608 878 674 933 q 430 823 542 823 q 252 878 318 823 q 186 1022 186 933 l 332 1022 q 354 961 331 988 q 430 934 376 934 q 505 961 483 934 q 528 1022 528 987 z "},"Ġ":{"ha":1056,"x_min":70,"x_max":984,"o":"m 758 684 q 683 795 737 755 q 546 835 628 835 q 358 749 430 835 q 287 506 287 664 q 357 261 287 348 q 548 175 428 175 q 715 231 654 175 q 778 380 776 286 l 561 380 l 561 541 l 984 541 l 984 413 q 928 185 984 281 q 773 37 872 89 q 547 -14 675 -14 q 297 49 405 -14 q 130 228 190 112 q 70 504 70 344 q 133 784 70 668 q 302 962 195 901 q 543 1024 409 1024 q 750 981 657 1024 q 902 860 842 937 q 975 684 961 784 l 758 684 m 538 1108 q 458 1139 491 1108 q 424 1214 424 1170 q 458 1289 424 1258 q 538 1320 491 1320 q 618 1289 584 1320 q 652 1214 652 1258 q 618 1139 652 1170 q 538 1108 584 1108 z "},"ġ":{"ha":879,"x_min":56,"x_max":796,"o":"m 425 -295 q 185 -235 272 -295 q 79 -89 98 -175 l 273 -63 q 323 -119 286 -93 q 430 -144 361 -144 q 543 -111 499 -144 q 588 -4 588 -79 l 588 134 l 579 134 q 506 49 558 87 q 363 11 454 11 q 208 51 278 11 q 97 173 138 91 q 56 380 56 254 q 98 595 56 509 q 210 724 140 681 q 363 767 280 767 q 469 746 426 767 q 539 693 512 725 q 579 630 565 661 l 587 630 l 587 758 l 796 758 l 796 -7 q 748 -166 796 -102 q 617 -262 700 -230 q 425 -295 534 -295 m 430 169 q 547 225 506 169 q 589 381 589 281 q 547 541 589 481 q 430 600 506 600 q 311 539 352 600 q 270 381 270 478 q 311 226 270 283 q 430 169 352 169 m 430 855 q 350 887 384 855 q 317 962 317 918 q 350 1037 317 1006 q 430 1068 384 1068 q 510 1037 477 1068 q 544 962 544 1006 q 510 887 544 918 q 430 855 477 855 z "},"Ģ":{"ha":1056,"x_min":70,"x_max":984,"o":"m 758 684 q 683 795 737 755 q 546 835 628 835 q 358 749 430 835 q 287 506 287 664 q 357 261 287 348 q 548 175 428 175 q 715 231 654 175 q 778 380 776 286 l 561 380 l 561 541 l 984 541 l 984 413 q 928 185 984 281 q 773 37 872 89 q 547 -14 675 -14 q 297 49 405 -14 q 130 228 190 112 q 70 504 70 344 q 133 784 70 668 q 302 962 195 901 q 543 1024 409 1024 q 750 981 657 1024 q 902 860 842 937 q 975 684 961 784 l 758 684 m 379 -321 l 440 -77 l 634 -77 l 526 -321 l 379 -321 z "},"ģ":{"ha":879,"x_min":56,"x_max":796,"o":"m 425 -295 q 185 -235 272 -295 q 79 -89 98 -175 l 273 -63 q 323 -119 286 -93 q 430 -144 361 -144 q 543 -111 499 -144 q 588 -4 588 -79 l 588 134 l 579 134 q 506 49 558 87 q 363 11 454 11 q 208 51 278 11 q 97 173 138 91 q 56 380 56 254 q 98 595 56 509 q 210 724 140 681 q 363 767 280 767 q 469 746 426 767 q 539 693 512 725 q 579 630 565 661 l 587 630 l 587 758 l 796 758 l 796 -7 q 748 -166 796 -102 q 617 -262 700 -230 q 425 -295 534 -295 m 430 169 q 547 225 506 169 q 589 381 589 281 q 547 541 589 481 q 430 600 506 600 q 311 539 352 600 q 270 381 270 478 q 311 226 270 283 q 430 169 352 169 m 348 863 l 348 957 q 378 1092 348 1034 q 449 1178 407 1150 l 554 1126 q 523 1051 537 1097 q 508 948 508 1006 l 506 863 l 348 863 z "},"Ĥ":{"ha":1036,"x_min":88,"x_max":948,"o":"m 88 0 l 88 1010 l 301 1010 l 301 593 l 735 593 l 735 1010 l 948 1010 l 948 0 l 735 0 l 735 417 l 301 417 l 301 0 l 88 0 z "},"ĥ":{"ha":867,"x_min":-91,"x_max":786,"o":"m 294 438 l 294 0 l 84 0 l 84 1010 l 288 1010 l 288 624 l 297 624 q 380 729 323 691 q 523 767 437 767 q 714 691 642 767 q 785 482 786 616 l 785 0 l 575 0 l 575 445 q 540 554 576 515 q 440 593 504 593 q 335 552 376 593 q 294 438 294 511 z "},"Ħ":{"ha":1126,"x_min":49,"x_max":1076,"o":"m 1076 835 l 1076 716 l 992 716 l 992 0 l 779 0 l 779 417 l 346 417 l 346 0 l 132 0 l 132 716 l 49 716 l 49 835 l 132 835 l 132 1010 l 346 1010 l 346 835 l 779 835 l 779 1010 l 992 1010 l 992 835 l 1076 835 m 779 716 l 346 716 l 346 593 l 779 593 l 779 716 z "},"ħ":{"ha":867,"x_min":-61,"x_max":786,"o":"m 294 438 l 294 0 l 84 0 l 84 1010 l 288 1010 l 288 624 l 297 624 q 380 729 323 691 q 523 767 437 767 q 714 691 642 767 q 785 482 786 616 l 785 0 l 575 0 l 575 445 q 540 554 576 515 q 440 593 504 593 q 335 552 376 593 q 294 438 294 511 m -61 812 l -61 936 l 431 936 l 431 812 l -61 812 z "},"Ĩ":{"ha":626,"x_min":55,"x_max":571,"o":"m 419 1010 l 419 0 l 205 0 l 205 1010 l 419 1010 m 172 1103 l 55 1105 q 101 1249 55 1199 q 215 1300 148 1300 q 280 1286 254 1300 q 329 1257 307 1272 q 362 1235 346 1244 q 397 1226 378 1226 q 440 1248 426 1227 q 456 1303 455 1269 l 571 1299 q 524 1155 570 1205 q 410 1104 477 1105 q 343 1118 369 1104 q 296 1148 317 1132 q 264 1169 280 1160 q 228 1178 248 1178 q 187 1158 203 1178 q 172 1103 172 1138 z "},"ĩ":{"ha":401,"x_min":-57,"x_max":459,"o":"m 96 0 l 96 758 l 306 758 l 306 0 l 96 0 m 60 851 l -57 852 q -10 997 -57 946 q 104 1048 36 1047 q 169 1034 142 1048 q 218 1004 195 1019 q 251 983 235 992 q 286 974 267 974 q 329 995 314 974 q 344 1050 344 1016 l 459 1047 q 412 903 459 953 q 299 852 366 852 q 231 866 257 852 q 184 895 205 880 q 152 917 168 908 q 117 926 137 926 q 76 906 91 926 q 60 851 60 885 z "},"Ī":{"ha":390,"x_min":-45,"x_max":436,"o":"m 301 1010 l 301 0 l 88 0 l 88 1010 l 301 1010 m 436 1263 l 436 1149 l -45 1149 l -45 1263 l 436 1263 z "},"ī":{"ha":378,"x_min":-51,"x_max":430,"o":"m 84 0 l 84 758 l 294 758 l 294 0 l 84 0 m 430 1010 l 430 896 l -51 896 l -51 1010 l 430 1010 z "},"Ĭ":{"ha":390,"x_min":-48,"x_max":439,"o":"m 301 1010 l 301 0 l 88 0 l 88 1010 l 301 1010 m 293 1274 l 439 1274 q 373 1130 439 1185 q 195 1075 307 1075 q 18 1130 83 1075 q -48 1274 -48 1185 l 97 1274 q 119 1213 97 1240 q 195 1186 142 1186 q 271 1213 248 1186 q 293 1274 293 1240 z "},"ĭ":{"ha":378,"x_min":-54,"x_max":434,"o":"m 84 0 l 84 758 l 294 758 l 294 0 l 84 0 m 287 1022 l 434 1022 q 367 878 433 933 q 189 823 301 823 q 12 878 77 823 q -54 1022 -54 933 l 91 1022 q 113 961 91 988 q 189 934 136 934 q 265 961 242 934 q 287 1022 287 987 z "},"Į":{"ha":386,"x_min":31,"x_max":320,"o":"m 304 1010 l 304 0 l 90 0 l 90 1010 l 304 1010 m 208 -283 q 98 -249 142 -283 q 42 -153 54 -216 q 56 -33 31 -93 q 147 57 82 28 l 304 0 q 228 -47 257 -22 q 199 -108 198 -72 q 247 -157 198 -157 q 276 -153 263 -157 q 298 -145 289 -148 l 320 -254 q 274 -273 302 -264 q 208 -283 246 -283 z "},"į":{"ha":391,"x_min":16,"x_max":306,"o":"m 190 855 q 110 887 144 855 q 77 962 77 918 q 110 1037 77 1006 q 190 1068 144 1068 q 271 1037 237 1068 q 304 962 304 1006 q 271 887 304 918 q 190 855 237 855 z "},"İ":{"ha":390,"x_min":82,"x_max":309,"o":"m 301 1010 l 301 0 l 88 0 l 88 1010 l 301 1010 m 195 1108 q 115 1139 149 1108 q 82 1214 82 1170 q 115 1289 82 1258 q 195 1320 149 1320 q 276 1289 242 1320 q 309 1214 309 1258 q 276 1139 309 1170 q 195 1108 242 1108 z "},"ı":{"ha":378,"x_min":84,"x_max":294,"o":"m 84 0 l 84 758 l 294 758 l 294 0 l 84 0 z "},"Ĳ":{"ha":1181,"x_min":88,"x_max":1093,"o":"m 301 1010 l 301 0 l 88 0 l 88 1010 l 301 1010 m 882 1010 l 1093 1010 l 1093 306 q 1049 136 1093 208 q 928 25 1006 65 q 748 -14 851 -14 q 583 19 657 -14 q 465 117 509 51 q 422 284 422 183 l 635 284 q 670 191 636 224 q 759 157 703 157 q 882 306 881 157 l 882 1010 z "},"ĳ":{"ha":756,"x_min":76,"x_max":680,"o":"m 84 0 l 84 758 l 294 758 l 294 0 l 84 0 m 189 855 q 109 887 143 855 q 76 962 76 918 q 109 1037 76 1006 q 189 1068 143 1068 q 270 1037 236 1068 q 303 962 303 1006 q 270 887 303 918 q 189 855 236 855 m 462 758 l 672 758 l 672 -35 q 595 -226 672 -167 q 381 -282 518 -285 q 364 -281 373 -282 q 342 -281 355 -281 l 342 -116 q 357 -117 351 -117 q 370 -117 363 -117 q 441 -96 421 -117 q 462 -32 462 -74 l 462 758 m 566 855 q 486 887 520 855 q 453 962 453 918 q 486 1037 453 1006 q 566 1068 520 1068 q 647 1037 613 1068 q 680 962 680 1006 q 647 887 680 918 q 566 855 613 855 z "},"Ĵ":{"ha":792,"x_min":32,"x_max":875,"o":"m 492 1010 l 703 1010 l 703 306 q 660 136 703 208 q 539 25 616 65 q 359 -14 461 -14 q 193 19 267 -14 q 75 117 119 51 q 33 284 32 183 l 245 284 q 280 191 246 224 q 369 157 314 157 q 492 306 491 157 l 492 1010 z "},"ĵ":{"ha":378,"x_min":-89,"x_max":467,"o":"m 84 758 l 294 758 l 294 -35 q 217 -226 294 -167 q 3 -282 140 -285 q -14 -281 -5 -282 q -36 -281 -23 -281 l -36 -116 q -21 -117 -27 -117 q -8 -117 -14 -117 q 63 -96 43 -117 q 84 -32 84 -74 l 84 758 z "},"Ķ":{"ha":958,"x_min":88,"x_max":939,"o":"m 88 0 l 88 1010 l 301 1010 l 301 565 l 315 565 l 678 1010 l 934 1010 l 559 558 l 939 0 l 683 0 l 406 415 l 301 287 l 301 0 l 88 0 m 318 -323 l 379 -79 l 574 -79 l 466 -323 l 318 -323 z "},"ķ":{"ha":808,"x_min":84,"x_max":803,"o":"m 84 0 l 84 1010 l 294 1010 l 294 470 l 305 470 l 548 758 l 789 758 l 508 430 l 803 0 l 557 0 l 351 305 l 294 241 l 294 0 l 84 0 m 255 -324 l 316 -80 l 510 -80 l 402 -324 l 255 -324 z "},"ĸ":{"ha":932,"x_min":100,"x_max":832,"o":"m 308 734 l 308 463 l 369 463 l 559 734 l 821 734 l 560 380 l 832 0 l 567 0 l 393 265 l 308 265 l 308 0 l 100 0 l 100 734 l 308 734 z "},"Ĺ":{"ha":788,"x_min":88,"x_max":734,"o":"m 88 0 l 88 1010 l 301 1010 l 301 176 l 734 176 l 734 0 l 88 0 m 117 1108 l 222 1332 l 416 1332 l 266 1108 l 117 1108 z "},"ĺ":{"ha":378,"x_min":84,"x_max":412,"o":"m 294 1010 l 294 0 l 84 0 l 84 1010 l 294 1010 m 113 1108 l 218 1332 l 412 1332 l 261 1108 l 113 1108 z "},"Ļ":{"ha":788,"x_min":88,"x_max":734,"o":"m 88 0 l 88 1010 l 301 1010 l 301 176 l 734 176 l 734 0 l 88 0 m 254 -324 l 316 -80 l 510 -80 l 402 -324 l 254 -324 z "},"ļ":{"ha":378,"x_min":32,"x_max":294,"o":"m 294 1010 l 294 0 l 84 0 l 84 1010 l 294 1010 m 32 -324 l 93 -80 l 288 -80 l 180 -324 l 32 -324 z "},"Ľ":{"ha":788,"x_min":88,"x_max":734,"o":"m 88 0 l 88 1010 l 301 1010 l 301 176 l 734 176 l 734 0 l 88 0 m 453 802 l 453 1062 l 611 1062 l 575 802 l 453 802 z "},"ľ":{"ha":522,"x_min":84,"x_max":538,"o":"m 294 1010 l 294 0 l 84 0 l 84 1010 l 294 1010 m 380 802 l 380 1062 l 538 1062 l 502 802 l 380 802 z "},"Ŀ":{"ha":805,"x_min":91,"x_max":738,"o":"m 91 0 l 91 1010 l 305 1010 l 305 176 l 738 176 l 738 0 l 91 0 m 511 506 q 431 537 465 506 q 398 613 398 569 q 431 688 398 656 q 511 719 465 719 q 591 688 558 719 q 625 613 625 656 q 591 537 625 569 q 511 506 558 506 z "},"ŀ":{"ha":572,"x_min":89,"x_max":588,"o":"m 299 1010 l 299 0 l 89 0 l 89 1010 l 299 1010 m 474 448 q 394 480 428 448 q 361 555 361 511 q 394 630 361 599 q 474 661 428 661 q 554 630 521 661 q 588 555 588 599 q 554 480 588 511 q 474 448 521 448 z "},"Ł":{"ha":813,"x_min":20,"x_max":777,"o":"m 477 653 l 477 536 l 344 499 l 344 176 l 777 176 l 777 0 l 130 0 l 130 440 l 20 409 l 20 525 l 130 556 l 130 1010 l 344 1010 l 344 616 l 477 653 z "},"ł":{"ha":378,"x_min":-10,"x_max":388,"o":"m 388 657 l 388 541 l 294 511 l 294 0 l 84 0 l 84 443 l -10 413 l -10 530 l 84 560 l 84 1010 l 294 1010 l 294 627 l 388 657 z "},"Ń":{"ha":1021,"x_min":88,"x_max":933,"o":"m 933 1010 l 933 0 l 748 0 l 309 636 l 301 636 l 301 0 l 88 0 l 88 1010 l 275 1010 l 711 375 l 720 375 l 720 1010 l 933 1010 m 436 1108 l 540 1332 l 734 1332 l 584 1108 l 436 1108 z "},"ń":{"ha":864,"x_min":84,"x_max":782,"o":"m 294 438 l 294 0 l 84 0 l 84 758 l 284 758 l 284 624 l 293 624 q 378 729 319 690 q 521 767 436 767 q 711 691 639 767 q 782 482 782 615 l 782 0 l 572 0 l 572 445 q 537 554 573 514 q 437 593 501 593 q 334 552 374 593 q 294 438 294 511 m 357 855 l 462 1080 l 656 1080 l 506 855 l 357 855 z "},"Ņ":{"ha":1021,"x_min":88,"x_max":933,"o":"m 933 1010 l 933 0 l 748 0 l 309 636 l 301 636 l 301 0 l 88 0 l 88 1010 l 275 1010 l 711 375 l 720 375 l 720 1010 l 933 1010 m 354 -324 l 415 -80 l 610 -80 l 502 -324 l 354 -324 z "},"ņ":{"ha":864,"x_min":84,"x_max":782,"o":"m 294 438 l 294 0 l 84 0 l 84 758 l 284 758 l 284 624 l 293 624 q 378 729 319 690 q 521 767 436 767 q 711 691 639 767 q 782 482 782 615 l 782 0 l 572 0 l 572 445 q 537 554 573 514 q 437 593 501 593 q 334 552 374 593 q 294 438 294 511 m 276 -324 l 337 -80 l 531 -80 l 423 -324 l 276 -324 z "},"Ň":{"ha":1021,"x_min":88,"x_max":933,"o":"m 933 1010 l 933 0 l 748 0 l 309 636 l 301 636 l 301 0 l 88 0 l 88 1010 l 275 1010 l 711 375 l 720 375 l 720 1010 l 933 1010 m 412 1325 l 511 1204 l 610 1325 l 789 1325 l 789 1318 l 589 1101 l 433 1101 l 233 1318 l 233 1325 l 412 1325 z "},"ň":{"ha":864,"x_min":84,"x_max":782,"o":"m 294 438 l 294 0 l 84 0 l 84 758 l 284 758 l 284 624 l 293 624 q 378 729 319 690 q 521 767 436 767 q 711 691 639 767 q 782 482 782 615 l 782 0 l 572 0 l 572 445 q 537 554 573 514 q 437 593 501 593 q 334 552 374 593 q 294 438 294 511 m 333 1072 l 433 952 l 532 1072 l 711 1072 l 711 1065 l 510 848 l 354 848 l 154 1065 l 154 1072 l 333 1072 z "},"Ŋ":{"ha":1021,"x_min":88,"x_max":933,"o":"m 748 0 l 309 636 l 301 636 l 301 0 l 88 0 l 88 1010 l 275 1010 l 711 375 l 720 375 l 720 1010 l 933 1010 l 933 -40 q 896 -193 933 -137 q 792 -275 859 -250 q 636 -299 725 -299 q 597 -297 618 -299 q 559 -289 577 -294 l 559 -130 q 632 -138 591 -138 q 716 -115 684 -138 q 748 -43 748 -92 l 748 0 z "},"ŋ":{"ha":877,"x_min":84,"x_max":782,"o":"m 294 438 l 294 0 l 84 0 l 84 758 l 284 758 l 284 624 l 293 624 q 378 729 319 690 q 521 767 436 767 q 711 691 639 767 q 782 482 782 615 l 782 -42 q 708 -230 782 -167 q 511 -293 633 -293 q 458 -292 484 -293 q 405 -285 432 -291 l 419 -114 q 449 -120 434 -118 q 482 -122 464 -122 q 548 -103 524 -122 q 572 -42 572 -84 l 572 445 q 537 554 573 514 q 437 593 501 593 q 334 552 374 593 q 294 438 294 511 z "},"Ō":{"ha":1086,"x_min":70,"x_max":1016,"o":"m 1016 505 q 954 224 1016 340 q 784 47 891 108 q 543 -14 677 -14 q 301 47 408 -14 q 132 225 194 109 q 70 505 70 341 q 132 786 70 670 q 301 963 194 902 q 543 1024 408 1024 q 784 963 677 1024 q 954 786 891 902 q 1016 505 1016 670 m 799 505 q 729 750 799 666 q 543 835 659 835 q 357 750 427 835 q 287 505 287 666 q 357 260 287 345 q 543 175 427 175 q 729 260 659 175 q 799 505 799 345 m 783 1263 l 783 1149 l 303 1149 l 303 1263 l 783 1263 z "},"ō":{"ha":852,"x_min":53,"x_max":799,"o":"m 426 -15 q 228 34 311 -15 q 99 171 144 83 q 53 376 53 259 q 99 581 53 493 q 228 718 144 669 q 426 767 311 767 q 625 718 541 767 q 754 581 708 669 q 799 376 799 493 q 754 171 799 259 q 625 34 708 83 q 426 -15 541 -15 m 427 148 q 545 213 505 148 q 585 377 585 278 q 545 542 585 476 q 427 607 505 607 q 307 542 348 607 q 267 377 267 476 q 307 213 267 278 q 427 148 348 148 m 666 1010 l 666 896 l 186 896 l 186 1010 l 666 1010 z "},"Ŏ":{"ha":1086,"x_min":70,"x_max":1016,"o":"m 1016 505 q 954 224 1016 340 q 784 47 891 108 q 543 -14 677 -14 q 301 47 408 -14 q 132 225 194 109 q 70 505 70 341 q 132 786 70 670 q 301 963 194 902 q 543 1024 408 1024 q 784 963 677 1024 q 954 786 891 902 q 1016 505 1016 670 m 799 505 q 729 750 799 666 q 543 835 659 835 q 357 750 427 835 q 287 505 287 666 q 357 260 287 345 q 543 175 427 175 q 729 260 659 175 q 799 505 799 345 m 641 1274 l 787 1274 q 721 1130 787 1185 q 543 1075 655 1075 q 365 1130 431 1075 q 299 1274 299 1185 l 445 1274 q 467 1213 444 1240 q 543 1186 489 1186 q 618 1213 596 1186 q 641 1274 641 1240 z "},"ŏ":{"ha":852,"x_min":53,"x_max":799,"o":"m 426 -15 q 228 34 311 -15 q 99 171 144 83 q 53 376 53 259 q 99 581 53 493 q 228 718 144 669 q 426 767 311 767 q 625 718 541 767 q 754 581 708 669 q 799 376 799 493 q 754 171 799 259 q 625 34 708 83 q 426 -15 541 -15 m 427 148 q 545 213 505 148 q 585 377 585 278 q 545 542 585 476 q 427 607 505 607 q 307 542 348 607 q 267 377 267 476 q 307 213 267 278 q 427 148 348 148 m 524 1022 l 670 1022 q 604 878 670 933 q 426 823 538 823 q 248 878 314 823 q 182 1022 182 933 l 328 1022 q 350 961 327 988 q 426 934 372 934 q 501 961 479 934 q 524 1022 524 987 z "},"Ő":{"ha":1086,"x_min":70,"x_max":1016,"o":"m 1016 505 q 954 224 1016 340 q 784 47 891 108 q 543 -14 677 -14 q 301 47 408 -14 q 132 225 194 109 q 70 505 70 341 q 132 786 70 670 q 301 963 194 902 q 543 1024 408 1024 q 784 963 677 1024 q 954 786 891 902 q 1016 505 1016 670 m 799 505 q 729 750 799 666 q 543 835 659 835 q 357 750 427 835 q 287 505 287 666 q 357 260 287 345 q 543 175 427 175 q 729 260 659 175 q 799 505 799 345 m 580 1098 l 736 1302 l 914 1302 l 728 1098 l 580 1098 m 327 1098 l 459 1302 l 635 1302 l 474 1098 l 327 1098 z "},"ő":{"ha":852,"x_min":53,"x_max":799,"o":"m 426 -15 q 228 34 311 -15 q 99 171 144 83 q 53 376 53 259 q 99 581 53 493 q 228 718 144 669 q 426 767 311 767 q 625 718 541 767 q 754 581 708 669 q 799 376 799 493 q 754 171 799 259 q 625 34 708 83 q 426 -15 541 -15 m 427 148 q 545 213 505 148 q 585 377 585 278 q 545 542 585 476 q 427 607 505 607 q 307 542 348 607 q 267 377 267 476 q 307 213 267 278 q 427 148 348 148 m 463 845 l 619 1050 l 797 1050 l 612 845 l 463 845 m 210 845 l 342 1050 l 518 1050 l 357 845 l 210 845 z "},"Œ":{"ha":1414,"x_min":70,"x_max":1334,"o":"m 529 0 q 293 58 398 0 q 130 228 189 116 q 70 504 70 341 q 130 781 70 668 q 293 952 189 894 q 529 1010 398 1010 l 1332 1010 l 1332 834 l 865 834 l 865 593 l 1297 593 l 1297 417 l 865 417 l 865 176 l 1334 176 l 1334 0 l 529 0 m 651 176 l 651 834 l 529 834 q 352 755 421 834 q 284 504 284 675 q 352 254 284 332 q 529 176 421 176 l 651 176 z "},"œ":{"ha":1356,"x_min":56,"x_max":1322,"o":"m 429 -15 q 230 34 314 -15 q 101 171 146 83 q 56 376 56 259 q 101 581 56 493 q 230 718 146 669 q 429 767 314 767 q 627 718 544 767 q 756 581 711 669 q 801 376 801 493 q 756 171 801 259 q 627 34 711 83 q 429 -15 544 -15 m 430 148 q 548 213 508 148 q 588 377 588 278 q 548 542 588 476 q 430 607 508 607 q 310 542 350 607 q 269 377 269 476 q 310 213 269 278 q 430 148 350 148 m 975 -15 q 774 33 858 -15 q 644 168 690 80 q 599 375 599 255 q 644 581 599 492 q 772 718 690 669 q 966 767 855 767 q 1147 725 1066 767 q 1275 597 1228 683 q 1322 383 1322 511 l 1322 325 l 806 325 l 806 325 q 853 191 806 240 q 978 142 899 142 q 1069 164 1031 142 q 1124 230 1108 186 l 1318 217 q 1205 48 1296 111 q 975 -15 1115 -15 m 806 455 l 1125 455 q 1081 567 1124 523 q 970 611 1038 611 q 855 565 900 611 q 806 455 810 520 z "},"Ŕ":{"ha":911,"x_min":88,"x_max":884,"o":"m 88 0 l 88 1010 l 486 1010 q 753 920 658 1010 q 848 680 848 831 q 802 503 848 577 q 670 393 756 430 l 884 0 l 649 0 l 457 358 l 301 358 l 301 0 l 88 0 m 301 530 l 446 530 q 628 680 628 530 q 445 836 628 836 l 301 836 l 301 530 m 374 1108 l 479 1332 l 673 1332 l 523 1108 l 374 1108 z "},"ŕ":{"ha":568,"x_min":84,"x_max":544,"o":"m 84 0 l 84 758 l 288 758 l 288 625 l 295 625 q 365 732 316 696 q 477 768 414 768 q 544 761 512 768 l 544 575 q 503 583 529 580 q 455 586 476 586 q 340 542 385 586 q 294 429 294 499 l 294 0 l 84 0 m 235 855 l 340 1080 l 534 1080 l 384 855 l 235 855 z "},"Ŗ":{"ha":911,"x_min":88,"x_max":884,"o":"m 88 0 l 88 1010 l 486 1010 q 753 920 658 1010 q 848 680 848 831 q 802 503 848 577 q 670 393 756 430 l 884 0 l 649 0 l 457 358 l 301 358 l 301 0 l 88 0 m 301 530 l 446 530 q 628 680 628 530 q 445 836 628 836 l 301 836 l 301 530 m 310 -324 l 371 -80 l 565 -80 l 457 -324 l 310 -324 z "},"ŗ":{"ha":568,"x_min":33,"x_max":544,"o":"m 84 0 l 84 758 l 288 758 l 288 625 l 295 625 q 365 732 316 696 q 477 768 414 768 q 544 761 512 768 l 544 575 q 503 583 529 580 q 455 586 476 586 q 340 542 385 586 q 294 429 294 499 l 294 0 l 84 0 m 33 -324 l 94 -80 l 289 -80 l 181 -324 l 33 -324 z "},"Ř":{"ha":911,"x_min":88,"x_max":884,"o":"m 88 0 l 88 1010 l 486 1010 q 753 920 658 1010 q 848 680 848 831 q 802 503 848 577 q 670 393 756 430 l 884 0 l 649 0 l 457 358 l 301 358 l 301 0 l 88 0 m 301 530 l 446 530 q 628 680 628 530 q 445 836 628 836 l 301 836 l 301 530 m 351 1325 l 450 1204 l 549 1325 l 728 1325 l 728 1318 l 528 1101 l 371 1101 l 172 1318 l 172 1325 l 351 1325 z "},"ř":{"ha":568,"x_min":33,"x_max":589,"o":"m 84 0 l 84 758 l 288 758 l 288 625 l 295 625 q 365 732 316 696 q 477 768 414 768 q 544 761 512 768 l 544 575 q 503 583 529 580 q 455 586 476 586 q 340 542 385 586 q 294 429 294 499 l 294 0 l 84 0 m 212 1072 l 311 952 l 410 1072 l 589 1072 l 589 1065 l 389 848 l 233 848 l 33 1065 l 33 1072 l 212 1072 z "},"Ś":{"ha":909,"x_min":55,"x_max":854,"o":"m 636 720 q 585 812 630 779 q 463 845 540 845 q 343 813 385 845 q 301 732 301 781 q 347 650 300 678 q 461 607 395 622 l 551 585 q 708 528 639 566 q 815 432 776 491 q 854 289 854 373 q 750 68 854 150 q 462 -14 647 -14 q 169 70 278 -14 q 55 317 59 153 l 262 317 q 322 203 267 241 q 460 165 376 165 q 590 199 541 165 q 639 289 638 234 q 594 368 638 340 q 467 415 549 396 l 357 443 q 155 540 229 473 q 82 718 81 607 q 131 879 81 810 q 267 986 181 947 q 465 1024 354 1024 q 661 985 577 1024 q 792 878 745 947 q 840 720 839 810 l 636 720 m 379 1108 l 484 1332 l 678 1332 l 528 1108 l 379 1108 z "},"ś":{"ha":780,"x_min":50,"x_max":731,"o":"m 714 542 l 522 530 q 482 592 514 566 q 395 618 450 618 q 312 598 346 618 q 279 544 279 578 q 301 498 279 516 q 375 468 323 479 l 512 440 q 731 235 731 395 q 688 104 731 160 q 568 17 644 48 q 394 -15 492 -15 q 154 48 244 -15 q 50 219 65 111 l 257 230 q 303 160 267 184 q 395 137 338 137 q 484 158 450 137 q 518 214 517 180 q 421 289 516 270 l 290 315 q 71 532 70 359 q 158 704 70 641 q 392 767 246 767 q 618 707 535 767 q 714 542 700 646 m 321 855 l 425 1080 l 619 1080 l 469 855 l 321 855 z "},"Ŝ":{"ha":909,"x_min":55,"x_max":854,"o":"m 636 720 q 585 812 630 779 q 463 845 540 845 q 343 813 385 845 q 301 732 301 781 q 347 650 300 678 q 461 607 395 622 l 551 585 q 708 528 639 566 q 815 432 776 491 q 854 289 854 373 q 750 68 854 150 q 462 -14 647 -14 q 169 70 278 -14 q 55 317 59 153 l 262 317 q 322 203 267 241 q 460 165 376 165 q 590 199 541 165 q 639 289 638 234 q 594 368 638 340 q 467 415 549 396 l 357 443 q 155 540 229 473 q 82 718 81 607 q 131 879 81 810 q 267 986 181 947 q 465 1024 354 1024 q 661 985 577 1024 q 792 878 745 947 q 840 720 839 810 l 636 720 z "},"ŝ":{"ha":780,"x_min":50,"x_max":731,"o":"m 714 542 l 522 530 q 482 592 514 566 q 395 618 450 618 q 312 598 346 618 q 279 544 279 578 q 301 498 279 516 q 375 468 323 479 l 512 440 q 731 235 731 395 q 688 104 731 160 q 568 17 644 48 q 394 -15 492 -15 q 154 48 244 -15 q 50 219 65 111 l 257 230 q 303 160 267 184 q 395 137 338 137 q 484 158 450 137 q 518 214 517 180 q 421 289 516 270 l 290 315 q 71 532 70 359 q 158 704 70 641 q 392 767 246 767 q 618 707 535 767 q 714 542 700 646 z "},"Ş":{"ha":909,"x_min":55,"x_max":854,"o":"m 636 720 q 585 812 630 779 q 463 845 540 845 q 343 813 385 845 q 301 732 301 781 q 347 650 300 678 q 461 607 395 622 l 551 585 q 708 528 639 566 q 815 432 776 491 q 854 289 854 373 q 750 68 854 150 q 462 -14 647 -14 q 169 70 278 -14 q 55 317 59 153 l 262 317 q 322 203 267 241 q 460 165 376 165 q 590 199 541 165 q 639 289 638 234 q 594 368 638 340 q 467 415 549 396 l 357 443 q 155 540 229 473 q 82 718 81 607 q 131 879 81 810 q 267 986 181 947 q 465 1024 354 1024 q 661 985 577 1024 q 792 878 745 947 q 840 720 839 810 l 636 720 m 408 4 l 505 4 l 497 -39 q 580 -77 547 -47 q 613 -159 612 -107 q 545 -276 613 -232 q 352 -320 476 -320 l 350 -226 q 448 -211 412 -226 q 484 -164 483 -196 q 461 -118 485 -134 q 386 -96 437 -103 l 408 4 z "},"ş":{"ha":780,"x_min":50,"x_max":731,"o":"m 714 542 l 522 530 q 482 592 514 566 q 395 618 450 618 q 312 598 346 618 q 279 544 279 578 q 301 498 279 516 q 375 468 323 479 l 512 440 q 731 235 731 395 q 688 104 731 160 q 568 17 644 48 q 394 -15 492 -15 q 154 48 244 -15 q 50 219 65 111 l 257 230 q 303 160 267 184 q 395 137 338 137 q 484 158 450 137 q 518 214 517 180 q 421 289 516 270 l 290 315 q 71 532 70 359 q 158 704 70 641 q 392 767 246 767 q 618 707 535 767 q 714 542 700 646 m 348 4 l 445 4 l 437 -39 q 520 -77 488 -47 q 553 -159 552 -107 q 485 -276 553 -232 q 292 -320 416 -320 l 291 -226 q 388 -211 353 -226 q 425 -164 424 -196 q 401 -118 426 -134 q 326 -96 377 -103 l 348 4 z "},"Š":{"ha":909,"x_min":55,"x_max":854,"o":"m 636 720 q 585 812 630 779 q 463 845 540 845 q 343 813 385 845 q 301 732 301 781 q 347 650 300 678 q 461 607 395 622 l 551 585 q 708 528 639 566 q 815 432 776 491 q 854 289 854 373 q 750 68 854 150 q 462 -14 647 -14 q 169 70 278 -14 q 55 317 59 153 l 262 317 q 322 203 267 241 q 460 165 376 165 q 590 199 541 165 q 639 289 638 234 q 594 368 638 340 q 467 415 549 396 l 357 443 q 155 540 229 473 q 82 718 81 607 q 131 879 81 810 q 267 986 181 947 q 465 1024 354 1024 q 661 985 577 1024 q 792 878 745 947 q 840 720 839 810 l 636 720 m 356 1325 l 455 1204 l 554 1325 l 733 1325 l 733 1318 l 533 1101 l 377 1101 l 177 1318 l 177 1325 l 356 1325 z "},"š":{"ha":780,"x_min":50,"x_max":731,"o":"m 714 542 l 522 530 q 482 592 514 566 q 395 618 450 618 q 312 598 346 618 q 279 544 279 578 q 301 498 279 516 q 375 468 323 479 l 512 440 q 731 235 731 395 q 688 104 731 160 q 568 17 644 48 q 394 -15 492 -15 q 154 48 244 -15 q 50 219 65 111 l 257 230 q 303 160 267 184 q 395 137 338 137 q 484 158 450 137 q 518 214 517 180 q 421 289 516 270 l 290 315 q 71 532 70 359 q 158 704 70 641 q 392 767 246 767 q 618 707 535 767 q 714 542 700 646 m 297 1072 l 396 952 l 495 1072 l 674 1072 l 674 1065 l 474 848 l 318 848 l 118 1065 l 118 1072 l 297 1072 z "},"Ţ":{"ha":928,"x_min":49,"x_max":879,"o":"m 49 834 l 49 1010 l 879 1010 l 879 834 l 570 834 l 570 0 l 359 0 l 359 834 l 49 834 m 419 4 l 515 4 l 508 -39 q 591 -77 558 -47 q 623 -159 623 -107 q 555 -276 624 -232 q 363 -320 487 -320 l 361 -226 q 459 -211 423 -226 q 495 -164 494 -196 q 472 -118 496 -134 q 397 -96 448 -103 l 419 4 z "},"ţ":{"ha":540,"x_min":31,"x_max":524,"o":"m 487 758 l 487 600 l 344 600 l 344 233 q 364 174 344 189 q 415 159 384 159 q 445 162 430 159 q 468 166 460 164 l 501 9 q 456 -2 485 4 q 387 -10 428 -9 q 203 39 272 -15 q 134 205 134 94 l 134 600 l 31 600 l 31 758 l 134 758 l 134 939 l 344 939 l 344 758 l 487 758 m 319 4 l 415 4 l 407 -39 q 491 -77 458 -47 q 523 -159 523 -107 q 455 -276 524 -232 q 263 -320 387 -320 l 261 -226 q 359 -211 323 -226 q 395 -164 394 -196 q 372 -118 396 -134 q 296 -96 348 -103 l 319 4 z "},"Ť":{"ha":928,"x_min":49,"x_max":879,"o":"m 49 834 l 49 1010 l 879 1010 l 879 834 l 570 834 l 570 0 l 359 0 l 359 834 l 49 834 m 366 1325 l 465 1204 l 564 1325 l 743 1325 l 743 1318 l 543 1101 l 387 1101 l 187 1318 l 187 1325 l 366 1325 z "},"ť":{"ha":590,"x_min":31,"x_max":588,"o":"m 487 758 l 487 600 l 344 600 l 344 233 q 364 174 344 189 q 415 159 384 159 q 445 162 430 159 q 468 166 460 164 l 501 9 q 456 -2 485 4 q 387 -10 428 -9 q 203 39 272 -15 q 134 205 134 94 l 134 600 l 31 600 l 31 758 l 134 758 l 134 939 l 344 939 l 344 758 l 487 758 m 430 851 l 430 1112 l 588 1112 l 552 851 l 430 851 z "},"Ŧ":{"ha":928,"x_min":49,"x_max":879,"o":"m 49 834 l 49 1010 l 879 1010 l 879 834 l 570 834 l 570 0 l 359 0 l 359 834 l 49 834 m 217 421 l 217 545 l 709 545 l 709 421 l 217 421 z "},"ŧ":{"ha":540,"x_min":31,"x_max":501,"o":"m 31 380 l 31 480 l 134 480 l 134 600 l 31 600 l 31 758 l 134 758 l 134 939 l 344 939 l 344 758 l 487 758 l 487 600 l 344 600 l 344 480 l 487 480 l 487 380 l 344 380 l 344 233 q 364 174 344 189 q 415 159 384 159 q 445 162 430 159 q 468 166 460 164 l 501 9 q 456 -2 485 4 q 387 -10 428 -9 q 203 39 272 -15 q 134 205 134 94 l 134 380 l 31 380 z "},"Ũ":{"ha":1013,"x_min":88,"x_max":925,"o":"m 713 1010 l 925 1010 l 925 342 q 872 148 925 228 q 723 27 818 69 q 507 -14 629 -14 q 290 27 384 -14 q 141 148 195 69 q 88 342 88 228 l 88 1010 l 301 1010 l 301 350 q 360 222 301 269 q 507 176 418 176 q 655 222 596 176 q 713 350 713 269 l 713 1010 m 365 1103 l 249 1105 q 295 1249 249 1199 q 409 1300 342 1300 q 474 1286 447 1300 q 523 1257 501 1272 q 556 1235 540 1244 q 591 1226 572 1226 q 634 1248 619 1227 q 650 1303 649 1269 l 764 1299 q 718 1155 764 1205 q 604 1104 671 1105 q 537 1118 563 1104 q 490 1148 510 1132 q 458 1169 473 1160 q 422 1178 442 1178 q 381 1158 397 1178 q 365 1103 365 1138 z "},"ũ":{"ha":864,"x_min":84,"x_max":780,"o":"m 570 323 l 570 758 l 780 758 l 780 0 l 578 0 l 578 138 l 570 138 q 485 31 545 71 q 340 -10 426 -10 q 155 66 226 -10 q 84 275 84 143 l 84 758 l 294 758 l 294 313 q 330 207 294 246 q 425 168 365 168 q 526 207 482 168 q 570 323 570 247 m 292 851 l 175 852 q 222 997 175 946 q 335 1048 268 1047 q 400 1034 374 1048 q 449 1004 427 1019 q 483 983 467 992 q 517 974 499 974 q 561 995 546 974 q 576 1050 576 1016 l 691 1047 q 644 903 690 953 q 531 852 598 852 q 463 866 489 852 q 416 895 437 880 q 384 917 400 908 q 349 926 368 926 q 308 906 323 926 q 292 851 292 885 z "},"Ū":{"ha":1013,"x_min":88,"x_max":925,"o":"m 713 1010 l 925 1010 l 925 342 q 872 148 925 228 q 723 27 818 69 q 507 -14 629 -14 q 290 27 384 -14 q 141 148 195 69 q 88 342 88 228 l 88 1010 l 301 1010 l 301 350 q 360 222 301 269 q 507 176 418 176 q 655 222 596 176 q 713 350 713 269 l 713 1010 m 747 1263 l 747 1149 l 266 1149 l 266 1263 l 747 1263 z "},"ū":{"ha":864,"x_min":84,"x_max":780,"o":"m 570 323 l 570 758 l 780 758 l 780 0 l 578 0 l 578 138 l 570 138 q 485 31 545 71 q 340 -10 426 -10 q 155 66 226 -10 q 84 275 84 143 l 84 758 l 294 758 l 294 313 q 330 207 294 246 q 425 168 365 168 q 526 207 482 168 q 570 323 570 247 m 673 1010 l 673 896 l 192 896 l 192 1010 l 673 1010 z "},"Ŭ":{"ha":1013,"x_min":88,"x_max":925,"o":"m 713 1010 l 925 1010 l 925 342 q 872 148 925 228 q 723 27 818 69 q 507 -14 629 -14 q 290 27 384 -14 q 141 148 195 69 q 88 342 88 228 l 88 1010 l 301 1010 l 301 350 q 360 222 301 269 q 507 176 418 176 q 655 222 596 176 q 713 350 713 269 l 713 1010 m 604 1274 l 751 1274 q 684 1130 750 1185 q 507 1075 618 1075 q 329 1130 395 1075 q 263 1274 263 1185 l 408 1274 q 430 1213 408 1240 q 507 1186 453 1186 q 582 1213 559 1186 q 604 1274 604 1240 z "},"ŭ":{"ha":864,"x_min":84,"x_max":780,"o":"m 570 323 l 570 758 l 780 758 l 780 0 l 578 0 l 578 138 l 570 138 q 485 31 545 71 q 340 -10 426 -10 q 155 66 226 -10 q 84 275 84 143 l 84 758 l 294 758 l 294 313 q 330 207 294 246 q 425 168 365 168 q 526 207 482 168 q 570 323 570 247 m 531 1022 l 677 1022 q 611 878 677 933 q 433 823 545 823 q 255 878 321 823 q 189 1022 189 933 l 335 1022 q 357 961 334 988 q 433 934 379 934 q 508 961 486 934 q 531 1022 531 987 z "},"Ů":{"ha":1013,"x_min":88,"x_max":925,"o":"m 713 1010 l 925 1010 l 925 342 q 872 148 925 228 q 723 27 818 69 q 507 -14 629 -14 q 290 27 384 -14 q 141 148 195 69 q 88 342 88 228 l 88 1010 l 301 1010 l 301 350 q 360 222 301 269 q 507 176 418 176 q 655 222 596 176 q 713 350 713 269 l 713 1010 m 507 1064 q 426 1085 462 1064 q 368 1140 390 1105 q 346 1217 346 1175 q 368 1294 346 1259 q 426 1349 390 1328 q 507 1370 462 1370 q 587 1349 551 1370 q 645 1294 623 1328 q 667 1217 667 1259 q 645 1140 667 1175 q 587 1085 623 1105 q 507 1064 551 1064 m 507 1150 q 556 1170 536 1150 q 577 1217 577 1189 q 556 1264 577 1244 q 507 1284 536 1284 q 457 1264 478 1284 q 436 1217 436 1244 q 457 1169 436 1189 q 507 1150 477 1150 z "},"ů":{"ha":864,"x_min":84,"x_max":780,"o":"m 570 323 l 570 758 l 780 758 l 780 0 l 578 0 l 578 138 l 570 138 q 485 31 545 71 q 340 -10 426 -10 q 155 66 226 -10 q 84 275 84 143 l 84 758 l 294 758 l 294 313 q 330 207 294 246 q 425 168 365 168 q 526 207 482 168 q 570 323 570 247 m 433 839 q 348 861 386 839 q 287 919 309 882 q 264 1001 264 956 q 287 1083 264 1046 q 348 1143 309 1120 q 433 1165 386 1165 q 518 1143 480 1165 q 579 1083 556 1120 q 601 1001 601 1046 q 579 919 601 956 q 518 861 556 882 q 433 839 480 839 m 433 927 q 488 949 466 927 q 510 1001 510 972 q 488 1054 510 1031 q 433 1076 466 1076 q 378 1053 400 1076 q 356 1001 356 1031 q 378 949 356 972 q 433 927 400 927 z "},"Ű":{"ha":1013,"x_min":88,"x_max":925,"o":"m 713 1010 l 925 1010 l 925 342 q 872 148 925 228 q 723 27 818 69 q 507 -14 629 -14 q 290 27 384 -14 q 141 148 195 69 q 88 342 88 228 l 88 1010 l 301 1010 l 301 350 q 360 222 301 269 q 507 176 418 176 q 655 222 596 176 q 713 350 713 269 l 713 1010 m 544 1098 l 700 1302 l 877 1302 l 692 1098 l 544 1098 m 291 1098 l 422 1302 l 599 1302 l 437 1098 l 291 1098 z "},"ű":{"ha":864,"x_min":84,"x_max":803,"o":"m 570 323 l 570 758 l 780 758 l 780 0 l 578 0 l 578 138 l 570 138 q 485 31 545 71 q 340 -10 426 -10 q 155 66 226 -10 q 84 275 84 143 l 84 758 l 294 758 l 294 313 q 330 207 294 246 q 425 168 365 168 q 526 207 482 168 q 570 323 570 247 m 470 845 l 626 1050 l 803 1050 l 618 845 l 470 845 m 217 845 l 348 1050 l 525 1050 l 363 845 l 217 845 z "},"Ų":{"ha":1013,"x_min":88,"x_max":925,"o":"m 713 1010 l 925 1010 l 925 342 q 872 148 925 228 q 723 27 818 69 q 507 -14 629 -14 q 290 27 384 -14 q 141 148 195 69 q 88 342 88 228 l 88 1010 l 301 1010 l 301 350 q 360 222 301 269 q 507 176 418 176 q 655 222 596 176 q 713 350 713 269 l 713 1010 m 539 -282 q 429 -248 473 -282 q 374 -152 385 -215 q 388 -32 362 -92 q 479 58 414 29 l 635 1 q 559 -46 589 -21 q 530 -107 530 -71 q 578 -156 529 -156 q 607 -152 595 -156 q 630 -144 620 -147 l 652 -253 q 605 -273 633 -263 q 539 -282 577 -282 z "},"ų":{"ha":864,"x_min":84,"x_max":796,"o":"m 570 323 l 570 758 l 780 758 l 780 0 l 578 0 l 578 138 l 570 138 q 485 31 545 71 q 340 -10 426 -10 q 155 66 226 -10 q 84 275 84 143 l 84 758 l 294 758 l 294 313 q 330 207 294 246 q 425 168 365 168 q 526 207 482 168 q 570 323 570 247 m 684 -283 q 574 -249 618 -283 q 518 -153 530 -216 q 532 -33 507 -93 q 623 57 558 28 l 780 0 q 704 -47 733 -22 q 675 -108 674 -72 q 723 -157 674 -157 q 752 -153 739 -157 q 774 -145 764 -148 l 796 -254 q 750 -273 778 -264 q 684 -283 722 -283 z "},"Ŵ":{"ha":1439,"x_min":26,"x_max":1413,"o":"m 315 0 l 26 1010 l 259 1010 l 427 308 l 435 308 l 619 1010 l 819 1010 l 1003 307 l 1012 307 l 1179 1010 l 1413 1010 l 1124 0 l 915 0 l 723 660 l 715 660 l 523 0 l 315 0 z "},"ŵ":{"ha":1181,"x_min":27,"x_max":1153,"o":"m 233 0 l 27 758 l 240 758 l 357 249 l 364 249 l 486 758 l 695 758 l 819 252 l 826 252 l 941 758 l 1153 758 l 947 0 l 725 0 l 595 476 l 585 476 l 455 0 l 233 0 z "},"Ŷ":{"ha":1006,"x_min":29,"x_max":978,"o":"m 29 1010 l 268 1010 l 498 575 l 508 575 l 738 1010 l 978 1010 l 609 357 l 609 0 l 397 0 l 397 357 l 29 1010 z "},"ŷ":{"ha":814,"x_min":24,"x_max":790,"o":"m 214 -283 q 139 -277 174 -283 q 81 -261 104 -271 l 129 -104 q 223 -113 184 -121 q 283 -54 261 -105 l 295 -22 l 24 758 l 245 758 l 401 201 l 409 201 l 568 758 l 790 757 l 496 -82 q 398 -228 464 -173 q 214 -283 331 -283 z "},"Ÿ":{"ha":1006,"x_min":29,"x_max":978,"o":"m 29 1010 l 268 1010 l 498 575 l 508 575 l 738 1010 l 978 1010 l 609 357 l 609 0 l 397 0 l 397 357 l 29 1010 z "},"Ź":{"ha":926,"x_min":76,"x_max":850,"o":"m 77 0 l 77 127 l 581 834 l 76 834 l 76 1010 l 849 1010 l 849 883 l 345 176 l 850 176 l 850 0 l 77 0 m 389 1108 l 494 1332 l 688 1332 l 538 1108 l 389 1108 z "},"ź":{"ha":794,"x_min":80,"x_max":717,"o":"m 80 0 l 80 125 l 451 584 l 451 590 l 93 590 l 93 758 l 704 758 l 704 621 l 356 173 l 356 168 l 717 168 l 717 0 l 80 0 m 321 855 l 425 1080 l 619 1080 l 469 855 l 321 855 z "},"Ż":{"ha":926,"x_min":76,"x_max":850,"o":"m 77 0 l 77 127 l 581 834 l 76 834 l 76 1010 l 849 1010 l 849 883 l 345 176 l 850 176 l 850 0 l 77 0 m 465 1108 q 385 1139 418 1108 q 351 1214 351 1170 q 385 1289 351 1258 q 465 1320 418 1320 q 545 1289 511 1320 q 579 1214 579 1258 q 545 1139 579 1170 q 465 1108 511 1108 z "},"ż":{"ha":794,"x_min":80,"x_max":717,"o":"m 80 0 l 80 125 l 451 584 l 451 590 l 93 590 l 93 758 l 704 758 l 704 621 l 356 173 l 356 168 l 717 168 l 717 0 l 80 0 m 396 855 q 316 887 350 855 q 283 962 283 918 q 316 1037 283 1006 q 396 1068 350 1068 q 476 1037 443 1068 q 510 962 510 1006 q 476 887 510 918 q 396 855 443 855 z "},"Ž":{"ha":926,"x_min":76,"x_max":850,"o":"m 77 0 l 77 127 l 581 834 l 76 834 l 76 1010 l 849 1010 l 849 883 l 345 176 l 850 176 l 850 0 l 77 0 m 366 1325 l 465 1204 l 564 1325 l 743 1325 l 743 1318 l 543 1101 l 387 1101 l 187 1318 l 187 1325 l 366 1325 z "},"ž":{"ha":794,"x_min":80,"x_max":717,"o":"m 80 0 l 80 125 l 451 584 l 451 590 l 93 590 l 93 758 l 704 758 l 704 621 l 356 173 l 356 168 l 717 168 l 717 0 l 80 0 m 297 1072 l 396 952 l 495 1072 l 674 1072 l 674 1065 l 474 848 l 318 848 l 118 1065 l 118 1072 l 297 1072 z "},"ſ":{"ha":401,"x_min":4,"x_max":398,"o":"m 213 0 l 4 0 l 4 796 q 78 989 4 923 q 287 1055 153 1055 q 341 1052 314 1055 q 398 1042 369 1048 l 382 884 q 352 889 366 887 q 314 890 337 890 q 213 796 213 890 l 213 0 z "},"ƀ":{"ha":882,"x_min":-55,"x_max":827,"o":"m 88 0 l 88 1010 l 298 1010 l 298 630 l 304 630 q 345 693 319 661 q 414 746 371 725 q 520 767 457 767 q 673 724 603 767 q 784 595 742 681 q 827 378 827 508 q 786 164 827 251 q 675 32 745 77 q 519 -12 606 -12 q 416 8 458 -12 q 346 59 373 28 q 304 121 319 90 l 295 121 l 295 0 l 88 0 m 293 379 q 335 216 293 278 q 453 155 377 155 q 571 217 530 155 q 612 379 612 280 q 571 539 612 477 q 453 600 531 600 q 335 540 376 600 q 293 379 293 480 m -55 809 l -55 933 l 437 933 l 437 809 l -55 809 z "},"Ɓ":{"ha":1203,"x_min":49,"x_max":1153,"o":"m 373 0 l 373 836 l 339 836 q 276 817 298 836 q 247 769 255 798 q 240 709 239 740 l 240 651 l 49 651 l 49 750 q 126 940 49 869 q 338 1010 204 1010 l 778 1010 q 1029 937 945 1010 q 1113 751 1113 865 q 1061 607 1113 662 q 931 534 1010 552 l 931 524 q 1039 492 988 522 q 1121 408 1090 462 q 1153 279 1153 354 q 1113 136 1153 199 q 996 36 1073 73 q 805 0 918 0 l 373 0 m 587 175 l 761 175 q 891 209 851 175 q 932 300 932 244 q 888 403 932 363 q 766 443 843 443 l 587 443 l 587 175 m 587 587 l 745 587 q 854 622 811 587 q 898 716 898 656 q 859 804 898 770 q 749 837 820 837 l 587 837 l 587 587 z "},"Ƃ":{"ha":910,"x_min":88,"x_max":854,"o":"m 88 0 l 88 1010 l 758 1010 l 758 834 l 301 834 l 301 637 l 466 637 q 673 598 585 637 q 807 489 760 559 q 854 323 854 418 q 807 155 854 227 q 673 41 760 82 q 466 0 585 0 l 88 0 m 301 172 l 466 172 q 597 217 551 172 q 643 325 643 262 q 597 426 643 385 q 466 468 551 468 l 301 468 l 301 172 z "},"ƃ":{"ha":882,"x_min":88,"x_max":827,"o":"m 719 1010 l 719 859 l 298 859 l 298 630 l 304 630 q 345 693 319 661 q 414 746 371 725 q 520 767 457 767 q 673 724 603 767 q 784 595 742 681 q 827 378 827 508 q 786 164 827 251 q 675 32 745 77 q 519 -12 606 -12 q 416 8 458 -12 q 346 59 373 28 q 304 121 319 90 l 295 121 l 295 0 l 88 0 l 88 1010 l 719 1010 m 293 379 q 335 216 293 278 q 453 155 377 155 q 571 217 530 155 q 612 379 612 280 q 571 539 612 477 q 453 600 531 600 q 335 540 376 600 q 293 379 293 480 z "},"Ƅ":{"ha":1090,"x_min":17,"x_max":1027,"o":"m 474 637 l 639 637 q 846 598 759 637 q 980 489 933 559 q 1027 323 1027 418 q 980 155 1027 227 q 846 41 933 82 q 639 0 759 0 l 261 0 l 261 834 l 17 834 l 17 1010 l 474 1010 l 474 637 m 474 468 l 474 172 l 639 172 q 770 217 725 172 q 816 325 816 262 q 770 426 816 385 q 639 468 725 468 l 474 468 z "},"ƅ":{"ha":928,"x_min":54,"x_max":893,"o":"m 183 1042 l 218 1042 l 218 1010 l 391 1010 l 391 670 l 400 670 q 468 740 420 713 q 584 767 516 767 q 737 724 667 767 q 850 595 807 681 q 893 378 892 508 q 851 164 892 251 q 740 32 809 77 q 585 -12 670 -12 q 464 16 510 -12 q 400 83 418 43 l 388 83 l 388 0 l 181 0 l 181 712 l 54 825 l 54 925 l 183 1042 m 693 379 q 651 540 693 480 q 527 600 610 600 q 434 571 469 600 q 385 491 400 541 q 370 379 370 440 q 385 266 370 317 q 434 185 400 216 q 527 155 469 155 q 651 216 609 155 q 693 379 693 277 z "},"Ɔ":{"ha":1045,"x_min":66,"x_max":975,"o":"m 504 -14 q 281 37 375 -14 q 132 170 186 88 q 66 344 77 252 l 281 345 q 356 220 296 264 q 500 175 415 175 q 687 259 616 175 q 758 505 758 343 q 687 749 758 663 q 499 835 617 835 q 353 788 411 835 q 281 656 294 740 l 66 656 q 139 855 80 773 q 293 981 199 938 q 504 1024 387 1024 q 744 963 637 1024 q 912 786 850 902 q 975 505 975 670 q 913 225 975 341 q 745 47 852 109 q 504 -14 639 -14 z "},"Ƈ":{"ha":1163,"x_min":70,"x_max":1175,"o":"m 979 656 l 763 656 q 692 787 751 740 q 545 835 633 835 q 357 749 428 835 q 287 505 287 663 q 358 259 287 343 q 544 175 429 175 q 689 220 629 175 q 763 345 748 264 l 979 344 q 913 170 968 252 q 764 37 858 88 q 541 -14 670 -14 q 299 47 405 -14 q 131 224 193 109 q 70 505 70 340 q 132 786 70 670 q 301 963 194 902 q 541 1024 407 1024 q 829 935 712 1024 q 935 1014 870 986 q 1075 1041 1000 1041 q 1125 1040 1101 1041 q 1175 1035 1149 1039 l 1175 865 q 1145 867 1163 866 q 1116 868 1127 868 q 1053 856 1084 868 q 1000 817 1021 844 q 979 741 979 789 l 979 656 z "},"ƈ":{"ha":893,"x_min":53,"x_max":908,"o":"m 766 477 l 566 477 q 522 569 558 534 q 429 604 486 604 q 311 545 356 604 q 267 379 267 486 q 311 211 267 270 q 429 151 355 151 q 520 184 483 151 q 566 278 557 217 l 764 278 q 717 125 760 191 q 601 22 675 59 q 426 -15 527 -15 q 226 35 310 -15 q 98 173 143 84 q 53 376 53 261 q 98 580 53 492 q 227 718 144 668 q 425 767 310 767 q 608 727 529 767 q 695 805 640 778 q 820 832 751 832 q 908 820 864 832 l 908 682 q 883 685 895 683 q 856 687 870 687 q 789 665 811 687 q 766 591 766 644 l 766 477 z "},"Ɖ":{"ha":1010,"x_min":-53,"x_max":940,"o":"m 446 0 l 88 0 l 88 1010 l 449 1010 q 711 950 601 1010 q 881 776 822 889 q 940 506 940 663 q 881 235 940 348 q 710 61 821 121 q 446 0 600 0 m 301 183 l 437 183 q 653 260 580 183 q 727 506 727 337 q 653 751 727 674 q 437 827 580 827 l 301 827 l 301 183 m -53 471 l -53 594 l 439 594 l 439 471 l -53 471 z "},"Ɗ":{"ha":1300,"x_min":49,"x_max":1230,"o":"m 49 651 l 49 750 q 126 940 49 869 q 338 1010 204 1010 l 739 1010 q 1001 950 891 1010 q 1171 776 1112 889 q 1230 506 1230 663 q 1171 235 1230 348 q 1000 61 1111 121 q 736 0 890 0 l 378 0 l 378 827 l 339 827 q 258 791 278 827 q 240 709 239 755 l 240 651 l 49 651 m 591 827 l 591 183 l 727 183 q 943 260 870 183 q 1017 506 1017 337 q 943 751 1017 674 q 727 827 870 827 l 591 827 z "},"Ƌ":{"ha":932,"x_min":83,"x_max":849,"o":"m 849 0 l 472 0 q 266 41 353 0 q 131 155 178 82 q 83 323 83 228 q 131 489 83 418 q 266 599 178 559 q 472 638 353 638 l 635 638 l 635 832 l 181 832 l 181 1006 l 849 1006 l 849 0 m 635 172 l 635 467 l 472 467 q 342 426 385 467 q 299 325 299 385 q 342 217 299 262 q 472 172 385 172 l 635 172 z "},"ƌ":{"ha":882,"x_min":56,"x_max":795,"o":"m 163 1010 l 163 859 l 584 859 l 584 630 l 578 630 q 538 693 564 661 q 469 746 511 725 q 363 767 426 767 q 210 724 279 767 q 98 595 140 681 q 56 378 56 508 q 97 164 56 251 q 207 32 138 77 q 363 -12 277 -12 q 467 8 424 -12 q 536 59 509 28 q 578 121 563 90 l 587 121 l 587 0 l 795 0 l 795 1010 l 163 1010 m 589 379 q 547 216 589 278 q 430 155 506 155 q 311 217 352 155 q 270 379 270 280 q 311 539 270 477 q 430 600 352 600 q 547 540 506 600 q 589 379 589 480 z "},"ƍ":{"ha":909,"x_min":98,"x_max":813,"o":"m 726 -254 l 172 -254 l 172 -91 l 457 -91 q 408 -55 441 -78 q 332 0 374 -32 q 164 173 229 82 q 98 373 98 263 l 98 387 q 140 571 98 490 q 261 700 181 653 q 455 748 341 748 q 650 704 570 748 q 771 583 729 659 q 813 410 813 507 l 813 397 q 777 231 813 304 q 677 113 740 159 q 536 55 614 68 q 525 54 532 54 q 511 54 518 54 q 583 -10 542 29 q 664 -85 625 -48 q 726 -147 703 -123 l 726 -254 m 606 373 l 606 387 q 593 480 606 436 q 548 554 581 525 q 455 582 515 582 q 365 555 399 582 q 319 483 332 528 q 305 387 305 439 l 305 373 q 338 244 305 297 q 414 166 370 190 q 432 161 423 162 q 452 160 441 160 q 542 189 508 160 q 591 266 576 218 q 606 373 606 315 z "},"Ǝ":{"ha":851,"x_min":62,"x_max":745,"o":"m 745 1010 l 745 0 l 64 0 l 64 176 l 531 176 l 531 417 l 99 417 l 99 593 l 531 593 l 531 834 l 62 834 l 62 1010 l 745 1010 z "},"Ə":{"ha":1061,"x_min":93,"x_max":970,"o":"m 533 -14 q 291 43 389 -14 q 143 205 193 100 q 93 452 93 309 l 93 566 l 754 566 q 723 690 750 635 q 635 779 695 746 q 474 812 575 812 q 312 799 381 812 q 202 773 243 786 l 167 950 q 229 970 182 957 q 344 992 276 982 q 485 1002 411 1002 q 751 944 644 1002 q 914 782 859 885 q 970 545 970 679 l 970 439 q 912 204 970 306 q 755 44 854 102 q 533 -14 656 -14 m 752 392 l 307 392 l 307 372 q 359 231 308 289 q 533 174 410 174 q 686 236 631 174 q 752 392 741 299 z "},"Ɛ":{"ha":932,"x_min":78,"x_max":853,"o":"m 587 533 l 587 422 l 464 422 q 339 391 384 422 q 295 281 294 361 q 345 187 294 216 q 474 158 395 158 q 594 191 550 158 q 637 274 637 223 l 853 274 q 820 144 853 199 q 732 55 787 90 q 610 3 677 20 q 474 -14 543 -14 q 269 17 359 -14 q 129 112 180 48 q 78 276 78 176 q 124 420 78 362 q 253 507 169 478 q 137 591 180 537 q 94 720 94 646 q 142 875 94 812 q 275 970 189 938 q 474 1002 361 1002 q 655 968 572 1002 q 788 871 737 934 q 838 722 838 808 l 623 722 q 581 802 623 775 q 474 829 539 829 q 349 796 388 829 q 310 715 310 764 q 347 619 310 652 q 464 586 384 586 l 587 586 l 587 533 z "},"Ƒ":{"ha":843,"x_min":-29,"x_max":787,"o":"m 119 0 l 118 0 l 118 1010 l 787 1010 l 787 834 l 332 834 l 332 593 l 743 593 l 743 417 l 332 417 l 332 0 l 332 0 l 332 -46 q 294 -195 332 -144 q 194 -265 256 -247 q 58 -284 131 -284 q 18 -283 43 -284 q -29 -279 -7 -283 l -29 -118 q -11 -120 -21 -120 q 8 -120 0 -120 q 14 -120 12 -120 q 87 -105 55 -120 q 119 -46 119 -90 l 119 0 z "},"ƒ":{"ha":652,"x_min":52,"x_max":600,"o":"m 557 734 l 557 585 l 410 585 l 410 -29 q 343 -227 410 -159 q 153 -296 275 -296 q 104 -294 128 -296 q 52 -286 79 -292 l 62 -123 q 93 -128 73 -126 q 126 -131 113 -131 q 190 -103 173 -131 q 206 -29 207 -76 l 206 585 l 92 585 l 92 734 l 206 734 l 206 796 q 281 989 207 923 q 482 1055 355 1055 q 545 1051 514 1055 q 600 1041 575 1047 l 580 883 q 551 888 566 886 q 511 889 536 889 q 437 866 464 889 q 410 796 410 842 l 410 734 l 557 734 z "},"Ɠ":{"ha":1159,"x_min":70,"x_max":1163,"o":"m 975 684 l 756 684 l 756 689 q 681 796 735 757 q 546 835 627 835 q 358 749 430 835 q 287 506 287 664 q 357 261 287 348 q 548 175 428 175 q 715 231 654 175 q 778 380 776 286 l 561 380 l 561 541 l 984 541 l 984 413 q 928 185 984 281 q 773 37 872 89 q 547 -14 675 -14 q 297 49 405 -14 q 130 228 190 112 q 70 504 70 344 q 133 784 70 668 q 302 962 195 901 q 543 1024 409 1024 q 673 1008 611 1024 q 786 961 734 991 q 898 1072 823 1034 q 1064 1111 973 1111 q 1163 1099 1115 1111 l 1163 932 q 1134 935 1149 933 q 1104 937 1119 937 q 1013 918 1053 937 q 974 837 974 900 l 974 690 q 975 684 974 687 z "},"Ɣ":{"ha":1035,"x_min":58,"x_max":977,"o":"m 58 992 l 300 992 l 517 489 l 733 992 l 977 992 l 622 249 q 691 97 659 167 q 744 -25 724 28 q 763 -105 763 -77 q 730 -215 763 -172 q 641 -276 696 -257 q 517 -296 585 -296 q 393 -276 450 -296 q 300 -215 335 -257 q 265 -105 265 -172 q 287 -24 265 -76 q 342 98 308 28 q 414 250 376 168 l 58 992 m 518 30 q 488 -43 498 -14 q 477 -98 477 -73 q 486 -133 477 -118 q 517 -147 494 -147 q 549 -132 542 -147 q 557 -98 557 -116 q 548 -45 557 -74 q 518 30 539 -15 z "},"ƕ":{"ha":1365,"x_min":84,"x_max":1281,"o":"m 84 0 l 84 1010 l 288 1010 l 288 624 l 297 624 q 380 729 323 691 q 523 767 437 767 q 713 691 642 767 q 785 482 785 616 l 785 295 q 818 189 785 218 q 889 160 850 160 q 1024 287 977 160 q 1071 674 1071 414 l 1071 758 l 1281 758 l 1281 674 q 1183 156 1281 326 q 881 -14 1086 -14 q 655 67 735 -14 q 575 295 575 148 l 575 445 q 540 554 575 515 q 440 593 504 593 q 335 552 376 593 q 294 438 294 511 l 294 0 l 84 0 z "},"Ɩ":{"ha":540,"x_min":73,"x_max":467,"o":"m 282 1042 l 282 246 q 383 153 282 153 q 422 155 407 153 q 451 159 436 156 l 467 0 q 411 -10 438 -6 q 356 -14 383 -14 q 148 53 222 -14 q 73 246 73 120 l 73 1042 l 282 1042 z "},"Ɨ":{"ha":390,"x_min":-53,"x_max":439,"o":"m 301 1010 l 301 0 l 88 0 l 88 1010 l 301 1010 m -53 471 l -53 594 l 439 594 l 439 471 l -53 471 z "},"Ƙ":{"ha":1013,"x_min":88,"x_max":1003,"o":"m 88 0 l 88 1010 l 301 1010 l 301 575 l 315 575 l 646 926 q 816 1020 724 1007 q 1003 978 908 1034 l 935 826 q 863 837 893 848 q 799 792 833 827 l 561 544 l 978 0 l 722 0 l 425 393 l 301 260 l 301 0 l 88 0 z "},"ƙ":{"ha":801,"x_min":84,"x_max":797,"o":"m 567 0 l 367 284 l 294 204 l 294 0 l 84 0 l 84 786 q 123 935 84 884 q 220 1005 161 986 q 344 1024 280 1024 q 405 1022 377 1024 q 451 1017 432 1019 l 451 857 q 426 859 439 858 q 400 861 413 861 q 327 846 360 861 q 294 786 294 831 l 294 492 l 304 492 l 535 758 l 780 758 l 494 434 l 797 0 l 567 0 z "},"ƚ":{"ha":378,"x_min":-57,"x_max":435,"o":"m 294 1010 l 294 0 l 84 0 l 84 1010 l 294 1010 m -57 471 l -57 594 l 435 594 l 435 471 l -57 471 z "},"ƛ":{"ha":928,"x_min":74,"x_max":850,"o":"m 540 931 l 540 798 l 521 792 l 753 230 q 781 178 764 202 q 826 154 799 154 l 850 154 l 850 -9 q 817 -12 836 -12 q 773 -13 797 -13 q 638 28 688 -13 q 560 141 588 68 l 448 442 l 297 0 l 74 0 l 340 720 l 335 732 l 143 670 l 143 805 l 281 849 q 201 885 255 885 q 183 885 193 885 q 160 883 173 884 l 155 1037 q 213 1048 178 1044 q 271 1051 249 1051 q 394 1020 348 1051 q 462 934 439 990 l 472 909 l 540 931 z "},"Ɯ":{"ha":1325,"x_min":109,"x_max":1217,"o":"m 593 106 q 499 18 557 50 q 360 -14 440 -14 q 172 55 236 -14 q 109 288 109 123 l 109 988 l 315 988 l 315 288 q 344 184 315 216 q 421 153 374 153 q 510 174 475 153 q 562 230 544 194 q 559 288 559 257 l 559 988 l 764 988 l 764 288 q 794 184 764 216 q 871 153 824 153 q 957 173 924 153 q 1009 226 991 192 l 1009 988 l 1217 988 l 1217 0 l 1029 0 l 1020 80 q 931 11 984 36 q 810 -14 879 -14 q 680 14 735 -14 q 593 106 624 41 z "},"Ɲ":{"ha":1022,"x_min":-58,"x_max":934,"o":"m 89 0 l 89 0 l 89 1010 l 276 1010 l 712 375 l 721 375 l 721 1010 l 934 1010 l 934 0 l 749 0 l 310 636 l 302 636 l 302 0 l 303 0 l 303 -46 q 264 -195 303 -144 q 165 -265 225 -247 q 40 -284 105 -284 q -9 -283 21 -284 q -58 -279 -39 -283 l -58 -118 q -40 -120 -50 -120 q -22 -120 -30 -120 q -16 -120 -18 -120 q 57 -105 26 -120 q 89 -46 89 -90 l 89 0 z "},"ƞ":{"ha":864,"x_min":84,"x_max":782,"o":"m 294 438 l 294 0 l 84 0 l 84 758 l 284 758 l 284 624 l 293 624 q 378 729 319 690 q 521 767 437 767 q 711 691 640 767 q 782 482 782 615 l 782 -284 l 572 -284 l 572 445 q 537 554 572 514 q 437 593 501 593 q 334 552 374 593 q 294 438 294 511 z "},"Ɵ":{"ha":1086,"x_min":70,"x_max":1016,"o":"m 1016 505 q 954 224 1016 340 q 784 47 891 108 q 543 -14 677 -14 q 301 47 408 -14 q 132 225 194 109 q 70 505 70 341 q 132 786 70 670 q 301 963 194 902 q 543 1024 408 1024 q 784 963 677 1024 q 954 786 891 902 q 1016 505 1016 670 m 543 175 q 710 239 644 175 q 794 425 777 303 q 692 402 737 404 q 610 409 648 400 q 537 430 573 418 q 429 456 485 446 q 290 442 372 466 q 371 244 303 312 q 543 175 438 175 m 796 569 q 715 767 782 699 q 543 835 647 835 q 376 772 442 835 q 292 587 309 708 q 393 608 349 607 q 475 601 437 610 q 548 581 512 593 q 656 555 599 565 q 796 569 714 545 z "},"Ơ":{"ha":1129,"x_min":70,"x_max":1112,"o":"m 977 1059 l 1112 1059 q 1075 875 1112 948 q 959 773 1038 802 q 1001 650 986 718 q 1016 505 1016 583 q 954 224 1016 340 q 784 47 891 108 q 543 -14 677 -14 q 301 47 408 -14 q 132 225 194 109 q 70 505 70 341 q 132 786 70 670 q 301 963 194 902 q 543 1024 408 1024 q 740 985 650 1024 q 895 872 831 946 q 959 935 941 886 q 977 1059 977 983 m 799 505 q 729 750 799 666 q 543 835 659 835 q 357 750 427 835 q 287 505 287 666 q 357 260 287 345 q 543 175 427 175 q 729 260 659 175 q 799 505 799 345 z "},"ơ":{"ha":878,"x_min":53,"x_max":878,"o":"m 753 802 l 878 802 q 850 655 878 716 q 762 564 822 594 q 799 376 799 481 q 754 171 799 259 q 625 34 708 83 q 426 -15 541 -15 q 228 34 311 -15 q 99 171 144 83 q 53 376 53 259 q 99 581 53 493 q 228 718 144 669 q 426 767 311 767 q 590 736 517 767 q 710 647 662 704 q 744 709 735 669 q 753 802 753 748 m 427 148 q 545 213 505 148 q 585 377 585 278 q 545 542 585 476 q 427 607 505 607 q 307 542 348 607 q 267 377 267 476 q 307 213 267 278 q 427 148 348 148 z "},"Ƣ":{"ha":1293,"x_min":76,"x_max":1216,"o":"m 1216 988 l 1216 -282 l 1011 -282 l 1011 742 l 906 694 l 906 126 q 833 66 882 98 q 707 10 785 33 q 518 -14 629 -14 q 287 42 387 -14 q 132 205 188 98 q 76 465 76 312 l 76 524 q 132 782 76 675 q 287 946 187 889 q 518 1002 386 1002 q 736 970 651 1002 q 867 900 821 937 l 1061 988 l 1216 988 m 295 513 l 295 465 q 350 242 294 327 q 530 158 405 158 q 642 174 604 158 q 698 206 680 191 l 698 782 q 637 816 676 802 q 529 830 598 830 q 350 750 405 830 q 295 524 294 670 l 295 513 z "},"ƣ":{"ha":1032,"x_min":56,"x_max":978,"o":"m 978 734 l 978 -282 l 770 -282 l 770 502 l 699 473 l 699 138 q 592 31 661 75 q 405 -14 523 -14 q 210 36 288 -14 q 94 169 132 85 q 56 358 56 254 l 56 376 q 94 564 56 480 q 210 698 132 649 q 405 748 288 748 q 543 719 483 748 q 644 651 604 690 l 836 734 l 978 734 m 401 153 q 492 183 460 153 l 492 543 q 454 572 476 562 q 400 582 432 582 q 311 552 341 582 q 272 475 282 522 q 261 376 261 428 l 261 358 q 273 255 261 302 q 315 181 285 209 q 401 153 346 153 z "},"Ƥ":{"ha":1185,"x_min":49,"x_max":1134,"o":"m 240 651 l 49 651 l 49 750 q 126 940 49 869 q 338 1010 204 1010 l 772 1010 q 968 966 887 1010 q 1091 846 1049 923 q 1134 668 1134 768 q 1090 491 1134 567 q 965 371 1047 414 q 766 327 883 327 l 587 327 l 587 0 l 373 0 l 373 836 l 339 836 q 276 817 298 836 q 247 769 255 798 q 240 709 239 740 l 240 651 m 587 499 l 732 499 q 869 546 824 499 q 914 668 914 593 q 869 789 914 743 q 731 836 824 836 l 587 836 l 587 499 z "},"ƥ":{"ha":878,"x_min":84,"x_max":823,"o":"m 291 758 l 291 630 l 300 630 q 341 693 315 661 q 410 746 367 725 q 516 767 453 767 q 669 724 599 767 q 781 595 738 681 q 823 378 823 508 q 782 164 823 251 q 671 32 741 77 q 515 -12 602 -12 q 412 8 454 -12 q 342 59 369 28 q 300 121 315 90 l 294 121 l 294 -284 l 84 -284 l 84 758 q 145 911 84 864 q 333 958 205 958 q 398 954 370 958 q 440 946 426 950 l 440 806 q 413 812 432 809 q 373 816 394 816 q 291 758 291 818 m 290 379 q 331 216 290 278 q 449 155 373 155 q 567 217 526 155 q 608 379 608 280 q 567 539 608 477 q 449 600 527 600 q 331 540 372 600 q 290 379 290 480 z "},"Ʀ":{"ha":1059,"x_min":68,"x_max":991,"o":"m 68 988 l 69 988 l 69 1057 l 285 1057 l 285 988 l 451 988 q 727 912 625 988 q 828 690 828 836 q 779 513 828 579 q 647 411 729 448 l 991 -228 l 991 -238 l 761 -238 l 447 357 l 285 357 l 285 0 l 68 0 l 68 988 m 285 529 l 451 529 q 571 567 530 529 q 613 670 613 606 q 572 776 613 737 q 451 815 532 815 l 285 815 l 285 529 z "},"Ƨ":{"ha":909,"x_min":55,"x_max":854,"o":"m 274 720 q 325 812 280 779 q 446 845 370 845 q 567 813 525 845 q 609 732 609 781 q 562 650 610 678 q 449 607 514 622 l 358 585 q 202 528 270 566 q 94 432 134 491 q 55 289 55 373 q 159 68 56 150 q 447 -14 262 -14 q 741 70 631 -14 q 854 317 850 153 l 648 317 q 588 203 642 241 q 450 165 533 165 q 320 199 368 165 q 271 289 271 234 q 316 368 271 340 q 442 415 360 396 l 552 443 q 754 540 680 473 q 828 718 828 607 q 779 879 828 810 q 642 986 729 947 q 445 1024 555 1024 q 248 985 332 1024 q 117 878 164 947 q 69 720 71 810 l 274 720 z "},"ƨ":{"ha":780,"x_min":49,"x_max":730,"o":"m 66 542 l 258 530 q 298 592 266 566 q 385 618 330 618 q 468 598 434 618 q 501 544 502 578 q 480 498 502 516 q 405 468 458 479 l 268 440 q 49 235 49 395 q 92 104 49 160 q 212 17 136 48 q 386 -15 288 -15 q 626 48 537 -15 q 730 219 715 111 l 523 230 q 478 160 513 184 q 386 137 442 137 q 297 158 330 137 q 262 214 263 180 q 360 289 264 270 l 491 315 q 710 532 711 359 q 622 704 710 641 q 389 767 534 767 q 163 707 245 767 q 66 542 80 646 z "},"Ʃ":{"ha":934,"x_min":103,"x_max":825,"o":"m 825 176 l 825 0 l 103 0 l 103 104 l 408 503 l 103 902 l 103 1006 l 810 1006 l 810 829 l 402 829 l 635 509 l 635 498 l 401 176 l 825 176 z "},"ƪ":{"ha":906,"x_min":91,"x_max":815,"o":"m 91 792 q 129 931 91 868 q 231 1032 167 994 q 374 1070 295 1070 q 516 1032 452 1070 q 619 931 581 994 q 658 792 658 868 l 658 -15 q 683 -99 657 -72 q 754 -126 708 -126 q 815 -120 779 -126 l 815 -282 q 765 -291 792 -288 q 712 -293 739 -293 q 520 -221 589 -293 q 451 -15 450 -149 l 451 525 q 374 514 413 514 q 232 551 296 514 q 129 652 167 589 q 91 792 91 716 m 375 690 q 445 716 416 690 q 474 794 474 742 q 444 870 474 845 q 375 896 415 896 q 302 870 330 896 q 273 794 273 844 q 302 716 273 742 q 375 690 330 690 z "},"ƫ":{"ha":545,"x_min":31,"x_max":506,"o":"m 487 758 l 487 600 l 344 600 l 344 233 q 364 174 344 189 q 415 159 384 159 q 426 159 420 159 l 506 176 l 506 -46 q 443 -222 506 -160 q 275 -283 380 -283 q 230 -281 251 -283 q 187 -273 209 -279 l 187 -135 q 211 -137 199 -136 q 240 -139 224 -139 q 294 -131 267 -139 q 340 -104 322 -124 q 359 -46 359 -84 l 359 -11 q 195 46 256 -8 q 134 205 134 101 l 134 600 l 31 600 l 31 758 l 134 758 l 134 939 l 344 939 l 344 758 l 487 758 z "},"Ƭ":{"ha":977,"x_min":49,"x_max":927,"o":"m 927 1010 l 927 834 l 618 834 l 618 0 l 407 0 l 407 834 l 327 834 q 264 816 286 834 q 234 770 242 798 q 226 711 226 742 l 226 652 l 49 652 l 49 749 q 121 940 49 870 q 327 1010 192 1010 l 927 1010 z "},"ƭ":{"ha":646,"x_min":82,"x_max":565,"o":"m 526 734 l 526 585 l 397 585 l 397 233 q 416 171 397 187 q 474 155 436 155 q 508 156 494 155 q 534 159 522 158 l 534 5 q 476 -9 507 -5 q 409 -14 445 -14 q 250 38 309 -14 q 190 210 190 91 l 190 585 l 82 585 l 82 734 l 190 734 l 190 833 q 227 979 190 928 q 325 1051 264 1031 q 458 1070 386 1070 q 518 1068 493 1070 q 565 1059 543 1065 l 565 922 q 543 927 556 925 q 514 928 529 928 q 460 920 487 928 q 415 892 433 912 q 397 833 397 871 l 397 734 l 526 734 z "},"Ʈ":{"ha":928,"x_min":49,"x_max":879,"o":"m 49 834 l 49 1010 l 879 1010 l 879 834 l 570 834 l 570 -46 q 603 -105 570 -91 q 678 -119 637 -119 l 720 -119 l 720 -284 l 622 -284 q 496 -265 556 -284 q 397 -195 436 -247 q 359 -46 359 -144 l 359 834 l 49 834 z "},"Ư":{"ha":1208,"x_min":88,"x_max":1159,"o":"m 1023 1047 l 1159 1047 q 1109 829 1159 911 q 925 731 1059 747 l 925 342 q 872 148 925 228 q 723 27 818 69 q 507 -14 629 -14 q 290 27 384 -14 q 141 148 195 69 q 88 342 88 228 l 88 1010 l 301 1010 l 301 350 q 360 222 301 269 q 507 176 418 176 q 655 222 596 176 q 713 350 713 269 l 713 1010 l 925 1010 l 925 844 q 1008 913 992 861 q 1023 1047 1023 966 z "},"ư":{"ha":985,"x_min":89,"x_max":1007,"o":"m 885 799 l 1007 799 q 958 618 1006 683 q 785 542 909 552 l 785 0 l 583 0 l 583 138 l 575 138 q 490 31 549 71 q 345 -10 431 -10 q 160 66 231 -10 q 89 275 89 143 l 89 758 l 299 758 l 299 313 q 335 207 299 246 q 430 168 370 168 q 531 207 487 168 q 575 323 575 247 l 575 758 l 785 758 l 785 637 q 868 687 851 647 q 885 799 884 727 z "},"Ʊ":{"ha":1081,"x_min":63,"x_max":1018,"o":"m 63 462 q 113 680 63 589 q 252 826 164 771 l 252 834 l 63 834 l 63 1010 l 463 1010 l 463 789 q 331 673 383 757 q 278 478 278 589 q 312 324 278 392 q 405 216 345 255 q 541 177 464 177 q 677 216 618 177 q 769 324 736 255 q 803 478 803 392 q 750 673 803 589 q 618 789 698 757 l 618 1010 l 1018 1010 l 1018 834 l 830 834 l 830 826 q 968 680 917 771 q 1018 462 1018 589 q 957 216 1018 323 q 788 47 896 108 q 541 -14 680 -14 q 293 47 401 -14 q 124 216 185 108 q 63 462 63 323 z "},"Ʋ":{"ha":928,"x_min":73,"x_max":857,"o":"m 465 -14 q 262 27 351 -14 q 124 146 174 67 q 73 340 73 225 l 73 988 l 288 988 l 288 340 q 465 158 289 158 q 639 340 640 158 l 639 723 q 619 802 640 781 q 545 824 598 824 q 517 823 533 824 q 486 819 502 822 l 486 989 q 535 998 510 995 q 587 1001 559 1001 q 785 929 712 1001 q 857 723 857 857 l 857 340 q 807 146 857 225 q 668 27 756 68 q 465 -14 580 -14 z "},"Ƴ":{"ha":1096,"x_min":36,"x_max":1076,"o":"m 869 747 l 641 390 l 641 0 l 429 0 l 429 390 l 36 1010 l 269 1010 l 529 575 l 541 575 l 691 824 l 724 880 q 825 987 766 954 q 949 1022 884 1021 q 1076 999 1014 1023 l 1030 838 q 948 841 980 854 q 887 778 916 829 l 869 747 z "},"ƴ":{"ha":867,"x_min":35,"x_max":894,"o":"m 719 630 l 476 -109 q 429 -193 463 -150 q 340 -266 395 -237 q 207 -296 285 -296 q 158 -293 179 -296 q 112 -283 137 -291 l 112 -119 q 148 -122 131 -122 q 251 -95 218 -122 q 298 -21 284 -69 l 311 20 l 35 758 l 253 758 l 402 325 l 519 684 l 538 741 q 602 856 559 805 q 711 921 644 908 q 790 930 751 933 q 893 920 830 928 l 894 920 l 878 757 q 845 763 860 761 q 818 762 831 764 q 763 728 781 752 q 728 659 745 703 l 719 630 z "},"Ƶ":{"ha":926,"x_min":76,"x_max":850,"o":"m 77 0 l 77 127 l 581 834 l 76 834 l 76 1010 l 849 1010 l 849 883 l 345 176 l 850 176 l 850 0 l 77 0 m 233 471 l 233 594 l 725 594 l 725 471 l 233 471 z "},"ƶ":{"ha":794,"x_min":80,"x_max":717,"o":"m 80 0 l 80 125 l 451 584 l 451 590 l 93 590 l 93 758 l 704 758 l 704 621 l 356 173 l 356 168 l 717 168 l 717 0 l 80 0 m 148 320 l 148 444 l 640 444 l 640 320 l 148 320 z "},"Ʒ":{"ha":953,"x_min":49,"x_max":903,"o":"m 49 89 l 265 89 q 299 -7 268 34 q 376 -71 329 -48 q 474 -94 423 -94 q 589 -56 543 -94 q 658 41 635 -18 q 682 165 682 101 q 651 295 682 238 q 566 384 621 352 q 439 417 511 417 l 329 417 l 329 572 l 611 823 l 611 831 l 106 831 l 106 1010 l 877 1010 l 877 856 l 548 563 l 548 553 q 747 484 668 543 q 864 339 825 426 q 903 155 903 252 q 850 -60 903 37 q 701 -216 797 -158 q 472 -275 604 -275 q 262 -228 357 -275 q 110 -100 167 -182 q 49 89 53 -18 z "},"Ƹ":{"ha":953,"x_min":50,"x_max":904,"o":"m 904 89 l 688 89 q 654 -7 685 34 q 577 -71 623 -48 q 478 -94 530 -94 q 364 -56 410 -94 q 295 41 318 -18 q 271 165 271 101 q 302 295 271 238 q 387 384 332 352 q 514 417 441 417 l 623 417 l 623 572 l 342 823 l 342 831 l 847 831 l 847 1010 l 76 1010 l 76 856 l 405 563 l 405 553 q 206 484 285 543 q 89 339 128 426 q 50 155 50 252 q 103 -60 50 37 q 252 -216 156 -158 q 480 -275 349 -275 q 691 -228 596 -275 q 843 -100 786 -182 q 904 89 900 -18 z "},"ƹ":{"ha":911,"x_min":72,"x_max":845,"o":"z "},"ƺ":{"ha":799,"x_min":72,"x_max":722,"o":"m 109 734 l 722 734 l 722 618 l 519 444 q 650 362 604 418 q 696 236 695 305 q 657 122 696 167 q 556 51 618 77 q 428 11 495 25 q 303 -29 333 -7 q 273 -78 273 -50 q 305 -132 273 -114 q 388 -151 337 -151 q 451 -142 420 -151 q 501 -110 481 -133 q 524 -48 522 -88 l 720 -48 q 682 -164 720 -108 q 571 -259 644 -221 q 393 -296 499 -296 q 223 -267 295 -296 q 112 -186 151 -237 q 73 -70 73 -135 q 143 80 72 27 q 349 159 213 133 q 463 192 430 175 q 497 246 497 210 q 469 299 497 280 q 394 319 441 319 l 229 319 l 229 438 l 394 569 l 109 569 l 109 734 z "},"ƻ":{"ha":875,"x_min":72,"x_max":840,"o":"m 82 0 l 82 154 l 441 487 q 546 602 510 553 q 582 711 582 651 q 538 816 582 777 q 428 855 494 855 q 316 813 359 855 q 275 699 274 771 l 72 699 q 117 871 72 798 q 242 984 162 944 q 429 1024 323 1024 q 618 986 538 1024 q 744 880 699 947 q 789 725 789 813 q 766 612 789 668 q 686 489 743 556 q 525 326 629 421 l 378 182 l 378 175 l 802 175 l 802 0 l 82 0 m 348 482 l 348 606 l 840 606 l 840 482 l 348 482 z "},"Ƽ":{"ha":883,"x_min":49,"x_max":852,"o":"m 474 -14 q 288 25 370 -14 q 159 131 206 63 q 109 286 111 198 l 316 286 q 365 190 320 227 q 474 154 411 154 q 598 203 549 154 q 646 331 646 253 q 597 461 646 411 q 472 511 548 511 q 385 493 427 511 q 321 443 344 475 l 131 477 l 163 836 l 49 836 l 49 1010 l 796 1010 l 796 836 l 355 836 l 328 582 l 334 582 q 415 645 361 620 q 535 669 469 669 q 698 626 626 669 q 811 509 769 583 q 852 337 852 434 q 805 156 852 235 q 672 31 757 76 q 474 -14 587 -14 z "},"ƽ":{"ha":909,"x_min":100,"x_max":810,"o":"m 368 313 l 181 321 l 215 571 l 100 571 l 100 734 l 758 734 l 758 571 l 405 571 l 387 449 q 450 472 410 462 q 539 482 490 482 q 738 419 667 484 q 810 238 809 354 q 776 110 810 166 q 671 21 743 53 q 483 -12 599 -12 q 322 12 399 -12 q 198 88 246 36 q 150 219 150 139 l 355 228 q 392 173 358 191 q 483 155 427 155 q 574 182 545 155 q 603 252 603 208 q 571 320 603 294 q 481 346 540 346 q 409 336 436 346 q 368 313 382 327 z "},"ƾ":{"ha":799,"x_min":76,"x_max":725,"o":"m 523 205 q 497 258 523 238 q 435 300 471 279 q 359 350 398 321 q 293 428 320 379 q 267 557 267 477 l 267 585 l 159 585 l 159 734 l 267 734 l 267 916 l 475 916 l 475 734 l 603 734 l 603 585 l 475 585 l 475 555 q 492 480 475 509 q 536 434 509 452 q 593 399 563 415 q 655 360 625 381 q 705 304 686 339 q 724 212 724 270 q 685 96 725 147 q 574 16 646 45 q 405 -14 503 -14 q 225 24 298 -14 q 114 119 152 62 q 76 234 76 176 l 273 234 q 319 154 276 176 q 408 131 361 131 q 492 151 462 131 q 523 205 523 170 z "},"ƿ":{"ha":936,"x_min":125,"x_max":811,"o":"m 327 663 q 407 725 361 703 q 516 748 454 748 q 677 701 611 748 q 777 571 742 654 q 811 376 811 487 l 811 360 q 755 136 811 227 q 592 -16 699 45 q 334 -117 486 -76 l 334 -282 l 125 -282 l 125 734 l 320 734 l 327 663 m 334 44 q 528 154 455 76 q 603 360 602 232 l 603 376 q 589 479 603 432 q 545 554 576 526 q 461 582 514 582 q 334 513 369 582 l 334 44 z "},"ǀ":{"ha":416,"x_min":147,"x_max":269,"o":"m 269 992 l 269 0 l 147 0 l 147 992 l 269 992 z "},"ǁ":{"ha":547,"x_min":125,"x_max":430,"o":"m 247 992 l 247 0 l 125 0 l 125 992 l 247 992 m 430 992 l 430 0 l 307 0 l 307 992 l 430 992 z "},"ǂ":{"ha":619,"x_min":44,"x_max":560,"o":"m 377 992 l 377 0 l 254 0 l 254 992 l 377 992 m 44 638 l 44 762 l 536 762 l 536 638 l 44 638 m 68 326 l 68 449 l 560 449 l 560 326 l 68 326 z "},"ǃ":{"ha":451,"x_min":107,"x_max":344,"o":"m 335 1010 l 316 303 l 135 303 l 115 1010 l 335 1010 m 225 -13 q 142 22 177 -13 q 107 106 107 56 q 142 188 107 154 q 225 223 177 223 q 308 188 273 223 q 344 106 343 154 q 308 22 343 56 q 225 -13 273 -13 z "},"ǅ":{"ha":1804,"x_min":88,"x_max":1727,"o":"m 446 0 l 88 0 l 88 1010 l 449 1010 q 711 950 601 1010 q 881 776 822 889 q 940 506 940 663 q 881 235 940 348 q 710 61 821 121 q 446 0 600 0 m 301 183 l 437 183 q 653 260 580 183 q 727 506 727 337 q 653 751 727 674 q 437 827 580 827 l 301 827 l 301 183 m 1090 0 l 1090 125 l 1461 584 l 1461 590 l 1103 590 l 1103 758 l 1714 758 l 1714 621 l 1366 173 l 1366 168 l 1727 168 l 1727 0 l 1090 0 m 1307 1072 l 1406 952 l 1505 1072 l 1684 1072 l 1684 1065 l 1484 848 l 1328 848 l 1128 1065 l 1128 1072 l 1307 1072 z "},"ǆ":{"ha":1552,"x_min":56,"x_max":1474,"o":"m 363 -12 q 207 32 277 -12 q 97 164 138 77 q 56 378 56 251 q 98 595 56 508 q 210 724 140 681 q 363 767 280 767 q 469 746 426 767 q 538 693 511 725 q 578 630 564 661 l 584 630 l 584 1010 l 794 1010 l 794 0 l 587 0 l 587 121 l 578 121 q 537 59 564 90 q 467 8 509 28 q 363 -12 424 -12 m 430 155 q 547 216 506 155 q 589 379 589 278 q 547 540 589 480 q 430 600 506 600 q 311 539 352 600 q 270 379 270 477 q 311 217 270 280 q 430 155 352 155 m 837 0 l 837 125 l 1208 584 l 1208 590 l 850 590 l 850 758 l 1461 758 l 1461 621 l 1113 173 l 1113 168 l 1474 168 l 1474 0 l 837 0 m 1054 1072 l 1153 952 l 1252 1072 l 1431 1072 l 1431 1065 l 1231 848 l 1075 848 l 875 1065 l 875 1072 l 1054 1072 z "},"Ǉ":{"ha":1580,"x_min":88,"x_max":1491,"o":"m 88 0 l 88 1010 l 301 1010 l 301 176 l 734 176 l 734 0 l 88 0 m 1280 1010 l 1491 1010 l 1491 306 q 1448 136 1491 208 q 1327 25 1404 65 q 1147 -14 1249 -14 q 981 19 1055 -14 q 864 117 907 51 q 821 284 820 183 l 1033 284 q 1068 191 1034 224 q 1158 157 1102 157 q 1280 306 1279 157 l 1280 1010 z "},"ǈ":{"ha":1166,"x_min":88,"x_max":1090,"o":"m 88 0 l 88 1010 l 301 1010 l 301 176 l 734 176 l 734 0 l 88 0 m 872 758 l 1082 758 l 1082 -35 q 1005 -226 1082 -167 q 792 -282 928 -285 q 774 -281 783 -282 q 753 -281 765 -281 l 753 -116 q 767 -117 761 -117 q 780 -117 774 -117 q 852 -96 831 -117 q 872 -32 872 -74 l 872 758 m 977 855 q 897 887 930 855 q 863 962 863 918 q 897 1037 863 1006 q 977 1068 930 1068 q 1057 1037 1023 1068 q 1090 962 1090 1006 q 1057 887 1090 918 q 977 855 1023 855 z "},"ǉ":{"ha":749,"x_min":84,"x_max":652,"o":"m 294 1010 l 294 0 l 84 0 l 84 1010 l 294 1010 m 434 758 l 644 758 l 644 -35 q 567 -226 644 -167 q 353 -282 490 -285 q 336 -281 345 -282 q 314 -281 327 -281 l 314 -116 q 329 -117 323 -117 q 342 -117 335 -117 q 413 -96 393 -117 q 434 -32 434 -74 l 434 758 m 538 855 q 458 887 492 855 q 425 962 425 918 q 458 1037 425 1006 q 538 1068 492 1068 q 618 1037 585 1068 q 652 962 652 1006 q 618 887 652 918 q 538 855 585 855 z "},"Ǌ":{"ha":1812,"x_min":88,"x_max":1724,"o":"m 933 1010 l 933 0 l 748 0 l 309 636 l 301 636 l 301 0 l 88 0 l 88 1010 l 275 1010 l 711 375 l 720 375 l 720 1010 l 933 1010 m 1513 1010 l 1724 1010 l 1724 306 q 1681 136 1724 208 q 1560 25 1637 65 q 1380 -14 1482 -14 q 1214 19 1288 -14 q 1096 117 1140 51 q 1054 284 1053 183 l 1266 284 q 1301 191 1267 224 q 1390 157 1335 157 q 1513 306 1512 157 l 1513 1010 z "},"ǋ":{"ha":1384,"x_min":88,"x_max":1287,"o":"m 933 1010 l 933 0 l 748 0 l 309 636 l 301 636 l 301 0 l 88 0 l 88 1010 l 275 1010 l 711 375 l 720 375 l 720 1010 l 933 1010 m 1068 758 l 1278 758 l 1278 -35 q 1201 -226 1278 -167 q 988 -282 1125 -285 q 970 -281 980 -282 q 949 -281 961 -281 l 949 -116 q 964 -117 957 -117 q 977 -117 970 -117 q 1048 -96 1027 -117 q 1068 -32 1068 -74 l 1068 758 m 1173 855 q 1093 887 1126 855 q 1059 962 1059 918 q 1093 1037 1059 1006 q 1173 1068 1126 1068 q 1253 1037 1220 1068 q 1287 962 1287 1006 q 1253 887 1287 918 q 1173 855 1220 855 z "},"ǌ":{"ha":1242,"x_min":84,"x_max":1166,"o":"m 294 438 l 294 0 l 84 0 l 84 758 l 284 758 l 284 624 l 293 624 q 378 729 319 690 q 521 767 436 767 q 711 691 639 767 q 782 482 782 615 l 782 0 l 572 0 l 572 445 q 537 554 573 514 q 437 593 501 593 q 334 552 374 593 q 294 438 294 511 m 947 758 l 1158 758 l 1158 -35 q 1081 -226 1158 -167 q 867 -282 1004 -285 q 850 -281 859 -282 q 828 -281 840 -281 l 828 -116 q 843 -117 836 -117 q 856 -117 849 -117 q 927 -96 907 -117 q 947 -32 947 -74 l 947 758 m 1052 855 q 972 887 1006 855 q 939 962 939 918 q 972 1037 939 1006 q 1052 1068 1006 1068 q 1132 1037 1099 1068 q 1166 962 1166 1006 q 1132 887 1166 918 q 1052 855 1099 855 z "},"Ǎ":{"ha":1039,"x_min":33,"x_max":1005,"o":"m 262 0 l 33 0 l 382 1010 l 657 1010 l 1005 0 l 776 0 l 701 230 l 337 230 l 262 0 m 391 397 l 648 397 l 523 779 l 515 779 l 391 397 m 420 1325 l 519 1204 l 618 1325 l 798 1325 l 798 1318 l 597 1101 l 441 1101 l 241 1318 l 241 1325 l 420 1325 z "},"ǎ":{"ha":806,"x_min":48,"x_max":727,"o":"m 300 -14 q 120 42 191 -14 q 48 212 48 99 q 88 345 48 296 q 193 416 128 393 q 333 445 258 438 q 474 466 432 455 q 516 513 516 476 l 516 516 q 487 588 516 563 q 404 614 458 614 q 314 589 347 614 q 269 527 280 565 l 75 543 q 183 707 97 646 q 405 767 269 767 q 563 741 489 767 q 681 658 636 714 q 727 511 727 601 l 727 0 l 527 0 l 527 105 l 521 105 q 439 19 494 52 q 300 -14 384 -14 m 360 131 q 473 171 429 131 q 518 271 518 211 l 518 351 q 480 336 506 343 q 424 325 454 330 q 372 317 395 321 q 283 286 317 309 q 249 218 249 263 q 280 153 249 175 q 360 131 312 131 m 314 1072 l 413 952 l 512 1072 l 691 1072 l 691 1065 l 491 848 l 334 848 l 135 1065 l 135 1072 l 314 1072 z "},"Ǐ":{"ha":390,"x_min":-83,"x_max":473,"o":"m 301 1010 l 301 0 l 88 0 l 88 1010 l 301 1010 m 96 1325 l 195 1204 l 294 1325 l 473 1325 l 473 1318 l 273 1101 l 117 1101 l -83 1318 l -83 1325 l 96 1325 z "},"ǐ":{"ha":378,"x_min":-89,"x_max":468,"o":"m 84 0 l 84 758 l 294 758 l 294 0 l 84 0 m 90 1072 l 189 952 l 289 1072 l 468 1072 l 468 1065 l 267 848 l 111 848 l -89 1065 l -89 1072 l 90 1072 z "},"Ǒ":{"ha":1086,"x_min":70,"x_max":1016,"o":"m 1016 505 q 954 224 1016 340 q 784 47 891 108 q 543 -14 677 -14 q 301 47 408 -14 q 132 225 194 109 q 70 505 70 341 q 132 786 70 670 q 301 963 194 902 q 543 1024 408 1024 q 784 963 677 1024 q 954 786 891 902 q 1016 505 1016 670 m 799 505 q 729 750 799 666 q 543 835 659 835 q 357 750 427 835 q 287 505 287 666 q 357 260 287 345 q 543 175 427 175 q 729 260 659 175 q 799 505 799 345 m 444 1325 l 543 1204 l 642 1325 l 821 1325 l 821 1318 l 621 1101 l 465 1101 l 265 1318 l 265 1325 l 444 1325 z "},"ǒ":{"ha":852,"x_min":53,"x_max":799,"o":"m 426 -15 q 228 34 311 -15 q 99 171 144 83 q 53 376 53 259 q 99 581 53 493 q 228 718 144 669 q 426 767 311 767 q 625 718 541 767 q 754 581 708 669 q 799 376 799 493 q 754 171 799 259 q 625 34 708 83 q 426 -15 541 -15 m 427 148 q 545 213 505 148 q 585 377 585 278 q 545 542 585 476 q 427 607 505 607 q 307 542 348 607 q 267 377 267 476 q 307 213 267 278 q 427 148 348 148 m 327 1072 l 426 952 l 525 1072 l 704 1072 l 704 1065 l 504 848 l 348 848 l 148 1065 l 148 1072 l 327 1072 z "},"Ǔ":{"ha":1013,"x_min":88,"x_max":925,"o":"m 713 1010 l 925 1010 l 925 342 q 872 148 925 228 q 723 27 818 69 q 507 -14 629 -14 q 290 27 384 -14 q 141 148 195 69 q 88 342 88 228 l 88 1010 l 301 1010 l 301 350 q 360 222 301 269 q 507 176 418 176 q 655 222 596 176 q 713 350 713 269 l 713 1010 m 407 1325 l 507 1204 l 606 1325 l 785 1325 l 785 1318 l 584 1101 l 428 1101 l 228 1318 l 228 1325 l 407 1325 z "},"ǔ":{"ha":864,"x_min":84,"x_max":780,"o":"m 570 323 l 570 758 l 780 758 l 780 0 l 578 0 l 578 138 l 570 138 q 485 31 545 71 q 340 -10 426 -10 q 155 66 226 -10 q 84 275 84 143 l 84 758 l 294 758 l 294 313 q 330 207 294 246 q 425 168 365 168 q 526 207 482 168 q 570 323 570 247 m 334 1072 l 433 952 l 532 1072 l 711 1072 l 711 1065 l 511 848 l 355 848 l 155 1065 l 155 1072 l 334 1072 z "},"Ǖ":{"ha":1013,"x_min":88,"x_max":925,"o":"m 713 1010 l 925 1010 l 925 342 q 872 148 925 228 q 723 27 818 69 q 507 -14 629 -14 q 290 27 384 -14 q 141 148 195 69 q 88 342 88 228 l 88 1010 l 301 1010 l 301 350 q 360 222 301 269 q 507 176 418 176 q 655 222 596 176 q 713 350 713 269 l 713 1010 z "},"ǖ":{"ha":864,"x_min":84,"x_max":780,"o":"m 570 323 l 570 758 l 780 758 l 780 0 l 578 0 l 578 138 l 570 138 q 485 31 545 71 q 340 -10 426 -10 q 155 66 226 -10 q 84 275 84 143 l 84 758 l 294 758 l 294 313 q 330 207 294 246 q 425 168 365 168 q 526 207 482 168 q 570 323 570 247 z "},"Ǘ":{"ha":1013,"x_min":88,"x_max":925,"o":"m 713 1010 l 925 1010 l 925 342 q 872 148 925 228 q 723 27 818 69 q 507 -14 629 -14 q 290 27 384 -14 q 141 148 195 69 q 88 342 88 228 l 88 1010 l 301 1010 l 301 350 q 360 222 301 269 q 507 176 418 176 q 655 222 596 176 q 713 350 713 269 l 713 1010 m 426 1330 l 562 1504 l 750 1504 l 577 1330 l 426 1330 m 651 1078 q 581 1106 611 1078 q 552 1173 552 1134 q 581 1240 552 1212 q 651 1268 611 1268 q 721 1240 692 1268 q 750 1173 750 1212 q 721 1106 750 1134 q 651 1078 692 1078 m 361 1078 q 291 1106 321 1078 q 262 1173 262 1134 q 291 1240 262 1212 q 361 1268 321 1268 q 431 1240 402 1268 q 460 1173 460 1212 q 431 1106 460 1134 q 361 1078 402 1078 z "},"ǘ":{"ha":864,"x_min":84,"x_max":780,"o":"m 570 323 l 570 758 l 780 758 l 780 0 l 578 0 l 578 138 l 570 138 q 485 31 545 71 q 340 -10 426 -10 q 155 66 226 -10 q 84 275 84 143 l 84 758 l 294 758 l 294 313 q 330 207 294 246 q 425 168 365 168 q 526 207 482 168 q 570 323 570 247 z "},"Ǚ":{"ha":1013,"x_min":88,"x_max":925,"o":"m 713 1010 l 925 1010 l 925 342 q 872 148 925 228 q 723 27 818 69 q 507 -14 629 -14 q 290 27 384 -14 q 141 148 195 69 q 88 342 88 228 l 88 1010 l 301 1010 l 301 350 q 360 222 301 269 q 507 176 418 176 q 655 222 596 176 q 713 350 713 269 l 713 1010 m 416 1448 l 507 1373 l 599 1448 l 775 1448 l 775 1437 l 580 1281 l 436 1281 l 239 1439 l 239 1448 l 416 1448 m 563 1199 q 589 1255 563 1232 q 658 1278 615 1278 q 727 1255 700 1278 q 753 1199 753 1233 q 727 1141 753 1164 q 658 1118 700 1118 q 589 1141 615 1118 q 563 1199 563 1165 m 262 1199 q 288 1256 262 1233 q 355 1279 313 1279 q 425 1256 399 1279 q 451 1199 451 1232 q 424 1141 451 1164 q 356 1119 398 1119 q 288 1142 314 1119 q 262 1199 262 1164 z "},"ǚ":{"ha":864,"x_min":84,"x_max":780,"o":"m 570 323 l 570 758 l 780 758 l 780 0 l 578 0 l 578 138 l 570 138 q 485 31 545 71 q 340 -10 426 -10 q 155 66 226 -10 q 84 275 84 143 l 84 758 l 294 758 l 294 313 q 330 207 294 246 q 425 168 365 168 q 526 207 482 168 q 570 323 570 247 m 330 1264 l 433 1170 l 536 1264 l 712 1264 l 712 1256 l 499 1065 l 366 1065 l 153 1258 l 153 1264 l 330 1264 m 507 933 q 535 996 507 970 q 605 1022 563 1022 q 675 996 648 1022 q 703 933 703 970 q 675 872 703 897 q 605 846 648 846 q 535 872 563 846 q 507 933 507 897 m 163 934 q 191 996 163 970 q 260 1022 218 1022 q 331 996 303 1022 q 360 934 360 971 q 331 872 360 897 q 260 847 303 847 q 191 872 219 847 q 163 934 163 898 z "},"Ǜ":{"ha":1013,"x_min":88,"x_max":925,"o":"m 713 1010 l 925 1010 l 925 342 q 872 148 925 228 q 723 27 818 69 q 507 -14 629 -14 q 290 27 384 -14 q 141 148 195 69 q 88 342 88 228 l 88 1010 l 301 1010 l 301 350 q 360 222 301 269 q 507 176 418 176 q 655 222 596 176 q 713 350 713 269 l 713 1010 m 561 1199 q 588 1255 561 1233 q 657 1278 615 1278 q 726 1255 700 1278 q 752 1199 751 1232 q 726 1142 751 1165 q 657 1118 700 1118 q 588 1141 615 1118 q 561 1199 561 1164 m 260 1199 q 286 1256 260 1233 q 354 1279 312 1279 q 424 1256 398 1279 q 451 1199 450 1232 q 423 1141 450 1164 q 354 1119 397 1119 q 286 1142 312 1119 q 260 1199 260 1164 m 480 1400 l 570 1270 l 459 1270 l 334 1400 l 480 1400 z "},"ǜ":{"ha":864,"x_min":84,"x_max":780,"o":"m 570 323 l 570 758 l 780 758 l 780 0 l 578 0 l 578 138 l 570 138 q 485 31 545 71 q 340 -10 426 -10 q 155 66 226 -10 q 84 275 84 143 l 84 758 l 294 758 l 294 313 q 330 207 294 246 q 425 168 365 168 q 526 207 482 168 q 570 323 570 247 m 397 1264 l 535 1053 l 365 1053 l 171 1264 l 397 1264 m 506 933 q 534 996 506 971 q 604 1022 562 1022 q 674 996 647 1022 q 702 933 702 970 q 674 872 702 897 q 604 846 647 846 q 533 872 561 846 q 506 933 506 897 m 162 934 q 190 996 162 970 q 259 1022 217 1022 q 330 996 302 1022 q 358 934 358 971 q 330 872 358 898 q 259 847 302 847 q 190 872 218 847 q 162 934 162 898 z "},"ǝ":{"ha":830,"x_min":53,"x_max":777,"o":"m 401 772 q 602 725 517 772 q 731 590 686 677 q 777 382 777 502 q 731 177 777 265 q 603 39 686 89 q 409 -10 521 -10 q 229 33 309 -10 q 101 161 148 75 q 53 375 53 246 l 53 433 l 569 433 l 569 433 q 523 567 569 518 q 398 616 476 616 q 306 593 345 616 q 252 528 268 571 l 58 541 q 170 709 80 646 q 401 772 260 772 m 569 302 l 251 302 q 294 191 252 235 q 406 147 337 147 q 521 192 476 147 q 569 302 566 238 z "},"Ǟ":{"ha":1039,"x_min":33,"x_max":1005,"o":"m 262 0 l 33 0 l 382 1010 l 657 1010 l 1005 0 l 776 0 l 701 230 l 337 230 l 262 0 m 391 397 l 648 397 l 523 779 l 515 779 l 391 397 z "},"ǟ":{"ha":806,"x_min":48,"x_max":727,"o":"m 300 -14 q 120 42 191 -14 q 48 212 48 99 q 88 345 48 296 q 193 416 128 393 q 333 445 258 438 q 474 466 432 455 q 516 513 516 476 l 516 516 q 487 588 516 563 q 404 614 458 614 q 314 589 347 614 q 269 527 280 565 l 75 543 q 183 707 97 646 q 405 767 269 767 q 563 741 489 767 q 681 658 636 714 q 727 511 727 601 l 727 0 l 527 0 l 527 105 l 521 105 q 439 19 494 52 q 300 -14 384 -14 m 360 131 q 473 171 429 131 q 518 271 518 211 l 518 351 q 480 336 506 343 q 424 325 454 330 q 372 317 395 321 q 283 286 317 309 q 249 218 249 263 q 280 153 249 175 q 360 131 312 131 z "},"Ǡ":{"ha":1039,"x_min":33,"x_max":1005,"o":"m 262 0 l 33 0 l 382 1010 l 657 1010 l 1005 0 l 776 0 l 701 230 l 337 230 l 262 0 m 391 397 l 648 397 l 523 779 l 515 779 l 391 397 z "},"ǡ":{"ha":806,"x_min":48,"x_max":727,"o":"m 300 -14 q 120 42 191 -14 q 48 212 48 99 q 88 345 48 296 q 193 416 128 393 q 333 445 258 438 q 474 466 432 455 q 516 513 516 476 l 516 516 q 487 588 516 563 q 404 614 458 614 q 314 589 347 614 q 269 527 280 565 l 75 543 q 183 707 97 646 q 405 767 269 767 q 563 741 489 767 q 681 658 636 714 q 727 511 727 601 l 727 0 l 527 0 l 527 105 l 521 105 q 439 19 494 52 q 300 -14 384 -14 m 360 131 q 473 171 429 131 q 518 271 518 211 l 518 351 q 480 336 506 343 q 424 325 454 330 q 372 317 395 321 q 283 286 317 309 q 249 218 249 263 q 280 153 249 175 q 360 131 312 131 z "},"Ǣ":{"ha":1431,"x_min":33,"x_max":1350,"o":"m 33 0 l 466 1010 l 1348 1010 l 1348 834 l 881 834 l 881 593 l 1313 593 l 1313 417 l 881 417 l 881 176 l 1350 176 l 1350 0 l 668 0 l 668 230 l 363 230 l 268 0 l 33 0 m 432 397 l 668 397 l 668 800 l 597 800 l 432 397 m 1150 1263 l 1150 1149 l 669 1149 l 669 1263 l 1150 1263 z "},"ǣ":{"ha":1269,"x_min":48,"x_max":1216,"o":"m 881 -15 q 715 21 788 -15 q 605 124 642 57 l 599 124 q 489 23 569 60 q 312 -14 408 -14 q 121 43 194 -14 q 48 212 48 100 q 88 344 48 296 q 193 415 128 393 q 333 445 258 438 q 474 466 432 455 q 516 513 516 477 l 516 516 q 487 588 516 563 q 404 614 458 614 q 314 589 348 614 q 269 527 280 565 l 75 543 q 183 707 97 646 q 408 767 269 767 q 530 746 471 767 q 624 669 590 725 q 859 767 712 767 q 1040 725 960 767 q 1168 597 1121 683 q 1216 383 1216 511 l 1216 325 l 699 325 l 699 325 q 746 191 699 240 q 871 142 793 142 q 962 164 924 142 q 1017 230 1001 186 l 1211 217 q 1099 48 1189 111 q 881 -15 1010 -15 m 360 131 q 473 171 429 131 q 518 271 518 211 l 518 351 q 480 336 506 343 q 424 325 454 330 q 372 317 395 321 q 283 286 317 309 q 249 218 249 263 q 280 153 249 175 q 360 131 312 131 m 699 455 l 1018 455 q 974 567 1017 523 q 863 611 931 611 q 748 565 793 611 q 699 455 703 519 m 860 1010 l 860 896 l 380 896 l 380 1010 l 860 1010 z "},"Ǥ":{"ha":1056,"x_min":70,"x_max":1031,"o":"m 1031 327 l 1031 251 l 958 251 q 804 55 913 125 q 547 -14 695 -14 q 297 49 405 -14 q 130 228 190 112 q 70 504 70 344 q 133 784 70 668 q 302 962 195 901 q 543 1024 409 1024 q 750 981 657 1024 q 902 860 842 937 q 975 684 961 784 l 758 684 q 683 795 737 755 q 546 835 628 835 q 358 749 430 835 q 287 506 287 664 q 357 261 287 348 q 548 175 428 175 q 734 251 673 175 l 561 251 l 561 327 l 771 327 q 778 380 778 352 l 561 380 l 561 541 l 984 541 l 984 413 q 977 327 984 368 l 1031 327 z "},"ǥ":{"ha":879,"x_min":56,"x_max":936,"o":"m 425 -295 q 185 -235 272 -295 q 79 -89 98 -175 l 273 -63 q 323 -119 286 -93 q 430 -144 361 -144 q 543 -111 499 -144 q 588 -4 588 -79 l 588 134 l 579 134 q 506 49 558 87 q 363 11 454 11 q 208 51 278 11 q 97 173 138 91 q 56 380 56 254 q 98 595 56 509 q 210 724 140 681 q 363 767 280 767 q 469 746 426 767 q 539 693 512 725 q 579 630 565 661 l 587 630 l 587 758 l 796 758 l 796 -7 q 748 -166 796 -102 q 617 -262 700 -230 q 425 -295 534 -295 m 430 169 q 547 225 506 169 q 589 381 589 281 q 547 541 589 481 q 430 600 506 600 q 311 539 352 600 q 270 381 270 478 q 311 226 270 283 q 430 169 352 169 m 444 326 l 444 449 l 936 449 l 936 326 l 444 326 z "},"Ǧ":{"ha":1056,"x_min":70,"x_max":984,"o":"m 758 684 q 683 795 737 755 q 546 835 628 835 q 358 749 430 835 q 287 506 287 664 q 357 261 287 348 q 548 175 428 175 q 715 231 654 175 q 778 380 776 286 l 561 380 l 561 541 l 984 541 l 984 413 q 928 185 984 281 q 773 37 872 89 q 547 -14 675 -14 q 297 49 405 -14 q 130 228 190 112 q 70 504 70 344 q 133 784 70 668 q 302 962 195 901 q 543 1024 409 1024 q 750 981 657 1024 q 902 860 842 937 q 975 684 961 784 l 758 684 m 439 1325 l 538 1204 l 637 1325 l 816 1325 l 816 1318 l 616 1101 l 460 1101 l 260 1318 l 260 1325 l 439 1325 z "},"ǧ":{"ha":879,"x_min":56,"x_max":796,"o":"m 425 -295 q 185 -235 272 -295 q 79 -89 98 -175 l 273 -63 q 323 -119 286 -93 q 430 -144 361 -144 q 543 -111 499 -144 q 588 -4 588 -79 l 588 134 l 579 134 q 506 49 558 87 q 363 11 454 11 q 208 51 278 11 q 97 173 138 91 q 56 380 56 254 q 98 595 56 509 q 210 724 140 681 q 363 767 280 767 q 469 746 426 767 q 539 693 512 725 q 579 630 565 661 l 587 630 l 587 758 l 796 758 l 796 -7 q 748 -166 796 -102 q 617 -262 700 -230 q 425 -295 534 -295 m 430 169 q 547 225 506 169 q 589 381 589 281 q 547 541 589 481 q 430 600 506 600 q 311 539 352 600 q 270 381 270 478 q 311 226 270 283 q 430 169 352 169 m 331 1072 l 430 952 l 529 1072 l 708 1072 l 708 1065 l 508 848 l 352 848 l 152 1065 l 152 1072 l 331 1072 z "},"Ǩ":{"ha":958,"x_min":88,"x_max":939,"o":"m 88 0 l 88 1010 l 301 1010 l 301 565 l 315 565 l 678 1010 l 934 1010 l 559 558 l 939 0 l 683 0 l 406 415 l 301 287 l 301 0 l 88 0 m 379 1325 l 478 1204 l 577 1325 l 756 1325 l 756 1318 l 556 1101 l 400 1101 l 200 1318 l 200 1325 l 379 1325 z "},"ǩ":{"ha":808,"x_min":-89,"x_max":803,"o":"m 84 0 l 84 1010 l 294 1010 l 294 470 l 305 470 l 548 758 l 789 758 l 508 430 l 803 0 l 557 0 l 351 305 l 294 241 l 294 0 l 84 0 m 90 1325 l 189 1204 l 289 1325 l 468 1325 l 468 1318 l 267 1101 l 111 1101 l -89 1318 l -89 1325 l 90 1325 z "},"Ǫ":{"ha":1086,"x_min":70,"x_max":1016,"o":"m 1016 505 q 954 224 1016 340 q 784 47 891 108 q 543 -14 677 -14 q 301 47 408 -14 q 132 225 194 109 q 70 505 70 341 q 132 786 70 670 q 301 963 194 902 q 543 1024 408 1024 q 784 963 677 1024 q 954 786 891 902 q 1016 505 1016 670 m 799 505 q 729 750 799 666 q 543 835 659 835 q 357 750 427 835 q 287 505 287 666 q 357 260 287 345 q 543 175 427 175 q 729 260 659 175 q 799 505 799 345 m 570 -282 q 460 -248 504 -282 q 404 -152 416 -215 q 418 -32 393 -92 q 509 58 444 29 l 666 1 q 590 -46 619 -21 q 561 -107 560 -71 q 609 -156 560 -156 q 638 -152 625 -156 q 660 -144 651 -147 l 682 -253 q 636 -273 664 -263 q 570 -282 608 -282 z "},"ǫ":{"ha":852,"x_min":53,"x_max":799,"o":"m 426 -15 q 228 34 311 -15 q 99 171 144 83 q 53 376 53 259 q 99 581 53 493 q 228 718 144 669 q 426 767 311 767 q 625 718 541 767 q 754 581 708 669 q 799 376 799 493 q 754 171 799 259 q 625 34 708 83 q 426 -15 541 -15 m 427 148 q 545 213 505 148 q 585 377 585 278 q 545 542 585 476 q 427 607 505 607 q 307 542 348 607 q 267 377 267 476 q 307 213 267 278 q 427 148 348 148 m 446 -283 q 336 -249 380 -283 q 281 -153 292 -216 q 295 -33 269 -93 q 386 57 321 28 l 542 0 q 466 -47 496 -22 q 437 -108 436 -72 q 485 -157 436 -157 q 514 -153 502 -157 q 537 -145 527 -148 l 558 -254 q 512 -273 540 -264 q 446 -283 484 -283 z "},"Ǭ":{"ha":1086,"x_min":70,"x_max":1016,"o":"m 1016 505 q 954 224 1016 340 q 784 47 891 108 q 543 -14 677 -14 q 301 47 408 -14 q 132 225 194 109 q 70 505 70 341 q 132 786 70 670 q 301 963 194 902 q 543 1024 408 1024 q 784 963 677 1024 q 954 786 891 902 q 1016 505 1016 670 m 799 505 q 729 750 799 666 q 543 835 659 835 q 357 750 427 835 q 287 505 287 666 q 357 260 287 345 q 543 175 427 175 q 729 260 659 175 q 799 505 799 345 m 570 -282 q 460 -248 504 -282 q 404 -152 416 -215 q 418 -32 393 -92 q 509 58 444 29 l 666 1 q 590 -46 619 -21 q 561 -107 560 -71 q 609 -156 560 -156 q 638 -152 625 -156 q 660 -144 651 -147 l 682 -253 q 636 -273 664 -263 q 570 -282 608 -282 m 783 1263 l 783 1149 l 303 1149 l 303 1263 l 783 1263 z "},"ǭ":{"ha":852,"x_min":53,"x_max":799,"o":"m 426 -15 q 228 34 311 -15 q 99 171 144 83 q 53 376 53 259 q 99 581 53 493 q 228 718 144 669 q 426 767 311 767 q 625 718 541 767 q 754 581 708 669 q 799 376 799 493 q 754 171 799 259 q 625 34 708 83 q 426 -15 541 -15 m 427 148 q 545 213 505 148 q 585 377 585 278 q 545 542 585 476 q 427 607 505 607 q 307 542 348 607 q 267 377 267 476 q 307 213 267 278 q 427 148 348 148 m 446 -283 q 336 -249 380 -283 q 281 -153 292 -216 q 295 -33 269 -93 q 386 57 321 28 l 542 0 q 466 -47 496 -22 q 437 -108 436 -72 q 485 -157 436 -157 q 514 -153 502 -157 q 537 -145 527 -148 l 558 -254 q 512 -273 540 -264 q 446 -283 484 -283 m 666 1010 l 666 896 l 186 896 l 186 1010 l 666 1010 z "},"Ǯ":{"ha":953,"x_min":49,"x_max":903,"o":"m 49 89 l 265 89 q 299 -7 268 34 q 376 -71 329 -48 q 474 -94 423 -94 q 589 -56 543 -94 q 658 41 635 -18 q 682 165 682 101 q 651 295 682 238 q 566 384 621 352 q 439 417 511 417 l 329 417 l 329 572 l 611 823 l 611 831 l 106 831 l 106 1010 l 877 1010 l 877 856 l 548 563 l 548 553 q 747 484 668 543 q 864 339 825 426 q 903 155 903 252 q 850 -60 903 37 q 701 -216 797 -158 q 472 -275 604 -275 q 262 -228 357 -275 q 110 -100 167 -182 q 49 89 53 -18 m 378 1325 l 477 1204 l 576 1325 l 755 1325 l 755 1318 l 555 1101 l 399 1101 l 199 1318 l 199 1325 l 378 1325 z "},"ǯ":{"ha":911,"x_min":66,"x_max":839,"o":"m 356 1072 l 455 952 l 554 1072 l 733 1072 l 733 1065 l 533 848 l 377 848 l 177 1065 l 177 1072 l 356 1072 z "},"ǰ":{"ha":378,"x_min":-89,"x_max":467,"o":"m 84 758 l 294 758 l 294 -35 q 217 -226 294 -167 q 3 -282 140 -285 q -14 -281 -5 -282 q -36 -281 -23 -281 l -36 -116 q -21 -117 -27 -117 q -8 -117 -14 -117 q 63 -96 43 -117 q 84 -32 84 -74 l 84 758 m 90 1072 l 189 952 l 288 1072 l 467 1072 l 467 1065 l 267 848 l 110 848 l -89 1065 l -89 1072 l 90 1072 z "},"Ǳ":{"ha":1936,"x_min":88,"x_max":1860,"o":"m 446 0 l 88 0 l 88 1010 l 449 1010 q 711 950 601 1010 q 881 776 822 889 q 940 506 940 663 q 881 235 940 348 q 710 61 821 121 q 446 0 600 0 m 301 183 l 437 183 q 653 260 580 183 q 727 506 727 337 q 653 751 727 674 q 437 827 580 827 l 301 827 l 301 183 m 1087 0 l 1087 127 l 1591 834 l 1086 834 l 1086 1010 l 1859 1010 l 1859 883 l 1355 176 l 1860 176 l 1860 0 l 1087 0 z "},"ǲ":{"ha":1804,"x_min":88,"x_max":1727,"o":"m 446 0 l 88 0 l 88 1010 l 449 1010 q 711 950 601 1010 q 881 776 822 889 q 940 506 940 663 q 881 235 940 348 q 710 61 821 121 q 446 0 600 0 m 301 183 l 437 183 q 653 260 580 183 q 727 506 727 337 q 653 751 727 674 q 437 827 580 827 l 301 827 l 301 183 m 1090 0 l 1090 125 l 1461 584 l 1461 590 l 1103 590 l 1103 758 l 1714 758 l 1714 621 l 1366 173 l 1366 168 l 1727 168 l 1727 0 l 1090 0 z "},"Ǵ":{"ha":1056,"x_min":70,"x_max":984,"o":"m 758 684 q 683 795 737 755 q 546 835 628 835 q 358 749 430 835 q 287 506 287 664 q 357 261 287 348 q 548 175 428 175 q 715 231 654 175 q 778 380 776 286 l 561 380 l 561 541 l 984 541 l 984 413 q 928 185 984 281 q 773 37 872 89 q 547 -14 675 -14 q 297 49 405 -14 q 130 228 190 112 q 70 504 70 344 q 133 784 70 668 q 302 962 195 901 q 543 1024 409 1024 q 750 981 657 1024 q 902 860 842 937 q 975 684 961 784 l 758 684 m 462 1108 l 567 1332 l 761 1332 l 611 1108 l 462 1108 z "},"ǵ":{"ha":879,"x_min":56,"x_max":796,"o":"m 425 -295 q 185 -235 272 -295 q 79 -89 98 -175 l 273 -63 q 323 -119 286 -93 q 430 -144 361 -144 q 543 -111 499 -144 q 588 -4 588 -79 l 588 134 l 579 134 q 506 49 558 87 q 363 11 454 11 q 208 51 278 11 q 97 173 138 91 q 56 380 56 254 q 98 595 56 509 q 210 724 140 681 q 363 767 280 767 q 469 746 426 767 q 539 693 512 725 q 579 630 565 661 l 587 630 l 587 758 l 796 758 l 796 -7 q 748 -166 796 -102 q 617 -262 700 -230 q 425 -295 534 -295 m 430 169 q 547 225 506 169 q 589 381 589 281 q 547 541 589 481 q 430 600 506 600 q 311 539 352 600 q 270 381 270 478 q 311 226 270 283 q 430 169 352 169 m 355 855 l 459 1080 l 654 1080 l 503 855 l 355 855 z "},"Ƕ":{"ha":1560,"x_min":88,"x_max":1476,"o":"m 1106 -14 q 836 79 936 -14 q 735 340 735 172 l 735 417 l 301 417 l 301 0 l 88 0 l 88 1010 l 301 1010 l 301 593 l 735 593 l 735 1010 l 948 1010 l 948 340 q 990 210 948 254 q 1106 166 1032 166 q 1221 210 1181 166 q 1262 340 1262 254 l 1262 737 l 1476 737 l 1476 340 q 1376 78 1476 171 q 1106 -14 1276 -14 z "},"Ƿ":{"ha":1039,"x_min":116,"x_max":926,"o":"m 330 988 l 330 966 q 408 992 365 982 q 500 1002 451 1002 q 724 952 629 1002 q 873 804 820 902 q 926 566 926 707 l 926 531 q 855 270 926 392 q 652 54 785 149 q 330 -100 519 -41 l 330 -282 l 116 -282 l 116 988 l 330 988 m 330 78 q 613 270 519 150 q 706 531 706 390 l 706 568 q 690 696 706 637 q 630 793 675 756 q 500 830 586 830 q 406 811 449 830 q 330 759 363 792 l 330 78 z "},"Ǹ":{"ha":1021,"x_min":88,"x_max":933,"o":"m 933 1010 l 933 0 l 748 0 l 309 636 l 301 636 l 301 0 l 88 0 l 88 1010 l 275 1010 l 711 375 l 720 375 l 720 1010 l 933 1010 m 438 1108 l 288 1332 l 481 1332 l 586 1108 l 438 1108 z "},"ǹ":{"ha":864,"x_min":84,"x_max":782,"o":"m 294 438 l 294 0 l 84 0 l 84 758 l 284 758 l 284 624 l 293 624 q 378 729 319 690 q 521 767 436 767 q 711 691 639 767 q 782 482 782 615 l 782 0 l 572 0 l 572 445 q 537 554 573 514 q 437 593 501 593 q 334 552 374 593 q 294 438 294 511 m 360 855 l 209 1080 l 403 1080 l 508 855 l 360 855 z "},"Ǻ":{"ha":1039,"x_min":33,"x_max":1005,"o":"m 262 0 l 33 0 l 382 1010 l 657 1010 l 1005 0 l 776 0 l 701 230 l 337 230 l 262 0 m 391 397 l 648 397 l 523 779 l 515 779 l 391 397 m 519 1062 q 431 1097 468 1062 q 395 1181 395 1132 q 431 1265 395 1230 q 519 1300 468 1300 q 608 1265 572 1300 q 644 1181 644 1230 q 608 1097 644 1132 q 519 1062 572 1062 m 447 1347 l 581 1490 l 766 1490 l 576 1347 l 447 1347 m 519 1133 q 554 1147 540 1133 q 568 1181 568 1162 q 554 1212 568 1199 q 519 1226 540 1226 q 485 1212 499 1226 q 471 1181 471 1199 q 485 1147 471 1162 q 519 1133 499 1133 z "},"ǻ":{"ha":806,"x_min":48,"x_max":727,"o":"m 300 -14 q 120 42 191 -14 q 48 212 48 99 q 88 345 48 296 q 193 416 128 393 q 333 445 258 438 q 474 466 432 455 q 516 513 516 476 l 516 516 q 487 588 516 563 q 404 614 458 614 q 314 589 347 614 q 269 527 280 565 l 75 543 q 183 707 97 646 q 405 767 269 767 q 563 741 489 767 q 681 658 636 714 q 727 511 727 601 l 727 0 l 527 0 l 527 105 l 521 105 q 439 19 494 52 q 300 -14 384 -14 m 360 131 q 473 171 429 131 q 518 271 518 211 l 518 351 q 480 336 506 343 q 424 325 454 330 q 372 317 395 321 q 283 286 317 309 q 249 218 249 263 q 280 153 249 175 q 360 131 312 131 m 412 809 q 325 844 362 809 q 288 928 288 879 q 325 1013 288 978 q 412 1048 362 1048 q 501 1013 465 1048 q 537 928 537 978 q 501 844 537 879 q 412 809 465 809 m 341 1094 l 475 1237 l 660 1237 l 470 1094 l 341 1094 m 412 881 q 447 895 433 881 q 461 928 461 909 q 447 960 461 946 q 412 974 433 974 q 378 960 393 974 q 364 928 364 946 q 378 895 364 909 q 412 881 393 881 z "},"Ǽ":{"ha":1431,"x_min":33,"x_max":1350,"o":"m 33 0 l 466 1010 l 1348 1010 l 1348 834 l 881 834 l 881 593 l 1313 593 l 1313 417 l 881 417 l 881 176 l 1350 176 l 1350 0 l 668 0 l 668 230 l 363 230 l 268 0 l 33 0 m 432 397 l 668 397 l 668 800 l 597 800 l 432 397 m 834 1108 l 939 1332 l 1133 1332 l 982 1108 l 834 1108 z "},"ǽ":{"ha":1269,"x_min":48,"x_max":1216,"o":"m 881 -15 q 715 21 788 -15 q 605 124 642 57 l 599 124 q 489 23 569 60 q 312 -14 408 -14 q 121 43 194 -14 q 48 212 48 100 q 88 344 48 296 q 193 415 128 393 q 333 445 258 438 q 474 466 432 455 q 516 513 516 477 l 516 516 q 487 588 516 563 q 404 614 458 614 q 314 589 348 614 q 269 527 280 565 l 75 543 q 183 707 97 646 q 408 767 269 767 q 530 746 471 767 q 624 669 590 725 q 859 767 712 767 q 1040 725 960 767 q 1168 597 1121 683 q 1216 383 1216 511 l 1216 325 l 699 325 l 699 325 q 746 191 699 240 q 871 142 793 142 q 962 164 924 142 q 1017 230 1001 186 l 1211 217 q 1099 48 1189 111 q 881 -15 1010 -15 m 360 131 q 473 171 429 131 q 518 271 518 211 l 518 351 q 480 336 506 343 q 424 325 454 330 q 372 317 395 321 q 283 286 317 309 q 249 218 249 263 q 280 153 249 175 q 360 131 312 131 m 699 455 l 1018 455 q 974 567 1017 523 q 863 611 931 611 q 748 565 793 611 q 699 455 703 519 m 545 855 l 649 1080 l 843 1080 l 693 855 l 545 855 z "},"Ǿ":{"ha":1086,"x_min":70,"x_max":1016,"o":"m 228 -48 l 132 17 l 206 122 q 106 285 142 189 q 70 505 70 382 q 132 786 70 670 q 301 963 194 902 q 543 1024 408 1024 q 789 960 681 1024 l 856 1056 l 952 991 l 880 888 q 980 725 944 822 q 1016 505 1016 629 q 954 224 1016 340 q 784 47 891 108 q 543 -14 677 -14 q 297 50 405 -14 l 228 -48 m 799 505 q 756 710 799 628 l 409 212 q 543 175 466 175 q 729 260 659 175 q 799 505 799 345 m 330 301 l 676 799 q 543 835 619 835 q 357 750 427 835 q 287 505 287 666 q 330 301 287 382 m 468 1108 l 572 1332 l 766 1332 l 616 1108 l 468 1108 z "},"ǿ":{"ha":855,"x_min":53,"x_max":799,"o":"m 202 -48 l 106 17 l 156 89 q 80 214 107 141 q 53 375 53 286 q 99 580 53 492 q 228 717 144 668 q 426 766 311 766 q 601 730 523 766 l 650 800 l 747 735 l 696 662 q 772 537 746 610 q 799 375 799 464 q 754 170 799 258 q 625 33 708 82 q 426 -16 541 -16 q 251 22 328 -16 l 202 -48 m 281 269 l 501 586 q 427 606 469 606 q 307 541 348 606 q 267 376 267 475 q 281 269 267 317 m 427 147 q 545 212 505 147 q 585 376 585 277 q 571 483 585 436 l 352 168 q 427 147 385 147 m 351 854 l 455 1079 l 650 1079 l 499 854 l 351 854 z "},"Ȁ":{"ha":1039,"x_min":33,"x_max":1005,"o":"m 262 0 l 33 0 l 382 1010 l 657 1010 l 1005 0 l 776 0 l 701 230 l 337 230 l 262 0 m 391 397 l 648 397 l 523 779 l 515 779 l 391 397 m 437 1108 l 265 1199 l 234 1332 l 422 1240 l 437 1108 m 679 1108 l 526 1199 l 527 1332 l 689 1240 l 679 1108 z "},"ȁ":{"ha":806,"x_min":48,"x_max":727,"o":"m 300 -14 q 120 42 191 -14 q 48 212 48 99 q 88 345 48 296 q 193 416 128 393 q 333 445 258 438 q 474 466 432 455 q 516 513 516 476 l 516 516 q 487 588 516 563 q 404 614 458 614 q 314 589 347 614 q 269 527 280 565 l 75 543 q 183 707 97 646 q 405 767 269 767 q 563 741 489 767 q 681 658 636 714 q 727 511 727 601 l 727 0 l 527 0 l 527 105 l 521 105 q 439 19 494 52 q 300 -14 384 -14 m 360 131 q 473 171 429 131 q 518 271 518 211 l 518 351 q 480 336 506 343 q 424 325 454 330 q 372 317 395 321 q 283 286 317 309 q 249 218 249 263 q 280 153 249 175 q 360 131 312 131 m 331 855 l 158 947 l 127 1080 l 315 988 l 331 855 m 572 855 l 419 947 l 421 1080 l 582 988 l 572 855 z "},"Ȃ":{"ha":1039,"x_min":33,"x_max":1005,"o":"m 262 0 l 33 0 l 382 1010 l 657 1010 l 1005 0 l 776 0 l 701 230 l 337 230 l 262 0 m 391 397 l 648 397 l 523 779 l 515 779 l 391 397 m 275 1128 q 340 1276 274 1218 q 519 1333 406 1333 q 697 1276 631 1333 q 763 1128 763 1218 l 618 1128 q 594 1190 617 1163 q 519 1216 572 1216 q 443 1189 465 1216 q 421 1128 421 1163 l 275 1128 z "},"ȃ":{"ha":806,"x_min":48,"x_max":727,"o":"m 300 -14 q 120 42 191 -14 q 48 212 48 99 q 88 345 48 296 q 193 416 128 393 q 333 445 258 438 q 474 466 432 455 q 516 513 516 476 l 516 516 q 487 588 516 563 q 404 614 458 614 q 314 589 347 614 q 269 527 280 565 l 75 543 q 183 707 97 646 q 405 767 269 767 q 563 741 489 767 q 681 658 636 714 q 727 511 727 601 l 727 0 l 527 0 l 527 105 l 521 105 q 439 19 494 52 q 300 -14 384 -14 m 360 131 q 473 171 429 131 q 518 271 518 211 l 518 351 q 480 336 506 343 q 424 325 454 330 q 372 317 395 321 q 283 286 317 309 q 249 218 249 263 q 280 153 249 175 q 360 131 312 131 m 168 876 q 234 1023 168 966 q 412 1081 299 1081 q 590 1023 524 1081 q 657 876 656 966 l 511 876 q 488 937 510 910 q 412 964 465 964 q 336 937 359 964 q 315 876 314 910 l 168 876 z "},"Ȅ":{"ha":851,"x_min":88,"x_max":770,"o":"m 88 0 l 88 1010 l 768 1010 l 768 834 l 301 834 l 301 593 l 733 593 l 733 417 l 301 417 l 301 176 l 770 176 l 770 0 l 88 0 m 348 1108 l 175 1199 l 144 1332 l 332 1240 l 348 1108 m 589 1108 l 436 1199 l 437 1332 l 599 1240 l 589 1108 z "},"ȅ":{"ha":830,"x_min":53,"x_max":777,"o":"m 429 -15 q 228 33 313 -15 q 99 168 144 80 q 53 375 53 255 q 99 581 53 492 q 227 718 144 669 q 421 767 309 767 q 601 725 521 767 q 729 597 682 683 q 777 383 777 511 l 777 325 l 261 325 l 261 325 q 307 191 261 240 q 433 142 354 142 q 524 164 485 142 q 578 230 562 186 l 772 217 q 660 48 750 111 q 429 -15 570 -15 m 261 455 l 579 455 q 536 567 579 523 q 424 611 493 611 q 309 565 354 611 q 261 455 264 520 m 334 855 l 161 947 l 130 1080 l 318 988 l 334 855 m 575 855 l 422 947 l 424 1080 l 585 988 l 575 855 z "},"Ȇ":{"ha":851,"x_min":88,"x_max":770,"o":"m 88 0 l 88 1010 l 768 1010 l 768 834 l 301 834 l 301 593 l 733 593 l 733 417 l 301 417 l 301 176 l 770 176 l 770 0 l 88 0 m 185 1128 q 250 1276 184 1218 q 429 1333 316 1333 q 607 1276 541 1333 q 674 1128 673 1218 l 528 1128 q 505 1190 527 1163 q 429 1216 482 1216 q 353 1189 375 1216 q 331 1128 331 1163 l 185 1128 z "},"ȇ":{"ha":830,"x_min":53,"x_max":777,"o":"m 429 -15 q 228 33 313 -15 q 99 168 144 80 q 53 375 53 255 q 99 581 53 492 q 227 718 144 669 q 421 767 309 767 q 601 725 521 767 q 729 597 682 683 q 777 383 777 511 l 777 325 l 261 325 l 261 325 q 307 191 261 240 q 433 142 354 142 q 524 164 485 142 q 578 230 562 186 l 772 217 q 660 48 750 111 q 429 -15 570 -15 m 261 455 l 579 455 q 536 567 579 523 q 424 611 493 611 q 309 565 354 611 q 261 455 264 520 m 171 876 q 236 1023 171 966 q 415 1081 302 1081 q 593 1023 527 1081 q 660 876 659 966 l 514 876 q 491 937 513 910 q 415 964 468 964 q 339 937 362 964 q 318 876 317 910 l 171 876 z "},"Ȉ":{"ha":390,"x_min":-90,"x_max":365,"o":"m 301 1010 l 301 0 l 88 0 l 88 1010 l 301 1010 m 113 1108 l -59 1199 l -90 1332 l 98 1240 l 113 1108 m 355 1108 l 202 1199 l 203 1332 l 365 1240 l 355 1108 z "},"ȉ":{"ha":378,"x_min":-96,"x_max":359,"o":"m 84 0 l 84 758 l 294 758 l 294 0 l 84 0 m 108 855 l -65 947 l -96 1080 l 92 988 l 108 855 m 349 855 l 196 947 l 197 1080 l 359 988 l 349 855 z "},"Ȋ":{"ha":390,"x_min":-50,"x_max":439,"o":"m 301 1010 l 301 0 l 88 0 l 88 1010 l 301 1010 m -49 1128 q 16 1276 -50 1218 q 195 1333 82 1333 q 373 1276 307 1333 q 439 1128 439 1218 l 293 1128 q 270 1190 293 1163 q 195 1216 248 1216 q 119 1189 141 1216 q 97 1128 97 1163 l -49 1128 z "},"ȋ":{"ha":378,"x_min":-56,"x_max":434,"o":"m 84 0 l 84 758 l 294 758 l 294 0 l 84 0 m -55 876 q 10 1023 -56 966 q 189 1081 76 1081 q 367 1023 301 1081 q 434 876 433 966 l 288 876 q 264 937 287 910 q 189 964 242 964 q 113 937 135 964 q 91 876 91 910 l -55 876 z "},"Ȍ":{"ha":1086,"x_min":70,"x_max":1016,"o":"m 1016 505 q 954 224 1016 340 q 784 47 891 108 q 543 -14 677 -14 q 301 47 408 -14 q 132 225 194 109 q 70 505 70 341 q 132 786 70 670 q 301 963 194 902 q 543 1024 408 1024 q 784 963 677 1024 q 954 786 891 902 q 1016 505 1016 670 m 799 505 q 729 750 799 666 q 543 835 659 835 q 357 750 427 835 q 287 505 287 666 q 357 260 287 345 q 543 175 427 175 q 729 260 659 175 q 799 505 799 345 m 461 1108 l 289 1199 l 257 1332 l 445 1240 l 461 1108 m 702 1108 l 549 1199 l 551 1332 l 713 1240 l 702 1108 z "},"ȍ":{"ha":852,"x_min":53,"x_max":799,"o":"m 426 -15 q 228 34 311 -15 q 99 171 144 83 q 53 376 53 259 q 99 581 53 493 q 228 718 144 669 q 426 767 311 767 q 625 718 541 767 q 754 581 708 669 q 799 376 799 493 q 754 171 799 259 q 625 34 708 83 q 426 -15 541 -15 m 427 148 q 545 213 505 148 q 585 377 585 278 q 545 542 585 476 q 427 607 505 607 q 307 542 348 607 q 267 377 267 476 q 307 213 267 278 q 427 148 348 148 m 344 855 l 172 947 l 141 1080 l 328 988 l 344 855 m 585 855 l 433 947 l 434 1080 l 596 988 l 585 855 z "},"Ȏ":{"ha":1086,"x_min":70,"x_max":1016,"o":"m 1016 505 q 954 224 1016 340 q 784 47 891 108 q 543 -14 677 -14 q 301 47 408 -14 q 132 225 194 109 q 70 505 70 341 q 132 786 70 670 q 301 963 194 902 q 543 1024 408 1024 q 784 963 677 1024 q 954 786 891 902 q 1016 505 1016 670 m 799 505 q 729 750 799 666 q 543 835 659 835 q 357 750 427 835 q 287 505 287 666 q 357 260 287 345 q 543 175 427 175 q 729 260 659 175 q 799 505 799 345 m 298 1128 q 364 1276 298 1218 q 543 1333 430 1333 q 721 1276 654 1333 q 787 1128 787 1218 l 641 1128 q 618 1190 641 1163 q 543 1216 595 1216 q 467 1189 489 1216 q 445 1128 444 1163 l 298 1128 z "},"ȏ":{"ha":852,"x_min":53,"x_max":799,"o":"m 426 -15 q 228 34 311 -15 q 99 171 144 83 q 53 376 53 259 q 99 581 53 493 q 228 718 144 669 q 426 767 311 767 q 625 718 541 767 q 754 581 708 669 q 799 376 799 493 q 754 171 799 259 q 625 34 708 83 q 426 -15 541 -15 m 427 148 q 545 213 505 148 q 585 377 585 278 q 545 542 585 476 q 427 607 505 607 q 307 542 348 607 q 267 377 267 476 q 307 213 267 278 q 427 148 348 148 m 182 876 q 247 1023 181 966 q 426 1081 313 1081 q 604 1023 538 1081 q 670 876 670 966 l 524 876 q 501 937 524 910 q 426 964 478 964 q 350 937 372 964 q 328 876 327 910 l 182 876 z "},"Ȑ":{"ha":911,"x_min":88,"x_max":884,"o":"m 88 0 l 88 1010 l 486 1010 q 753 920 658 1010 q 848 680 848 831 q 802 503 848 577 q 670 393 756 430 l 884 0 l 649 0 l 457 358 l 301 358 l 301 0 l 88 0 m 301 530 l 446 530 q 628 680 628 530 q 445 836 628 836 l 301 836 l 301 530 m 368 1108 l 195 1199 l 164 1332 l 352 1240 l 368 1108 m 609 1108 l 456 1199 l 458 1332 l 619 1240 l 609 1108 z "},"ȑ":{"ha":568,"x_min":25,"x_max":544,"o":"m 84 0 l 84 758 l 288 758 l 288 625 l 295 625 q 365 732 316 696 q 477 768 414 768 q 544 761 512 768 l 544 575 q 503 583 529 580 q 455 586 476 586 q 340 542 385 586 q 294 429 294 499 l 294 0 l 84 0 m 229 855 l 56 947 l 25 1080 l 213 988 l 229 855 m 470 855 l 317 947 l 319 1080 l 480 988 l 470 855 z "},"Ȓ":{"ha":911,"x_min":88,"x_max":884,"o":"m 88 0 l 88 1010 l 486 1010 q 753 920 658 1010 q 848 680 848 831 q 802 503 848 577 q 670 393 756 430 l 884 0 l 649 0 l 457 358 l 301 358 l 301 0 l 88 0 m 301 530 l 446 530 q 628 680 628 530 q 445 836 628 836 l 301 836 l 301 530 m 205 1128 q 271 1276 205 1218 q 449 1333 336 1333 q 627 1276 561 1333 q 694 1128 693 1218 l 548 1128 q 525 1190 547 1163 q 449 1216 502 1216 q 373 1189 396 1216 q 352 1128 351 1163 l 205 1128 z "},"ȓ":{"ha":568,"x_min":66,"x_max":555,"o":"m 84 0 l 84 758 l 288 758 l 288 625 l 295 625 q 365 732 316 696 q 477 768 414 768 q 544 761 512 768 l 544 575 q 503 583 529 580 q 455 586 476 586 q 340 542 385 586 q 294 429 294 499 l 294 0 l 84 0 m 66 876 q 131 1023 66 966 q 310 1081 197 1081 q 488 1023 422 1081 q 555 876 554 966 l 409 876 q 386 937 408 910 q 310 964 363 964 q 234 937 256 964 q 213 876 212 910 l 66 876 z "},"Ȕ":{"ha":1013,"x_min":88,"x_max":925,"o":"m 713 1010 l 925 1010 l 925 342 q 872 148 925 228 q 723 27 818 69 q 507 -14 629 -14 q 290 27 384 -14 q 141 148 195 69 q 88 342 88 228 l 88 1010 l 301 1010 l 301 350 q 360 222 301 269 q 507 176 418 176 q 655 222 596 176 q 713 350 713 269 l 713 1010 m 425 1108 l 252 1199 l 221 1332 l 409 1240 l 425 1108 m 666 1108 l 513 1199 l 514 1332 l 676 1240 l 666 1108 z "},"ȕ":{"ha":864,"x_min":84,"x_max":780,"o":"m 570 323 l 570 758 l 780 758 l 780 0 l 578 0 l 578 138 l 570 138 q 485 31 545 71 q 340 -10 426 -10 q 155 66 226 -10 q 84 275 84 143 l 84 758 l 294 758 l 294 313 q 330 207 294 246 q 425 168 365 168 q 526 207 482 168 q 570 323 570 247 m 351 855 l 179 947 l 147 1080 l 335 988 l 351 855 m 592 855 l 439 947 l 441 1080 l 603 988 l 592 855 z "},"Ȗ":{"ha":1013,"x_min":88,"x_max":925,"o":"m 713 1010 l 925 1010 l 925 342 q 872 148 925 228 q 723 27 818 69 q 507 -14 629 -14 q 290 27 384 -14 q 141 148 195 69 q 88 342 88 228 l 88 1010 l 301 1010 l 301 350 q 360 222 301 269 q 507 176 418 176 q 655 222 596 176 q 713 350 713 269 l 713 1010 m 262 1128 q 327 1276 261 1218 q 506 1333 393 1333 q 684 1276 618 1333 q 751 1128 750 1218 l 605 1128 q 581 1190 604 1163 q 506 1216 559 1216 q 430 1189 452 1216 q 408 1128 408 1163 l 262 1128 z "},"ȗ":{"ha":864,"x_min":84,"x_max":780,"o":"m 570 323 l 570 758 l 780 758 l 780 0 l 578 0 l 578 138 l 570 138 q 485 31 545 71 q 340 -10 426 -10 q 155 66 226 -10 q 84 275 84 143 l 84 758 l 294 758 l 294 313 q 330 207 294 246 q 425 168 365 168 q 526 207 482 168 q 570 323 570 247 m 188 876 q 253 1023 187 966 q 432 1081 319 1081 q 610 1023 544 1081 q 677 876 676 966 l 531 876 q 508 937 530 910 q 432 964 485 964 q 356 937 378 964 q 334 876 334 910 l 188 876 z "},"Ș":{"ha":909,"x_min":55,"x_max":854,"o":"m 636 720 q 585 812 630 779 q 463 845 540 845 q 343 813 385 845 q 301 732 301 781 q 347 650 300 678 q 461 607 395 622 l 551 585 q 708 528 639 566 q 815 432 776 491 q 854 289 854 373 q 750 68 854 150 q 462 -14 647 -14 q 169 70 278 -14 q 55 317 59 153 l 262 317 q 322 203 267 241 q 460 165 376 165 q 590 199 541 165 q 639 289 638 234 q 594 368 638 340 q 467 415 549 396 l 357 443 q 155 540 229 473 q 82 718 81 607 q 131 879 81 810 q 267 986 181 947 q 465 1024 354 1024 q 661 985 577 1024 q 792 878 745 947 q 840 720 839 810 l 636 720 m 301 -330 l 363 -87 l 557 -87 l 449 -330 l 301 -330 z "},"ș":{"ha":780,"x_min":50,"x_max":731,"o":"m 714 542 l 522 530 q 482 592 514 566 q 395 618 450 618 q 312 598 346 618 q 279 544 279 578 q 301 498 279 516 q 375 468 323 479 l 512 440 q 731 235 731 395 q 688 104 731 160 q 568 17 644 48 q 394 -15 492 -15 q 154 48 244 -15 q 50 219 65 111 l 257 230 q 303 160 267 184 q 395 137 338 137 q 484 158 450 137 q 518 214 517 180 q 421 289 516 270 l 290 315 q 71 532 70 359 q 158 704 70 641 q 392 767 246 767 q 618 707 535 767 q 714 542 700 646 m 238 -324 l 299 -80 l 493 -80 l 385 -324 l 238 -324 z "},"Ț":{"ha":928,"x_min":49,"x_max":879,"o":"m 49 834 l 49 1010 l 879 1010 l 879 834 l 570 834 l 570 0 l 359 0 l 359 834 l 49 834 m 307 -324 l 368 -80 l 562 -80 l 454 -324 l 307 -324 z "},"ț":{"ha":540,"x_min":31,"x_max":501,"o":"m 487 758 l 487 600 l 344 600 l 344 233 q 364 174 344 189 q 415 159 384 159 q 445 162 430 159 q 468 166 460 164 l 501 9 q 456 -2 485 4 q 387 -10 428 -9 q 203 39 272 -15 q 134 205 134 94 l 134 600 l 31 600 l 31 758 l 134 758 l 134 939 l 344 939 l 344 758 l 487 758 m 145 -324 l 206 -80 l 400 -80 l 292 -324 l 145 -324 z "},"Ȝ":{"ha":930,"x_min":86,"x_max":845,"o":"m 161 206 l 161 366 q 434 463 334 418 q 575 561 533 508 q 617 692 617 615 q 579 791 617 753 q 452 829 541 829 q 346 801 392 829 q 301 720 301 773 l 86 720 q 138 872 86 809 q 272 968 189 935 q 452 1001 356 1001 q 727 929 623 1001 q 830 720 830 858 q 801 575 830 640 q 718 455 773 509 q 811 366 778 422 q 845 234 845 310 q 794 31 845 120 q 651 -124 743 -59 q 434 -233 558 -190 q 161 -296 309 -275 l 161 -125 q 509 9 390 -81 q 629 238 629 100 q 617 315 629 288 q 580 355 604 342 q 393 274 498 310 q 161 206 288 237 z "},"ȝ":{"ha":800,"x_min":83,"x_max":718,"o":"m 167 106 l 167 254 q 409 361 322 304 q 497 503 496 418 q 476 567 496 541 q 400 593 457 593 q 321 575 352 593 q 291 522 291 557 l 84 522 q 125 643 83 592 q 235 721 166 693 q 388 748 305 748 q 618 693 532 748 q 704 533 703 638 q 613 317 703 409 q 690 243 663 290 q 718 127 718 195 q 650 -67 718 16 q 459 -206 582 -150 q 167 -296 335 -263 l 167 -143 q 359 -65 283 -104 q 472 23 435 -26 q 509 141 509 72 q 487 225 509 191 q 344 161 424 190 q 167 106 264 131 z "},"Ȟ":{"ha":1036,"x_min":88,"x_max":948,"o":"m 88 0 l 88 1010 l 301 1010 l 301 593 l 735 593 l 735 1010 l 948 1010 l 948 0 l 735 0 l 735 417 l 301 417 l 301 0 l 88 0 m 421 1326 l 520 1205 l 619 1326 l 799 1326 l 799 1319 l 598 1102 l 442 1102 l 242 1319 l 242 1326 l 421 1326 z "},"ȟ":{"ha":867,"x_min":-91,"x_max":786,"o":"m 294 438 l 294 0 l 84 0 l 84 1010 l 288 1010 l 288 624 l 297 624 q 380 729 323 691 q 523 767 437 767 q 714 691 642 767 q 785 482 786 616 l 785 0 l 575 0 l 575 445 q 540 554 576 515 q 440 593 504 593 q 335 552 376 593 q 294 438 294 511 m 88 1325 l 187 1204 l 286 1325 l 465 1325 l 465 1318 l 265 1101 l 109 1101 l -91 1318 l -91 1325 l 88 1325 z "},"Ƞ":{"ha":933,"x_min":94,"x_max":841,"o":"m 841 -282 l 631 -282 l 631 697 q 594 800 631 763 q 473 836 557 836 q 301 786 383 836 l 301 0 l 94 0 l 94 988 l 301 988 l 301 954 q 392 989 343 976 q 497 1002 441 1002 q 671 966 593 1002 q 795 863 748 931 q 841 697 841 795 l 841 -282 z "},"ȡ":{"ha":997,"x_min":58,"x_max":1110,"o":"m 365 -12 q 210 32 279 -12 q 99 164 140 77 q 58 378 58 251 q 100 595 58 508 q 212 724 143 681 q 365 767 282 767 q 471 746 429 767 q 540 693 514 725 q 581 630 567 661 l 587 630 l 587 1010 l 797 1010 l 797 80 q 854 83 825 83 q 1043 30 976 83 q 1110 -108 1110 -23 q 1047 -236 1110 -189 q 861 -284 984 -284 q 709 -256 767 -284 q 621 -181 651 -228 l 500 -279 l 408 -153 l 583 -11 l 583 121 l 581 121 q 539 59 566 90 q 469 8 512 28 q 365 -12 427 -12 m 432 155 q 550 216 508 155 q 591 379 591 278 q 550 540 591 480 q 432 600 509 600 q 313 539 354 600 q 273 379 273 477 q 314 217 273 280 q 432 155 355 155 m 794 -58 l 794 -82 q 816 -140 795 -122 q 866 -159 837 -159 q 911 -143 893 -159 q 929 -104 930 -128 q 912 -61 930 -78 q 856 -43 894 -43 q 794 -58 830 -41 z "},"Ȣ":{"ha":932,"x_min":72,"x_max":862,"o":"m 456 649 l 475 649 q 599 671 553 649 q 644 752 644 693 q 622 809 644 792 q 562 836 601 827 l 562 1002 q 717 975 649 1002 q 823 893 785 948 q 862 752 862 837 q 831 634 862 683 q 745 554 799 584 q 829 456 799 515 q 860 316 860 397 q 810 136 860 209 q 672 24 760 62 q 474 -14 585 -14 l 460 -14 q 260 24 348 -14 q 122 135 173 62 q 72 314 72 208 q 103 455 72 396 q 187 554 133 515 q 103 633 133 584 q 72 752 72 682 q 155 941 72 880 q 371 1002 239 1002 l 371 836 q 310 809 330 827 q 290 752 290 792 q 332 673 290 696 q 456 649 374 649 m 474 474 l 460 474 q 335 432 381 474 q 290 314 290 390 q 334 199 290 241 q 460 157 379 157 l 474 157 q 598 199 555 157 q 642 316 641 242 q 598 432 641 389 q 474 474 555 474 z "},"ȣ":{"ha":930,"x_min":76,"x_max":854,"o":"m 474 634 q 602 665 556 634 q 648 772 648 696 q 623 855 648 826 q 561 897 599 884 l 561 1055 q 772 984 690 1055 q 854 775 854 914 q 824 638 854 693 q 739 548 793 582 q 824 452 793 511 q 854 311 854 394 q 805 133 854 205 q 670 23 756 60 q 473 -14 583 -14 l 459 -14 q 261 23 348 -14 q 126 132 175 60 q 76 311 76 205 q 107 453 76 394 q 191 548 137 511 q 107 638 138 582 q 76 775 76 693 q 158 984 76 912 q 370 1055 240 1055 l 370 897 q 308 855 332 884 q 285 772 285 826 q 330 664 285 695 q 456 634 376 634 l 474 634 m 473 469 l 459 469 q 331 426 377 469 q 285 311 285 384 q 331 195 285 238 q 459 153 377 153 l 473 153 q 601 195 556 153 q 646 311 646 238 q 601 426 646 384 q 473 469 556 469 z "},"Ȥ":{"ha":926,"x_min":76,"x_max":866,"o":"m 588 0 l 77 0 l 77 127 l 586 834 l 76 834 l 76 1010 l 849 1010 l 849 883 l 340 176 l 588 176 q 794 107 722 176 q 865 -84 866 37 l 865 -174 l 690 -174 l 690 -122 q 671 -37 690 -73 q 588 0 651 0 z "},"ȥ":{"ha":789,"x_min":81,"x_max":742,"o":"m 568 -184 l 568 -133 q 560 -72 568 -102 q 531 -20 553 -41 q 465 0 509 0 l 81 0 l 81 123 l 443 591 l 91 591 l 91 758 l 703 758 l 703 635 l 342 167 l 465 167 q 671 97 599 167 q 742 -94 742 27 l 742 -184 l 568 -184 z "},"Ȧ":{"ha":1039,"x_min":33,"x_max":1005,"o":"m 262 0 l 33 0 l 382 1010 l 657 1010 l 1005 0 l 776 0 l 701 230 l 337 230 l 262 0 m 391 397 l 648 397 l 523 779 l 515 779 l 391 397 m 519 1108 q 439 1139 472 1108 q 405 1214 405 1170 q 439 1289 405 1258 q 519 1320 472 1320 q 599 1289 566 1320 q 633 1214 633 1258 q 599 1139 633 1170 q 519 1108 566 1108 z "},"ȧ":{"ha":806,"x_min":48,"x_max":727,"o":"m 300 -14 q 120 42 191 -14 q 48 212 48 99 q 88 345 48 296 q 193 416 128 393 q 333 445 258 438 q 474 466 432 455 q 516 513 516 476 l 516 516 q 487 588 516 563 q 404 614 458 614 q 314 589 347 614 q 269 527 280 565 l 75 543 q 183 707 97 646 q 405 767 269 767 q 563 741 489 767 q 681 658 636 714 q 727 511 727 601 l 727 0 l 527 0 l 527 105 l 521 105 q 439 19 494 52 q 300 -14 384 -14 m 360 131 q 473 171 429 131 q 518 271 518 211 l 518 351 q 480 336 506 343 q 424 325 454 330 q 372 317 395 321 q 283 286 317 309 q 249 218 249 263 q 280 153 249 175 q 360 131 312 131 m 412 855 q 332 887 366 855 q 299 962 299 918 q 332 1037 299 1006 q 412 1068 366 1068 q 493 1037 459 1068 q 526 962 526 1006 q 493 887 526 918 q 412 855 459 855 z "},"Ȩ":{"ha":851,"x_min":88,"x_max":770,"o":"m 88 0 l 88 1010 l 768 1010 l 768 834 l 301 834 l 301 593 l 733 593 l 733 417 l 301 417 l 301 176 l 770 176 l 770 0 l 88 0 m 379 4 l 475 4 l 468 -39 q 551 -77 518 -47 q 583 -159 583 -107 q 515 -276 584 -232 q 323 -320 447 -320 l 321 -226 q 419 -211 383 -226 q 455 -164 454 -196 q 432 -118 456 -134 q 357 -96 408 -103 l 379 4 z "},"ȩ":{"ha":830,"x_min":53,"x_max":777,"o":"m 429 -15 q 228 33 313 -15 q 99 168 144 80 q 53 375 53 255 q 99 581 53 492 q 227 718 144 669 q 421 767 309 767 q 601 725 521 767 q 729 597 682 683 q 777 383 777 511 l 777 325 l 261 325 l 261 325 q 307 191 261 240 q 433 142 354 142 q 524 164 485 142 q 578 230 562 186 l 772 217 q 660 48 750 111 q 429 -15 570 -15 m 261 455 l 579 455 q 536 567 579 523 q 424 611 493 611 q 309 565 354 611 q 261 455 264 520 m 370 4 l 467 4 l 459 -39 q 542 -77 509 -47 q 575 -159 574 -107 q 507 -276 575 -232 q 314 -320 438 -320 l 312 -226 q 410 -211 374 -226 q 446 -164 445 -196 q 423 -118 447 -134 q 348 -96 399 -103 l 370 4 z "},"Ȫ":{"ha":1086,"x_min":70,"x_max":1016,"o":"m 1016 505 q 954 224 1016 340 q 784 47 891 108 q 543 -14 677 -14 q 301 47 408 -14 q 132 225 194 109 q 70 505 70 341 q 132 786 70 670 q 301 963 194 902 q 543 1024 408 1024 q 784 963 677 1024 q 954 786 891 902 q 1016 505 1016 670 m 799 505 q 729 750 799 666 q 543 835 659 835 q 357 750 427 835 q 287 505 287 666 q 357 260 287 345 q 543 175 427 175 q 729 260 659 175 q 799 505 799 345 z "},"ȫ":{"ha":852,"x_min":53,"x_max":799,"o":"m 426 -15 q 228 34 311 -15 q 99 171 144 83 q 53 376 53 259 q 99 581 53 493 q 228 718 144 669 q 426 767 311 767 q 625 718 541 767 q 754 581 708 669 q 799 376 799 493 q 754 171 799 259 q 625 34 708 83 q 426 -15 541 -15 m 427 148 q 545 213 505 148 q 585 377 585 278 q 545 542 585 476 q 427 607 505 607 q 307 542 348 607 q 267 377 267 476 q 307 213 267 278 q 427 148 348 148 z "},"Ȭ":{"ha":1086,"x_min":70,"x_max":1016,"o":"m 1016 505 q 954 224 1016 340 q 784 47 891 108 q 543 -14 677 -14 q 301 47 408 -14 q 132 225 194 109 q 70 505 70 341 q 132 786 70 670 q 301 963 194 902 q 543 1024 408 1024 q 784 963 677 1024 q 954 786 891 902 q 1016 505 1016 670 m 799 505 q 729 750 799 666 q 543 835 659 835 q 357 750 427 835 q 287 505 287 666 q 357 260 287 345 q 543 175 427 175 q 729 260 659 175 q 799 505 799 345 m 784 1449 l 784 1334 l 302 1334 l 302 1449 l 784 1449 m 663 1268 l 749 1244 q 716 1158 749 1196 q 633 1121 684 1121 q 571 1132 596 1121 q 523 1155 545 1144 q 470 1166 500 1166 q 437 1149 451 1166 q 424 1108 424 1131 l 339 1131 q 370 1218 339 1180 q 452 1256 402 1256 q 509 1245 482 1256 q 561 1222 535 1234 q 616 1211 587 1211 q 648 1227 634 1211 q 663 1268 662 1244 z "},"ȭ":{"ha":852,"x_min":53,"x_max":799,"o":"m 426 -15 q 228 34 311 -15 q 99 171 144 83 q 53 376 53 259 q 99 581 53 493 q 228 718 144 669 q 426 767 311 767 q 625 718 541 767 q 754 581 708 669 q 799 376 799 493 q 754 171 799 259 q 625 34 708 83 q 426 -15 541 -15 m 427 148 q 545 213 505 148 q 585 377 585 278 q 545 542 585 476 q 427 607 505 607 q 307 542 348 607 q 267 377 267 476 q 307 213 267 278 q 427 148 348 148 m 571 1050 l 691 1043 q 670 951 691 993 q 613 885 649 909 q 530 860 577 860 q 457 874 486 860 q 401 904 428 889 q 338 918 375 918 q 298 902 315 918 q 281 855 282 886 l 162 862 q 182 951 162 909 q 238 1018 203 992 q 320 1044 274 1044 q 388 1029 358 1044 q 447 1001 418 1015 q 511 986 477 986 q 553 1002 536 986 q 571 1050 571 1018 m 669 1246 l 669 1130 l 186 1130 l 186 1246 l 669 1246 z "}}}
